<?xml version="1.0" encoding="iso-8859-1"?>
<!-- Generator: Adobe Illustrator 19.0.0, SVG Export Plug-In . SVG Version: 6.00 Build 0)  -->
<svg version="1.1" id="Layer_1" xmlns="http://www.w3.org/2000/svg" xmlns:xlink="http://www.w3.org/1999/xlink" x="0px" y="0px"
	 viewBox="0 0 512 512" style="enable-background:new 0 0 512 512;" xml:space="preserve">
<g>
	<g>
		<g>
			<path d="M469.333,106.667H42.667C19.146,106.667,0,125.802,0,149.333v192C0,364.865,19.146,384,42.667,384H64v10.667
				c0,5.896,4.771,10.667,10.667,10.667h42.667c5.896,0,10.667-4.771,10.667-10.667V384h256v10.667
				c0,5.896,4.771,10.667,10.667,10.667h42.667c5.896,0,10.667-4.771,10.667-10.667V384h21.333C492.854,384,512,364.865,512,341.333
				v-192C512,125.802,492.854,106.667,469.333,106.667z M490.667,341.333c0,11.76-9.563,21.333-21.333,21.333h-32h-42.667H117.333
				H74.667h-32c-11.771,0-21.333-9.573-21.333-21.333v-192c0-11.76,9.563-21.333,21.333-21.333h426.667
				c11.771,0,21.333,9.573,21.333,21.333V341.333z"/>
			<path d="M74.667,181.333C68.771,181.333,64,186.104,64,192v42.667c0,5.896,4.771,10.667,10.667,10.667
				c5.896,0,10.667-4.771,10.667-10.667V192C85.333,186.104,80.563,181.333,74.667,181.333z"/>
			<path d="M64,256v42.667c0,5.896,4.771,10.667,10.667,10.667c5.896,0,10.667-4.771,10.667-10.667V256
				c0-5.896-4.771-10.667-10.667-10.667C68.771,245.333,64,250.104,64,256z"/>
			<path d="M181.333,181.333c0-5.896-4.771-10.667-10.667-10.667H128c-5.896,0-10.667,4.771-10.667,10.667
				c0,5.896,4.771,10.667,10.667,10.667h42.667v42.667H128c-5.896,0-10.667,4.771-10.667,10.667
				c-5.896,0-10.667,4.771-10.667,10.667v42.667c0,5.896,4.771,10.667,10.667,10.667c0,5.896,4.771,10.667,10.667,10.667h42.667
				c5.896,0,10.667-4.771,10.667-10.667c0-5.896-4.771-10.667-10.667-10.667H128V256h42.667c5.896,0,10.667-4.771,10.667-10.667
				c5.896,0,10.667-4.771,10.667-10.667V192C192,186.104,187.229,181.333,181.333,181.333z"/>
			<path d="M330.667,181.333c0-5.896-4.771-10.667-10.667-10.667h-42.667c-5.896,0-10.667,4.771-10.667,10.667
				c0,5.896,4.771,10.667,10.667,10.667H320v42.667h-42.667c-5.896,0-10.667,4.771-10.667,10.667
				c0,5.896,4.771,10.667,10.667,10.667H320v42.667h-42.667c-5.896,0-10.667,4.771-10.667,10.667
				c0,5.896,4.771,10.667,10.667,10.667H320c5.896,0,10.667-4.771,10.667-10.667c5.896,0,10.667-4.771,10.667-10.667V256
				c0-5.896-4.771-10.667-10.667-10.667c5.896,0,10.667-4.771,10.667-10.667V192C341.333,186.104,336.563,181.333,330.667,181.333z"
				/>
			<path d="M437.333,181.333c-5.896,0-10.667,4.771-10.667,10.667v42.667H384V192c0-5.896-4.771-10.667-10.667-10.667
				c-5.896,0-10.667,4.771-10.667,10.667v42.667c0,5.896,4.771,10.667,10.667,10.667c0,5.896,4.771,10.667,10.667,10.667h42.667
				v42.667c0,5.896,4.771,10.667,10.667,10.667c5.896,0,10.667-4.771,10.667-10.667V256c0-5.896-4.771-10.667-10.667-10.667
				c5.896,0,10.667-4.771,10.667-10.667V192C448,186.104,443.229,181.333,437.333,181.333z"/>
			<path d="M234.667,192c-11.771,0-21.333,9.573-21.333,21.333c0,11.76,9.563,21.333,21.333,21.333
				c11.771,0,21.333-9.573,21.333-21.333C256,201.573,246.438,192,234.667,192z M234.667,213.333c0,0,0-0.01,0-0.021l10.667,0.021
				H234.667z"/>
			<path d="M234.667,256c-11.771,0-21.333,9.573-21.333,21.333c0,11.76,9.563,21.333,21.333,21.333
				c11.771,0,21.333-9.573,21.333-21.333C256,265.573,246.438,256,234.667,256z M234.667,277.333c0,0,0-0.01,0-0.021l10.667,0.021
				H234.667z"/>
		</g>
	</g>
</g>
<g>
</g>
<g>
</g>
<g>
</g>
<g>
</g>
<g>
</g>
<g>
</g>
<g>
</g>
<g>
</g>
<g>
</g>
<g>
</g>
<g>
</g>
<g>
</g>
<g>
</g>
<g>
</g>
<g>
</g>
</svg>
