<?xml version="1.0" encoding="utf-8"?>
<svg viewBox="81.856 92.2 81.66 81.483" width="81.66" height="81.483" xmlns="http://www.w3.org/2000/svg">
  <path d="M 110.106 109.512 C 110.098 102.345 102.335 97.874 96.132 101.464 C 89.929 105.054 89.939 114.013 96.149 117.59 C 97.554 118.398 99.145 118.827 100.766 118.832 C 105.921 118.843 110.106 114.667 110.106 109.512 Z M 93.486 109.512 C 93.494 103.885 99.59 100.376 104.459 103.196 C 109.329 106.017 109.319 113.051 104.442 115.858 C 103.324 116.501 102.056 116.837 100.766 116.832 C 96.739 116.81 93.486 113.539 93.486 109.512 Z"/>
  <path d="M 100.766 140.202 C 93.599 140.202 89.12 147.96 92.703 154.167 C 96.286 160.374 105.245 160.374 108.828 154.167 C 109.646 152.752 110.076 151.146 110.076 149.512 C 110.07 144.372 105.905 140.207 100.766 140.202 Z M 100.766 156.832 C 95.139 156.832 91.621 150.74 94.435 145.867 C 97.249 140.994 104.283 140.994 107.096 145.867 C 107.738 146.978 108.076 148.239 108.076 149.522 C 108.07 153.557 104.801 156.826 100.766 156.832 Z"/>
  <path d="M 162.516 173.682 C 163.068 173.682 163.516 173.234 163.516 172.682 L 163.516 93.202 C 163.516 92.432 162.682 91.951 162.016 92.336 C 161.706 92.514 161.516 92.845 161.516 93.202 L 161.516 119.832 L 154.986 119.832 L 154.986 118.012 C 154.986 108.623 147.375 101.012 137.986 101.012 L 117.106 101.012 C 116.553 101.012 116.106 101.46 116.106 102.012 L 116.106 119.832 L 83.856 119.832 L 83.856 93.202 C 83.856 92.432 83.022 91.951 82.356 92.336 C 82.046 92.514 81.856 92.845 81.856 93.202 L 81.856 172.682 C 81.856 173.452 82.689 173.933 83.356 173.548 C 83.665 173.369 83.856 173.039 83.856 172.682 L 83.856 161.832 L 161.516 161.832 L 161.516 172.682 C 161.516 173.234 161.963 173.682 162.516 173.682 Z M 118.106 103.012 L 137.986 103.012 C 146.27 103.012 152.986 109.728 152.986 118.012 L 152.986 119.822 L 118.106 119.822 Z M 152.986 159.832 L 118.106 159.832 L 118.106 143.012 L 137.986 143.012 C 146.27 143.012 152.986 149.728 152.986 158.012 Z M 154.986 159.832 L 154.986 158.012 C 154.986 148.623 147.375 141.012 137.986 141.012 L 117.106 141.012 C 116.553 141.012 116.106 141.46 116.106 142.012 L 116.106 159.832 L 83.856 159.832 L 83.856 121.832 L 161.516 121.832 L 161.516 159.832 Z"/>
</svg>