<svg height="512pt" viewBox="0 -34 512 512" width="512pt" xmlns="http://www.w3.org/2000/svg"><path d="m0 0h512v62.261719h-512zm0 0"/><path d="m112.300781 221.664062h285.398438v-66.425781h-285.398438zm142.699219-48.214843c8.40625 0 14.636719 6.875 15 15 .363281 8.101562-7.15625 15-15 15-8.410156 0-14.636719-6.871094-15-15-.363281-8.101563 7.152344-15 15-15zm0 0"/><path d="m112.300781 381.832031h285.398438v-66.425781h-285.398438zm142.699219-48.214843c8.40625 0 14.636719 6.875 15 15 .363281 8.101562-7.15625 15-15 15-8.410156 0-14.636719-6.871094-15-15-.363281-8.101563 7.152344-15 15-15zm0 0"/><path d="m30.003906 92.261719v352.507812h450.992188v-352.507812zm52.296875 32.976562h345.398438v126.425781h-345.398438zm0 160.167969h345.398438v126.425781h-345.398438zm0 0"/></svg>