<svg height="511pt" viewBox="0 -29 511.99861 511" width="511pt" xmlns="http://www.w3.org/2000/svg"><path d="m56.816406 426.089844c14.132813 16.5 33.769532 26.503906 55.304688 28.167968 2.117187.164063 4.222656.242188 6.3125.242188 41.921875 0 77.546875-32.394531 80.832031-74.878906l6.554687-84.792969-161.710937-13.386719-6.625 85.671875c-1.664063 21.53125 5.199219 42.476563 19.332031 58.976563zm0 0"/><path d="m305.929688 291.648438 6.800781 87.972656c3.289062 42.488281 38.910156 74.878906 80.835937 74.878906 2.085938 0 4.195313-.078125 6.3125-.242188 44.601563-3.449218 78.082032-42.542968 74.632813-87.144531l-6.734375-87.101562zm0 0"/><path d="m501.394531 237.84375c7.660157-8.945312 11.378907-20.335938 10.46875-32.074219-.90625-11.742187-6.332031-22.429687-15.277343-30.089843-5.71875-4.898438-12.445313-8.175782-19.621094-9.671876l-5.726563-74.0625c-4.210937-54.472656-51.964843-95.355468-106.425781-91.148437-54.46875 4.210937-95.359375 51.953125-91.144531 106.425781l5.726562 74.082032c-10.148437 3.839843-18.425781 11.292968-23.394531 20.683593-4.972656-9.390625-13.246094-16.84375-23.398438-20.683593l5.726563-74.082032c4.214844-54.472656-36.675781-102.210937-91.148437-106.425781-54.453126-4.203125-102.210938 36.675781-106.421876 91.148437l-5.726562 74.082032c-18.671875 3.933594-33.355469 19.78125-34.898438 39.738281-.90625 11.742187 2.8125 23.132813 10.472657 32.078125 5.523437 6.449219 12.625 11.058594 20.554687 13.472656l184.605469 15.285156c.441406.011719.882813.027344 1.324219.027344 10.5 0 20.546875-3.703125 28.609375-10.605468 4.285156-3.671876 7.753906-8.042969 10.3125-12.886719 5.324219 10.03125 14.375 17.6875 25.171875 21.261719 4.351562 1.441406 8.980468 2.226562 13.765625 2.226562 1.136719 0 2.277343-.042969 3.429687-.132812l172.929688-13.367188c3.164062-.246094 6.246094-.828125 9.214844-1.710938 8.058593-2.390624 15.273437-7.035156 20.871093-13.570312zm0 0"/></svg>