<svg height="512pt" viewBox="0 -128 512 511" width="512pt" xmlns="http://www.w3.org/2000/svg"><path d="m481.277344 100.992188c-12.496094-57.382813-63.679688-100.492188-124.753906-100.492188h-201.703126c-61.074218 0-112.261718 43.109375-124.753906 100.492188h-30.066406v30h27.179688c1.5 69.109374 58.179687 124.863281 127.640624 124.863281 24.171876 0 47.707032-6.792969 68.0625-19.640625 12.628907-7.972656 23.710938-18.050782 32.789063-29.734375 9.078125 11.683593 20.15625 21.761719 32.789063 29.734375 20.355468 12.851562 43.890624 19.640625 68.0625 19.640625 69.460937 0 126.136718-55.753907 127.640624-124.863281h27.835938v-30zm-274.832032 72.503906-23.007812-18.140625c-4.3125 2.496093-9.144531 4.519531-14.519531 5.894531l-.175781 27.304688-30-.191407.175781-27.351562c-4.636719-1.289063-9.070313-3.148438-13.207031-5.511719l-22.820313 17.996094-18.578125-23.554688 19.933594-15.71875c-3.238282-5.585937-5.589844-11.8125-6.824219-18.515625l29.503906-5.429687c2.785157 15.117187 17.339844 25.152344 32.457031 22.367187 16.148438-2.972656 20.976563-16.984375 21.777344-19.761719l28.820313 8.328126c-1.191407 4.125-2.972657 8.425781-5.371094 12.632812l20.410156 16.09375zm201.609376 0-23.007813-18.140625c-4.3125 2.496093-9.144531 4.519531-14.519531 5.894531l-.175782 27.304688-29.996093-.191407.171875-27.332031c-4.578125-1.269531-9.011719-3.121094-13.214844-5.523438l-22.8125 17.988282-18.578125-23.554688 19.917969-15.707031c-3.277344-5.664063-5.589844-11.90625-6.808594-18.523437l29.503906-5.433594c1.34375 7.304687 5.46875 13.660156 11.609375 17.890625s13.542969 5.824219 20.847657 4.476562c16.148437-2.96875 20.976562-16.984375 21.777343-19.761719l28.820313 8.328126c-1.191406 4.125-2.972656 8.425781-5.371094 12.632812l20.410156 16.097656zm0 0"/></svg>