<svg height="512pt" viewBox="0 0 512 512" width="512pt" xmlns="http://www.w3.org/2000/svg"><path d="m330.921875 420.566406v-150.035156h-330.921875v150.035156zm-215.539063-90.382812v-30.0625h109.683594l-52.71875 59.742187h42.511719v30.058594h-109.113281l52.714844-59.738281zm0 0"/><path d="m330.921875 240.472656v-1.535156c0-36.527344-29.707031-66.246094-66.222656-66.246094-19.945313 0-36.175781-16.234375-36.175781-36.1875v-10.242187h-126.128907v10.242187c0 19.953125-16.226562 36.1875-36.171875 36.1875-36.515625 0-66.222656 29.71875-66.222656 66.246094v1.535156zm0 0"/><path d="m0 450.625h330.921875v61.375h-330.921875zm0 0"/><path d="m61.328125 0h47.539063v96.203125h-47.539063zm0 0"/><path d="m222.054688 0h47.535156v96.203125h-47.535156zm0 0"/><path d="m138.910156 0h53.097656v96.203125h-53.097656zm0 0"/><path d="m348.519531 200.949219c-.699219 12.023437 3.324219 23.597656 11.332031 32.59375 8.890626 9.992187 21.261719 15.085937 33.6875 15.085937 10.664063 0 21.371094-3.753906 29.945313-11.390625l25.664063-22.855469-61.679688-65.804687-23.921875 21.304687c-8.992187 8.007813-14.328125 19.042969-15.027344 31.066407zm0 0"/><path d="m471.597656 194.390625 21.882813-19.492187c8.992187-8.007813 14.328125-19.039063 15.027343-31.0625.695313-12.023438-3.328124-23.601563-11.332031-32.597657-8.007812-8.996093-19.035156-14.332031-31.054687-15.03125-12.023438-.699219-23.589844 3.328125-32.582032 11.335938l-23.621093 21.042969zm0 0"/><path d="m401.089844 331.246094c6.621094 24.429687 28.96875 42.457031 55.453125 42.457031 25.394531 0 46.980469-16.574219 54.554687-39.472656.328125-.984375.628906-1.976563.902344-2.984375zm0 0"/><path d="m512 301.1875c-.109375-.394531-.222656-.789062-.335938-1.183594-7.015624-23.824218-29.0625-41.269531-55.117187-41.269531-26.488281 0-48.835937 18.023437-55.457031 42.453125zm0 0"/></svg>