<svg height="512pt" viewBox="-1 0 512 512" width="512pt" xmlns="http://www.w3.org/2000/svg"><path d="m9.746094 343.382812c-26.234375 61.347657 2.328125 132.601563 63.675781 158.839844 15.167969 6.488282 31.160156 9.777344 47.53125 9.777344 48.53125 0 92.222656-28.832031 111.304687-73.449219 5.363282-12.53125 8.554688-25.742187 9.488282-39.261719l3.023437-43.832031-27.914062 33.929688c-12.761719 15.511719-32.402344 24.777343-52.53125 24.777343-9.183594 0-18.164063-1.851562-26.691407-5.5-16.695312-7.140624-29.613281-20.355468-36.367187-37.210937-6.757813-16.855469-6.546875-35.332031.59375-52.027344 4.03125-9.417969 9.941406-17.59375 17.566406-24.296875l33.058594-29.0625-43.785156 4.511719c-43.753907 4.507813-81.671875 32.40625-98.953125 72.804687zm0 0"/><path d="m408.699219 123.820312c0-11.882812-9.667969-21.550781-21.550781-21.550781-11.882813 0-21.550782 9.667969-21.550782 21.550781 0 11.882813 9.667969 21.550782 21.550782 21.550782 11.882812 0 21.550781-9.667969 21.550781-21.550782zm0 0"/><path d="m295.476562 212.738281 38 .828125 18.710938 33.085938 33.347656-18.261719 32.757813 19.25 19.75-32.457031 38.019531.308594.828125-38 33.089844-18.710938-18.265625-33.347656 19.253906-32.757813-32.457031-19.75.304687-38.023437-38-.824219-18.707031-33.089844-33.351563 18.261719-32.757812-19.25-19.75 32.457031-38.023438-.308593-.824218 38-33.085938 18.710937 18.261719 33.347656-19.25 32.757813 32.457031 19.75zm39.984376-88.917969c0-28.5 23.1875-51.683593 51.6875-51.683593 28.496093 0 51.683593 23.1875 51.683593 51.683593 0 28.5-23.1875 51.6875-51.683593 51.6875-28.5 0-51.6875-23.1875-51.6875-51.6875zm0 0"/><path d="m115.441406 72.636719c-23.648437 18.550781-43.191406 40.640625-58.085937 65.652343-8.523438 14.3125-15.402344 29.386719-20.609375 45.054688l-10.910156-15.011719-24.375 17.71875 37.273437 51.285157 56.691406-28.390626-13.496093-26.941406-15.605469 7.8125c12.6875-36.457031 35.710937-68.363281 67.714843-93.472656 38.21875-29.984375 86.128907-44.507812 133.722657-41.566406l.558593-30.132813c-54.453124-3.039062-109.171874 13.699219-152.878906 47.992188zm0 0"/><path d="m256.921875 488.722656c11.449219 0 22.902344-.875 34.199219-2.640625 32.472656-5.074219 63.992187-17.53125 91.148437-36.03125 43.988281-29.960937 75.949219-71.667969 92.25-119.59375l11.097657 15.269531 24.375-17.71875-37.273438-51.285156-56.691406 28.386719 13.496094 26.945313 15.15625-7.59375c-14.585938 40.203124-42.011719 75.234374-79.375 100.683593-23.484376 16-50.746094 26.773438-78.832032 31.160157-10.015625 1.566406-20.171875 2.308593-30.316406 2.269531-5.292969 10.59375-11.714844 20.394531-19.113281 29.265625 6.605469.589844 13.238281.882812 19.878906.882812zm0 0"/><path d="m221.09375 245.875h27.726562v-30.132812h-27.664062l29.378906-33.285157 6.09375-6.902343h-94.84375v30.136718h28.046875l-25.476562 28.859375-9.996094 11.324219zm0 0"/><path d="m357.476562 267.046875h-94.84375v30.132813h28.046876l-12.675782 14.359374-22.796875 25.824219h94.460938v-30.132812h-27.664063l18.175782-20.589844zm0 0"/></svg>