<svg height="512pt" viewBox="0 -38 512 512" width="512pt" xmlns="http://www.w3.org/2000/svg"><path d="m506.433594 392.539062h-242.644532l4.765626 43.460938h243.445312zm0 0"/><path d="m245.453125 362.539062 8.492187-59.800781 6.554688 59.800781h242.09375l-35.113281-274.167968-34.242188-88.371094h-354.46875l-34.207031 88.042969-35.15625 274.496093zm-42.566406-185.636718-28.894531-8.054688c3.742187-13.417968 9.207031-19.722656 13.597656-24.789062 3.394531-3.914063 5.441406-6.277344 7.367187-13.195313 1.929688-6.917969 1.398438-9.996093.519531-15.101562-1.140624-6.609375-2.554687-14.832031 1.179688-28.25 3.738281-13.414063 9.207031-19.722657 13.597656-24.789063 3.390625-3.914062 5.4375-6.273437 7.363282-13.191406l28.894531 8.058594c-3.738281 13.414062-9.203125 19.71875-13.597657 24.785156-3.390624 3.914062-5.4375 6.273438-7.363281 13.191406-1.929687 6.917969-1.398437 9.996094-.519531 15.101563 1.140625 6.609375 2.558594 14.835937-1.179688 28.25-3.738281 13.417969-9.207031 19.722656-13.597656 24.789062-3.390625 3.914063-5.4375 6.277344-7.367187 13.195313zm106.226562 0c-1.929687-6.917969-3.976562-9.28125-7.367187-13.195313-4.394532-5.066406-9.859375-11.371093-13.597656-24.789062-3.738282-13.414063-2.320313-21.640625-1.183594-28.25.878906-5.101563 1.410156-8.183594-.515625-15.101563-1.925781-6.917968-3.972657-9.277344-7.367188-13.191406-4.390625-5.066406-9.855469-11.371094-13.59375-24.785156l28.890625-8.058594c1.929688 6.917969 3.976563 9.277344 7.367188 13.191406 4.390625 5.066406 9.855468 11.375 13.59375 24.789063 3.738281 13.417969 2.324218 21.640625 1.183594 28.25-.878907 5.105469-1.410157 8.183593.515624 15.101562 1.929688 6.917969 3.976563 9.28125 7.367188 13.195313 4.394531 5.066406 9.859375 11.371094 13.597656 24.789062zm0 0"/><path d="m5.566406 392.539062-5.566406 43.460938h235.023438l6.167968-43.460938zm0 0"/></svg>