<svg height="512pt" viewBox="-17 0 512 512" width="512pt" xmlns="http://www.w3.org/2000/svg"><path d="m4.703125 254.710938 7.160156 123.585937h215.308594l7.15625-123.585937zm0 0"/><path d="m13.597656 408.25 6.007813 103.75h199.820312l6.011719-103.75zm0 0"/><path d="m236.066406 224.757812 2.96875-51.253906-41.648437-30.605468c-13.292969-9.765626-21.230469-25.4375-21.230469-41.917969v-32.695313h-113.28125v32.625c0 16.457032-7.914062 32.113282-21.175781 41.882813l-41.699219 30.726562 2.96875 51.238281zm0 0"/><path d="m289.335938 176.457031h188.933593v66.632813h-188.933593zm0 0"/><path d="m289.335938 273.046875v22.710937c0 38.234376 31.152343 69.34375 69.445312 69.34375h10.023438v116.230469h-60.304688v29.953125h150.605469v-29.953125h-60.300781v-116.230469h10.019531c38.292969 0 69.445312-31.109374 69.445312-69.34375v-22.710937zm0 0"/><path d="m62.875 0h113.28125v38.332031h-113.28125zm0 0"/></svg>