<svg height="512pt" viewBox="-8 0 511 512" width="512pt" xmlns="http://www.w3.org/2000/svg"><path d="m.625 116.753906c.898438 12.40625 6.578125 23.722656 15.941406 31.820313l403.960938 352.460937c8.246094 7.132813 18.566406 10.964844 29.363281 10.964844 1.105469 0 2.214844-.039062 3.324219-.121094 11.988281-.871094 22.921875-6.359375 30.785156-15.449218 7.859375-9.09375 11.710938-20.707032 10.839844-32.699219-.867188-11.992188-6.355469-22.925781-15.40625-30.753907l-303.402344-264.707031 43.660156-50.503906-22.691406-19.628906-43.59375 50.425781-15.082031-13.140625 43.546875-50.367187-22.695313-19.628907-43.472656 50.289063-15.082031-13.140625 43.425781-50.230469-22.691406-19.628906-43.359375 50.148437-15.085938-13.140625 43.308594-50.09375-22.691406-19.628906-53.085938 61.40625-18.597656 21.511719c-8.132812 9.410156-12.121094 21.425781-11.21875 33.835937zm0 0"/></svg>