<svg height="512pt" viewBox="-99 0 512 512" width="512pt" xmlns="http://www.w3.org/2000/svg"><path d="m17.828125 507.035156c6.625 0 9.4375.800782 13.332031 1.90625 4.789063 1.363282 10.753906 3.058594 21.585938 3.058594 12.722656 0 19.769531-4.007812 24.914062-6.933594 3.617188-2.058594 5.265625-2.996094 10.003906-2.996094 4.738282 0 6.386719.941407 10.003907 2.996094 5.144531 2.925782 12.191406 6.933594 24.914062 6.933594 12.722657 0 19.769531-4.007812 24.914063-6.933594 3.617187-2.058594 5.265625-2.996094 10.003906-2.996094s6.390625.941407 10.007812 2.996094c5.144532 2.925782 12.191407 6.933594 24.914063 6.933594s19.769531-4.007812 24.914063-6.933594c3.617187-2.058594 5.269531-2.996094 10.007812-2.996094s6.390625.941407 10.007812 2.996094c5.144532 2.925782 12.191407 6.933594 24.914063 6.933594 19.347656 0 38.257813-5.3125 39.054687-5.539062l12.632813-3.589844-45.320313-304.289063h-214.695312l-53.9375 308.453125zm0 0"/><path d="m266.25 168.796875v-48.714844c0-14.785156-4.109375-28.503906-11.101562-39.824219l10.953124-76.039062-29.699218-4.21875-8.019532 55.664062c-7.5625-3.652343-15.886718-5.683593-24.628906-5.683593-14.613281 0-28.820312 5.753906-39.996094 16.195312-1.578124 1.472657-2.921874 1.472657-4.496093.003907-11.179688-10.449219-25.382813-16.199219-40-16.199219-8.742188 0-17.066407 2.03125-24.628907 5.683593l-8.015624-55.664062-29.699219 4.21875 10.953125 76.039062c-6.992188 11.320313-11.105469 25.039063-11.105469 39.824219v48.714844zm0 0"/></svg>