<svg height="512pt" viewBox="0 0 512 512" width="512pt" xmlns="http://www.w3.org/2000/svg"><path d="m0 397.863281v114.136719h29.929688v-33.542969h295.390624v33.542969h29.933594v-114.136719zm0 0"/><path d="m128.46875 224.371094h98.019531v43.085937h-98.019531zm0 0"/><path d="m265.777344 297.535156h-176.304688c-38.953125 0-70.738281 31.339844-71.753906 70.246094h319.816406c-1.015625-38.902344-32.800781-70.246094-71.757812-70.246094zm0 0"/><path d="m89.472656 267.457031h9.066406v-73.167969h157.882813v73.167969h9.355469c24.246094 0 46.535156 8.570313 64.03125 22.851563v-135.527344h-304.363282v135.527344c17.496094-14.277344 39.78125-22.851563 64.027344-22.851563zm0 0"/><path d="m263.390625 30.078125h42.914063l-52.511719 59.78125h108.695312v-30.078125h-42.347656l52.511719-59.78125h-109.261719zm0 0"/><path d="m402.738281 66.027344v30.078125h42.914063l-52.511719 59.78125h108.695313v-30.078125h-42.347657l52.511719-59.78125zm0 0"/></svg>