<svg height="512pt" viewBox="-1 0 512 512" width="512pt" xmlns="http://www.w3.org/2000/svg"><path d="m335.90625 288.703125c17.292969 0 26.449219 2.265625 34.527344 4.265625 7.34375 1.816406 13.683594 3.386719 27.3125 3.386719 13.625 0 19.96875-1.570313 27.308594-3.386719 8.082031-2 17.238281-4.265625 34.53125-4.265625 17.289062 0 26.445312 2.265625 34.527343 4.265625 3.515625.871094 6.8125 1.683594 10.78125 2.292969l4.851563-76.9375h-224.1875l4.851562 76.96875c4.054688-.613281 7.398438-1.4375 10.972656-2.324219 8.078126-2 17.234376-4.265625 34.523438-4.265625zm0 0"/><path d="m503.003906 325.242188c-6.578125-.84375-11.519531-2.0625-16.109375-3.199219-7.339843-1.816407-13.679687-3.386719-27.308593-3.386719-13.628907 0-19.972657 1.570312-27.3125 3.386719-8.082032 2-17.238282 4.265625-34.527344 4.265625-17.292969 0-26.449219-2.265625-34.527344-4.265625-7.34375-1.816407-13.683594-3.386719-27.3125-3.386719-13.625 0-19.964844 1.570312-27.308594 3.386719-4.628906 1.148437-9.625 2.378906-16.296875 3.222656l11.675781 185.070313h187.351563zm0 0"/><path d="m226.960938 512-.15625-103.75h-226.804688v103.75zm0 0"/><path d="m226.761719 378.296875-.214844-143.554687h-226.546875v143.554687zm0 0"/><path d="m226.503906 204.789062-.019531-13.488281c-.039063-23.855469-11.550781-46.542969-30.792969-60.6875l-31.6875-23.285156v-36.628906h-103.28125v36.644531l-30.8125 23.339844c-18.726562 14.1875-29.910156 36.675781-29.910156 60.152344v13.949218h226.503906zm0 0"/><path d="m60.722656 0h103.28125v40.746094h-103.28125zm0 0"/></svg>