<svg height="512pt" viewBox="0 0 512 512" width="512pt" xmlns="http://www.w3.org/2000/svg"><path d="m145.679688 345.109375 21.210937 21.210937-18.785156 18.785157c26.402343 22.140625 58.574219 35.464843 92.894531 38.480469v-26.566407h30v26.566407c34.320312-3.015626 66.492188-16.339844 92.894531-38.480469l-18.785156-18.785157 21.210937-21.210937 18.785157 18.78125c22.136719-26.398437 35.464843-58.570313 38.476562-92.894531h-26.5625v-30h26.5625c-3.011719-34.316406-16.339843-66.492188-38.476562-92.890625l-17.523438 17.523437-21.210937-21.214844 17.519531-17.523437c-26.398437-22.132813-58.570313-35.460937-92.890625-38.472656v24.777343h-30v-24.777343c-34.320312 3.011719-66.492188 16.339843-92.894531 38.476562l18.785156 18.785157-21.210937 21.214843-18.785157-18.785156c-22.136719 26.398437-35.464843 58.570313-38.476562 92.894531h26.566406v30h-26.566406c3.011719 34.320313 16.339843 66.492188 38.476562 92.890625zm.320312-105.109375h95.363281l-.363281-67.183594 30-.164062.527344 97.347656h-125.527344zm0 0"/><path d="m0 362.039062 149.960938 149.960938h212.078124l149.960938-149.960938v-212.078124l-149.960938-149.960938h-212.078124l-149.960938 149.960938zm57.75-106.039062c0-52.953125 20.621094-102.738281 58.066406-140.183594 37.445313-37.445312 87.230469-58.066406 140.183594-58.066406s102.738281 20.621094 140.183594 58.066406c37.445312 37.445313 58.070312 87.230469 58.070312 140.183594s-20.625 102.738281-58.066406 140.1875c-37.449219 37.441406-87.234375 58.066406-140.1875 58.066406s-102.738281-20.625-140.183594-58.070312c-37.445312-37.445313-58.066406-87.230469-58.066406-140.183594zm0 0"/></svg>