<svg height="512pt" viewBox="-85 0 511 512" width="512pt" xmlns="http://www.w3.org/2000/svg"><path d="m171.023438 49.335938c12.605468 0 24.84375 1.597656 36.527343 4.59375v-17.296876c0-20.199218-16.386719-36.632812-36.527343-36.632812-20.140626 0-36.523438 16.433594-36.523438 36.632812v17.296876c11.683594-2.996094 23.921875-4.59375 36.523438-4.59375zm0 0"/><path d="m302.207031 432.367188-26.09375-14.839844c-22.464843 39.714844-64.59375 64.386718-109.953125 64.386718-44.863281 0-86.765625-24.273437-109.359375-63.351562l-25.953125 15.089844c27.9375 48.328125 79.789063 78.347656 135.3125 78.347656 56.136719 0 108.265625-30.511719 136.046875-79.632812zm0 0"/><path d="m100.269531 411.890625c13.597657 22.265625 38.078125 37.15625 65.96875 37.15625s52.371094-14.890625 65.972657-37.15625zm0 0"/><path d="m311.371094 351.464844-22.847656-49.539063v-104.671875c0-64.972656-52.710938-117.832031-117.5-117.832031-64.789063 0-117.496094 52.859375-117.496094 117.832031v104.671875l-22.847656 49.539063h-30.179688v30.085937h341.050781v-30.085937zm0 0"/></svg>