<svg height="512pt" viewBox="0 -26 512 512" width="512pt" xmlns="http://www.w3.org/2000/svg"><path d="m259.152344 178.019531 31.566406 16.039063-12.417969 66.800781h44.386719c40.117188 0 72.753906-32.636719 72.753906-72.753906 0-36.074219-19.171875-69.113281-51.285156-88.375-24.289062-14.566407-56.472656-8.621094-73.273438 13.539062l-11.417968 15.0625-14.8125-17.839843c-10.640625-12.8125-26.746094-19.71875-43-19.71875-9.09375 0-18.234375 2.164062-26.496094 6.660156-34.113281 18.570312-55.304688 53.3125-55.304688 90.671875 0 40.117187 32.640626 72.753906 72.753907 72.753906h47.398437l-12.417968-66.800781zm18.078125-42.285156h30v11.117187c0 5.542969 4.679687 10.222657 10.222656 10.222657s10.226563-4.679688 10.226563-10.222657v-11.117187h29.996093v11.117187c0 22.179688-18.042969 40.222657-40.222656 40.222657s-40.222656-18.042969-40.222656-40.222657zm-82.371094 51.339844c-22.179687 0-40.222656-18.042969-40.222656-40.222657v-11.117187h30v11.117187c0 5.542969 4.679687 10.222657 10.222656 10.222657s10.222656-4.679688 10.222656-10.222657v-11.117187h30v11.117187c0 22.179688-18.042969 40.222657-40.222656 40.222657zm0 0"/><path d="m512 342.09375-1.253906-2.871094c-7.152344-16.394531-19.074219-31.710937-35.484375-45.605468v-113.183594c0-36.425782-11.410157-71.761719-32.40625-101.148438l54.128906-37.265625-8.503906-12.355469c-10.371094-15.0625-25.988281-25.1875-43.976563-28.507812-17.984375-3.320312-36.1875.566406-51.25 10.9375-5.230468 3.601562-9.925781 7.910156-13.949218 12.773438-24.121094-12.117188-50.835938-18.464844-78.074219-18.464844h-84.703125c-27.382813 0-54.222656 6.414062-78.445313 18.65625-4.054687-4.941406-8.800781-9.316406-14.101562-12.964844-15.0625-10.371094-33.265625-14.257812-51.253907-10.9375-17.984374 3.320312-33.601562 13.445312-43.972656 28.507812l-8.507812 12.355469 54.480468 37.503907c-20.886718 29.335937-32.234374 64.589843-32.234374 100.910156v108.5c-19.390626 15.082031-33.25 31.972656-41.238282 50.292968l-1.253906 2.878907.183594 116.96875h44.949218c41.554688-89.035157 119.078126-145.0625 204.222657-147.902344l-3.773438-20.3125h-52.976562c-56.660157 0-102.753907-46.09375-102.753907-102.753906 0-48.351563 27.191407-93.191407 70.960938-117.019531 17.308594-9.421876 37.636719-12.558594 57.226562-8.835938 15.371094 2.925781 29.5625 9.929688 40.992188 20.085938 11.242188-9.65625 25.015625-16.273438 40.0625-19.085938 20.925781-3.910156 42.410156-.09375 60.492188 10.753906 41.234374 24.734375 65.855468 67.390625 65.855468 114.101563 0 56.660156-46.09375 102.753906-102.753906 102.753906h-49.964844l-3.828125 20.589844c82.800781 5.1875 157.699219 60.664062 198.285157 147.625h44.820312zm0 0"/><path d="m263.367188 341.199219-4.214844 22.671875-4.238282-22.808594c-71.449218.511719-137.625 45.203125-176.277343 118.011719h355.042969c-37.578126-70.78125-101.160157-114.992188-170.3125-117.875zm0 0"/></svg>