<svg height="512pt" viewBox="-64 0 512 512" width="512pt" xmlns="http://www.w3.org/2000/svg"><path d="m383.511719 255.15625h-22.65625v-23.609375c0-67.515625-52.359375-123.03125-118.605469-128.074219-7.253906-59.085937-57.648438-103.472656-120.675781-103.472656-67.035157 0-121.574219 54.539062-121.574219 121.574219v390.425781h30.074219v-390.425781c0-50.453125 41.046875-91.5 91.503906-91.5 46.527344 0 83.914063 31.847656 90.476563 74.644531-61.1875 9.785156-108.09375 62.929688-108.09375 126.828125v23.609375h-19.222657v30.074219h298.773438zm0 0"/><path d="m128.96875 310.910156h30.074219v49.96875h-30.074219zm0 0"/><path d="m189.121094 310.910156h30.074218v49.96875h-30.074218zm0 0"/><path d="m249.277344 310.910156h30.074218v49.96875h-30.074218zm0 0"/><path d="m309.429688 310.910156h30.078124v49.96875h-30.078124zm0 0"/><path d="m159.042969 360.878906h30.074219v49.964844h-30.074219zm0 0"/><path d="m219.199219 360.878906h30.074219v49.964844h-30.074219zm0 0"/><path d="m279.355469 360.878906h30.074219v49.964844h-30.074219zm0 0"/><path d="m128.96875 410.84375h30.074219v49.964844h-30.074219zm0 0"/><path d="m189.121094 410.84375h30.074218v49.964844h-30.074218zm0 0"/><path d="m249.277344 410.84375h30.074218v49.964844h-30.074218zm0 0"/><path d="m309.429688 410.84375h30.078124v49.964844h-30.078124zm0 0"/><path d="m159.042969 460.808594h30.074219v49.964844h-30.074219zm0 0"/><path d="m219.199219 460.808594h30.074219v49.964844h-30.074219zm0 0"/><path d="m279.355469 460.808594h30.074219v49.964844h-30.074219zm0 0"/></svg>