<svg height="512pt" viewBox="0 -44 512.001 512" width="512pt" xmlns="http://www.w3.org/2000/svg"><path d="m343.40625 304.324219-51.335938-176.820313 30.15625-8.753906 34.691407 119.476562 29.320312 28.640626c15.078125-13.960938 34.746094-23.035157 56.457031-24.664063l-70.820312-165.984375c-5.675781-13.300781-13.589844-25.367188-23.523438-35.867188l-2.175781-2.296874c-22.878906-24.183594-55.089843-38.054688-88.382812-38.054688h-40.816407c-28.320312 0-55.917968 9.960938-77.707031 28.050781-19.699219 16.351563-33.53125 38.082031-40.003906 62.851563l-55.78125 213.421875zm0 0"/><path d="m449.78125 273.339844c-25.945312 0-48.222656 15.96875-57.546875 38.589844 22.976563 11.652343 38.769531 35.492187 38.769531 62.96875v20c6.007813 1.898437 12.320313 2.882812 18.777344 2.882812 34.308594 0 62.21875-27.914062 62.21875-62.222656s-27.910156-62.21875-62.21875-62.21875zm0 0"/><path d="m214.648438 335.726562h41.121093v89.179688h-41.121093zm0 0"/><path d="m399.597656 374.898438c0-21.597657-17.570312-39.167969-39.167968-39.167969h-.734376v89.175781h39.902344zm0 0"/><path d="m142.125 335.726562h41.117188v89.179688h-41.117188zm0 0"/><path d="m38.195312 424.90625v-89.179688h-2c-19.957031 0-36.195312 16.238282-36.195312 36.199219v52.980469zm0 0"/><path d="m287.171875 335.726562h41.121094v89.179688h-41.121094zm0 0"/><path d="m69.601562 335.726562h41.117188v89.179688h-41.117188zm0 0"/></svg>