<svg height="512pt" viewBox="0 0 512 512" width="512pt" xmlns="http://www.w3.org/2000/svg"><path d="m85.089844 252.175781h341.816406v-207.777343h-123.851562l23.199218-23.199219-21.195312-21.199219-44.402344 44.398438h-9.542969l-44.398437-44.398438-21.199219 21.199219 23.199219 23.199219h-123.625zm0 0"/><path d="m241.007812 417.492188h-216.023437v93.285156h29.980469v-24.324219h186.042968zm-94.511718 18.988281c8.402344 0 14.625 6.871093 14.988281 14.992187.363281 8.09375-7.148437 14.988282-14.988281 14.988282-8.40625 0-14.628906-6.867188-14.992188-14.988282-.359375-8.09375 7.148438-14.992187 14.992188-14.992187zm0 0"/><path d="m270.984375 417.492188v68.957031h185.699219v25.550781h29.976562v-94.507812zm80.859375 33.980468c-.363281-8.09375 7.148438-14.992187 14.988281-14.992187 8.402344 0 14.628907 6.871093 14.992188 14.992187.363281 8.09375-7.148438 14.988282-14.992188 14.988282-8.402343 0-14.625-6.867188-14.988281-14.988282zm0 0"/><path d="m0 324.453125h24.984375v63.058594h216.023437v-63.058594h29.976563v63.058594h215.675781v-63.058594h24.988282v-29.976563h-511.648438zm146.496094 41.914063c-8.40625 0-14.628906-6.871094-14.992188-14.992188-.363281-8.09375 7.148438-14.988281 14.992188-14.988281 8.402344 0 14.625 6.867187 14.988281 14.988281.363281 8.097656-7.148437 14.992188-14.988281 14.992188zm220.335937 0c-8.402343 0-14.625-6.871094-14.988281-14.992188-.363281-8.09375 7.148438-14.988281 14.988281-14.988281 8.402344 0 14.628907 6.867187 14.992188 14.988281.359375 8.097656-7.152344 14.992188-14.992188 14.992188zm0 0"/></svg>