<svg height="512pt" viewBox="-25 0 512 512" width="512pt" xmlns="http://www.w3.org/2000/svg"><path d="m66.316406 368.230469c5.210938-46.878907 23.617188-80.808594 39.347656-102 2.261719-3.050781 4.527344-5.910157 6.769532-8.601563-8.617188-10.191406-15.945313-21.5-21.730469-33.679687-28.492187 25.304687-66.410156 72.820312-89.332031 157.253906l-1.371094 5.054687 2.003906 4.839844c.417969 1.003906 7.808594 18.253906 27.960938 29.609375 5.867187-21.355469 18.902344-39.765625 36.351562-52.476562zm0 0"/><path d="m349.503906 257.777344c2.199219 2.648437 4.421875 5.460937 6.644532 8.453125 15.800781 21.289062 34.304687 55.429687 39.417968 102.636719 17.011719 12.6875 29.710938 30.847656 35.480469 51.847656 20.160156-11.355469 27.558594-28.613282 27.972656-29.617188l2.007813-4.839844-1.375-5.054687c-22.722656-83.714844-60.191406-131.136719-88.597656-156.601563-5.769532 11.992188-13.039063 23.128907-21.550782 33.175782zm0 0"/><path d="m241.550781 446.238281c0-53.191406 43.273438-96.464843 96.464844-96.464843 8.269531 0 16.296875 1.046874 23.960937 3.011718-6.953124-32.8125-21.300781-57.070312-34.59375-73.582031-26.492187 21.027344-59.980468 33.605469-96.351562 33.605469-36.4375 0-69.980469-12.625-96.496094-33.71875-1.664062 2.058594-3.34375 4.226562-5.019531 6.523437-14.585937 19.980469-24.515625 42.402344-29.707031 66.984375 7.429687-1.839844 15.195312-2.824218 23.183594-2.824218 53.191406 0 96.464843 43.273437 96.464843 96.464843 0 17.542969-4.710937 34.003907-12.929687 48.195313 7.753906 1.949218 16.9375 3.425781 26.992187 3.425781 6.847657 0 14.101563-.699219 21.574219-2.386719-8.597656-14.421875-13.542969-31.261718-13.542969-49.234375zm0 0"/><path d="m122.992188 380.472656c-36.261719 0-65.761719 29.503906-65.761719 65.765625 0 36.257813 29.5 65.761719 65.761719 65.761719 36.261718 0 65.765624-29.503906 65.765624-65.761719 0-36.261719-29.503906-65.765625-65.765624-65.765625zm0 0"/><path d="m338.015625 380.472656c-36.261719 0-65.761719 29.503906-65.761719 65.765625 0 36.257813 29.5 65.761719 65.761719 65.761719s65.761719-29.503906 65.761719-65.761719c0-36.261719-29.5-65.765625-65.761719-65.765625zm0 0"/><path d="m215.164062 273.144531v-20.351562l-22.878906-22.859375h76.457032l-22.878907 22.859375v20.707031c18.105469-6.1875 31.167969-23.359375 31.167969-43.535156 0-25.363282-20.636719-46-46-46-25.367188 0-46 20.636718-46 46-.003906 19.792968 12.5625 36.703125 30.132812 43.179687zm0 0"/><path d="m104.417969 157.539062c0 44.449219 23.027343 83.617188 57.773437 106.214844-5.027344-10.203125-7.863281-21.667968-7.863281-33.789062 0-42.292969 34.410156-76.699219 76.703125-76.699219s76.699219 34.40625 76.699219 76.699219c0 12.121094-2.835938 23.589844-7.863281 33.789062 34.75-22.597656 57.777343-61.765625 57.777343-106.214844 0-14.398437-2.421875-28.238281-6.871093-41.148437 9.75-1.90625 18.648437-6.226563 26.035156-12.320313 13.066406-10.785156 21.410156-27.097656 21.410156-45.324218 0-32.390625-26.355469-58.746094-58.75-58.746094-16.273438 0-31.019531 6.65625-41.667969 17.382812-6.777343 6.824219-11.878906 15.304688-14.671875 24.765626-15.898437-7.207032-33.539062-11.21875-52.097656-11.21875-18.207031 0-35.519531 3.867187-51.179688 10.8125-2.863281-9.453126-8.046874-17.902344-14.886718-24.6875-10.625-10.535157-25.234375-17.054688-41.339844-17.054688-32.394531 0-58.746094 26.355469-58.746094 58.746094 0 17.859375 8.019532 33.867187 20.632813 44.652344 7.296875 6.238281 16.125 10.722656 25.847656 12.796874-4.492187 12.964844-6.941406 26.871094-6.941406 41.34375zm0 0"/></svg>