<svg height="512pt" viewBox="0 0 512 512" width="512pt" xmlns="http://www.w3.org/2000/svg"><path d="m309.273438 292.96875c8.082031-2 17.246093-4.265625 33.519531-4.265625 16.398437 0 25.078125 2.300781 32.734375 4.328125 6.734375 1.78125 12.554687 3.324219 25.042968 3.324219 12.488282 0 18.304688-1.542969 25.042969-3.324219 7.65625-2.027344 16.332031-4.328125 32.734375-4.328125 16.074219 0 26.167969 2.21875 35.074219 4.175781 5.988281 1.316406 11.40625 2.503906 18.578125 3.089844v-77.644531h-218.988281v77.625c6.550781-.582031 11.167969-1.722657 16.261719-2.980469zm0 0"/><path d="m486.972656 322.132812c-8.484375-1.863281-15.8125-3.476562-28.625-3.476562-12.488281 0-18.308594 1.542969-25.042968 3.328125-7.65625 2.027344-16.335938 4.324219-32.734376 4.324219-16.398437 0-25.078124-2.296875-32.734374-4.324219-6.734376-1.785156-12.554688-3.328125-25.039063-3.328125-12.613281 0-18.960937 1.570312-26.3125 3.386719-6.246094 1.546875-13.152344 3.246093-23.472656 3.941406v184.351563h218.988281v-184.34375c-10.527344-.679688-18.140625-2.34375-25.027344-3.859376zm0 0"/><path d="m236.761719 378.296875-.203125-137.722656c-.003906-1.945313-.050782-3.890625-.128906-5.832031h-236.351563c-.046875 1.523437-.078125 3.050781-.078125 4.578124v138.976563zm0 0"/><path d="m232.246094 204.789062c-5.390625-22.246093-15.71875-43.210937-30.34375-61.101562-15.003906-18.351562-24.378906-40.707031-27.082032-64.101562h-114.847656c-2.535156 23.1875-11.613281 45.441406-26.242187 63.761718l-.191407.238282c-14.347656 17.96875-24.410156 38.980468-29.566406 61.203124zm0 0"/><path d="m0 408.25v24.992188c0 43.425781 35.386719 78.757812 78.878906 78.757812h79.085938c21.09375 0 40.914062-8.207031 55.816406-23.109375s23.09375-34.707031 23.0625-55.765625l-.035156-24.875zm0 0"/><path d="m60.722656 0h113.28125v49.632812h-113.28125zm0 0"/></svg>