<svg height="512pt" viewBox="0 0 512 512" width="512pt" xmlns="http://www.w3.org/2000/svg"><path d="m30 221.746094c0-38.320313 27.09375-70.425782 63.152344-78.261719v32.785156c-13.605469 5.828125-23.160156 19.335938-23.160156 35.03125 0 11.671875 5.285156 22.125 13.585937 29.121094-8.300781 6.996094-13.585937 17.449219-13.585937 29.117187 0 15.695313 9.554687 29.203126 23.160156 35.035157v16.578125l-25.300782-10.894532 1.542969 44.171876-29.230469 33.1875 42.546876 12.1875 22.578124 38.015624 24.753907-36.640624 43.183593-9.699219-27.246093-34.828125 4.109375-44.007813-26.9375 9.789063v-17.859375c13.609375-5.832031 23.164062-19.339844 23.164062-35.035157 0-11.667968-5.285156-22.125-13.585937-29.117187 8.300781-6.996094 13.585937-17.453125 13.585937-29.121094 0-15.695312-9.554687-29.203125-23.164062-35.035156v-34.625h117.847656v67.875c-14.949219 5.96875-25.546875 20.570313-25.546875 37.601563 0 17.035156 10.59375 31.636718 25.546875 37.605468v67.335938c-30.464844 6.199218-55.585938 29.992187-62.210938 61.5l-8.125 38.625 31.742188-23.515625c7.019531-5.203125 15.691406-7.738281 24.429688-7.125 9.792968.679687 18.734374 5.128906 25.175781 12.523437 6.4375 7.398438 9.609375 16.855469 8.929687 26.632813-.609375 8.722656-4.320312 16.949219-10.453125 23.171875l-27.726562 28.128906 39.433593-2.679688c39.414063-2.675781 71.210938-34.40625 73.960938-73.804687 2.847656-40.777344-25.777344-76.605469-65.15625-83.75v-67.039063c14.953125-5.96875 25.546875-20.570312 25.546875-37.605468s-10.597656-31.636719-25.546875-37.605469v-67.871094h118.855469v34.625c-13.605469 5.832031-23.160157 19.335938-23.160157 35.035157 0 11.667968 5.285157 22.121093 13.582032 29.117187-8.296875 6.996094-13.582032 17.449219-13.582032 29.117187 0 15.699219 9.554688 29.203126 23.160157 35.035157v16.582031l-25.300781-10.894531 1.539062 44.167969-29.226562 33.191406 42.542968 12.183594 22.582032 38.011718 24.753906-36.636718 43.183594-9.699219-27.246094-34.828125 4.105468-44.007813-26.933593 9.789063v-17.859375c13.605469-5.832031 23.160156-19.339844 23.160156-35.035157 0-11.667968-5.285156-22.125-13.582031-29.117187 8.300781-6.996094 13.582031-17.453125 13.582031-29.121094 0-15.695312-9.554687-29.203125-23.160156-35.035156v-32.546875c35.554687 8.210938 62.144531 40.066406 62.144531 78.027344v21.511718h30v-21.511718c0-60.6875-49.445312-110.058594-110.21875-110.058594h-130.78125v-58c0-13.085938 10.660156-23.730469 23.765625-23.730469s23.769531 10.644531 23.769531 23.730469v23.125h30v-23.125c-.003906-29.601562-24.121094-53.6875-53.769531-53.6875-29.644531 0-53.765625 24.085938-53.765625 53.6875v58h-130.78125c-60.773438 0-110.21875 49.371094-110.21875 110.058594v21.511718h30zm0 0"/></svg>