<svg height="512pt" viewBox="0 0 512 512" width="512pt" xmlns="http://www.w3.org/2000/svg"><path d="m462.835938 146.828125v-30.050781h49.164062c-3.332031-29.730469-16.519531-57.257813-37.984375-78.722656-21.613281-21.613282-49.378906-34.839844-79.347656-38.054688v47.261719h-30.046875v-47.125c-29.492188 3.445312-56.789063 16.601562-78.101563 37.917969-23.453125 23.449218-37.035156 54.140624-38.664062 87.03125h82.261719v129.492187c11.007812 4.492187 22.601562 7.476563 34.503906 8.875v-48.464844h30.046875v48.613281c29.96875-3.21875 57.734375-16.4375 79.347656-38.054687 21.464844-21.460937 34.652344-48.992187 37.984375-78.71875zm-152.363282-49.757813 18.109375-23.980468 36.78125 27.773437-.121093-22.394531 30.046874-.164062.453126 83.152343zm0 0"/><path d="m0 396.976562v114.023438h30.050781v-33.507812h266.515625v33.507812h30.046875v-114.023438zm0 0"/><path d="m128.980469 223.65625h68.359375v43.042969h-68.359375zm0 0"/><path d="m236.785156 296.75h-146.957031c-39.109375 0-71.019531 31.308594-72.039063 70.175781h291.035157c-1.019531-38.867187-32.929688-70.175781-72.039063-70.175781zm0 0"/><path d="m89.828125 266.699219h9.101563v-73.09375h128.460937v73.09375h9.394531c24.339844 0 46.71875 8.5625 64.285156 22.832031v-135.398438h-275.523437v135.398438c17.566406-14.269531 39.941406-22.832031 64.28125-22.832031zm0 0"/></svg>