<svg height="512pt" viewBox="0 0 512 512" width="512pt" xmlns="http://www.w3.org/2000/svg"><path d="m0 0v512h512v-512zm168.21875 206.894531c-33.515625-3.984375-51.375-31.273437-53.644531-50.628906-2.921875-24.953125 3.1875-41.746094 3.1875-41.746094-14.199219 1.964844-27.105469 7.742188-37.761719 16.183594v-50.703125h161v161h-50.703125c8.441406-10.65625 14.21875-23.5625 16.183594-37.761719 0 0-23.464844 5.417969-38.261719 3.65625zm72.78125 64.105469v161h-161v-161zm191 0v77.359375h-30.128906l15.644531-15.644531-21.210937-21.214844-15.648438 15.648438v-36.976563h-30v36.976563l-15.644531-15.648438-21.210938 21.214844 15.644531 15.644531h-36.976562v30h36.976562l-15.644531 15.648437 21.210938 21.210938 15.648437-15.644531v32.425781h-79.660156v-161zm-161-30v-161h161v161zm130.871094 137.359375h30.128906v53.640625h-51.34375v-32.425781l15.648438 15.644531 21.210937-21.210938zm0 0"/><path d="m349.804688 122.171875h30.003906v30h-30.003906zm0 0"/><path d="m313.570312 169.777344h30v30h-30zm0 0"/><path d="m139 331.636719h30.003906v30h-30.003906zm0 0"/></svg>