<svg height="512pt" viewBox="0 -38 512 512" width="512pt" xmlns="http://www.w3.org/2000/svg"><path d="m80.101562 436.867188h350.609376c44.167968 0 80.101562-36.015626 80.101562-80.289063 0-44.269531-35.933594-80.289063-80.101562-80.289063h-1.214844c-6.175782-40.824218-39.648438-72.792968-81.113282-76.554687-7.003906-43.300781-44.570312-76.46875-89.722656-76.46875h-1.511718c-.542969 0-1.078126.011719-1.613282.03125l-.128906.003906-.125-.003906c-.539062-.019531-1.074219-.03125-1.613281-.03125h-1.515625c-45.148438 0-82.714844 33.167969-89.71875 76.46875-41.464844 3.761719-74.9375 35.730469-81.113282 76.554687h-1.214843c-44.171875 0-80.105469 36.019532-80.105469 80.289063 0 44.273437 35.933594 80.289063 80.101562 80.289063zm83.257813-163.488282h29.929687v11.113282c0 5.542968 4.671876 10.226562 10.203126 10.226562 5.527343 0 10.199218-4.683594 10.199218-10.226562v-11.113282h29.929688v11.113282c0 22.179687-18 40.226562-40.128906 40.226562-22.128907 0-40.128907-18.042969-40.128907-40.226562v-11.113282zm142.488281 21.339844c5.53125 0 10.199219-4.683594 10.199219-10.226562v-11.113282h29.933594v11.113282c0 22.179687-18.003907 40.226562-40.132813 40.226562-22.125 0-40.128906-18.042969-40.128906-40.226562v-11.113282h29.929688v11.113282c0 5.542968 4.671874 10.226562 10.199218 10.226562zm-33.210937 62.445312c.292969 2.386719.351562 4.910157.351562 6.605469 0 1.695313-.058593 4.21875-.351562 6.605469-1.804688 14.726562-14.050781 15.152344-15.441407 15.152344-1.390624 0-13.636718-.425782-15.4375-15.152344-.292968-2.390625-.355468-4.910156-.355468-6.605469 0-1.695312.0625-4.21875.355468-6.605469 1.800782-14.726562 14.046876-15.152343 15.4375-15.152343 1.390626 0 13.636719.425781 15.441407 15.152343zm0 0"/><path d="m263.390625 0v30h42.914063l-52.511719 59.621094h108.695312v-30h-42.347656l52.511719-59.621094zm0 0"/><path d="m402.738281 95.851562h42.914063l-52.511719 59.625h108.695313v-30h-42.347657l52.511719-59.625h-109.261719zm0 0"/></svg>