<svg height="512pt" viewBox="0 0 512 512" width="512pt" xmlns="http://www.w3.org/2000/svg"><path d="m369.109375 458.789062 27.269531 13.460938-27.269531 13.449219c-17.289063 8.519531-35.230469 15-53.679687 19.390625-19.289063 4.601562-39.148438 6.910156-59.429688 6.910156-68.378906 0-132.671875-26.628906-181.019531-74.980469-48.351563-48.347656-74.980469-112.640625-74.980469-181.019531s26.628906-132.671875 74.980469-181.019531c48.347656-48.351563 112.640625-74.980469 181.019531-74.980469 20.28125 0 40.140625 2.308594 59.429688 6.910156 18.449218 4.378906 36.378906 10.859375 53.679687 19.390625l27.269531 13.449219-27.269531 13.460938c-77.820313 38.390624-126.167969 116.089843-126.167969 202.789062s48.347656 164.398438 126.167969 202.789062zm0 0" fill="#ffdb2d"/><path d="m369.109375 458.789062 27.269531 13.460938-27.269531 13.449219c-17.289063 8.519531-35.230469 15-53.679687 19.390625-45.628907-10.820313-87.5-34.078125-121.488282-68.070313-48.363281-48.347656-74.980468-112.640625-74.980468-181.019531s26.617187-132.671875 74.980468-181.019531c33.988282-33.992188 75.859375-57.25 121.488282-68.070313 18.449218 4.378906 36.378906 10.859375 53.679687 19.390625l27.269531 13.449219-27.269531 13.460938c-77.820313 38.390624-126.167969 116.089843-126.167969 202.789062s48.347656 164.398438 126.167969 202.789062zm0 0" fill="#ffaa20"/><path d="m459.320312 280.460938 12.441407 72.507812-65.121094-34.230469-65.128906 34.230469 12.4375-72.507812-52.679688-51.351563 72.808594-10.578125 32.5625-65.980469 32.558594 65.980469 72.800781 10.578125zm0 0" fill="#ffdb2d"/><path d="m459.320312 280.460938 12.441407 72.507812-65.121094-34.230469v-166.1875l32.558594 65.980469 72.800781 10.578125zm0 0" fill="#ffaa20"/></svg>