<svg height="511pt" viewBox="1 -110 511.99999 511" width="511pt" xmlns="http://www.w3.org/2000/svg"><path d="m218.085938 78.699219h262.632812v143.386719h-262.632812zm0 0" fill="#97a1f0"/><path d="m349.402344 78.699219h131.316406v143.386719h-131.316406zm0 0" fill="#6d76e7"/><g fill="#c5c9f7"><path d="m261.742188 93.695312h30v118.277344h-30zm0 0"/><path d="m334.402344 93.699219h30v118.277343h-30zm0 0"/><path d="m407.070312 93.699219h30v118.277343h-30zm0 0"/></g><path d="m349.402344 93.699219h15v118.277343h-15zm0 0" fill="#a7aff2"/><path d="m407.070312 93.699219h30v118.277343h-30zm0 0" fill="#a7aff2"/><path d="m512 .5v32.199219c0 41.910156-34.089844 76-76 76h-241.375v-32.199219c0-41.910156 34.101562-76 76-76zm0 0" fill="#ffdb2d"/><path d="m0 192.082031v100.160157h511.988281v-100.160157zm0 0" fill="#ff73af"/><path d="m0 242.160156v50.082032h511.988281v-50.082032zm0 0" fill="#ff318e"/><path d="m512 .5v32.199219c0 41.910156-34.089844 76-76 76h-86.597656v-108.199219zm0 0" fill="#ffaa20"/></svg>