<svg height="512pt" viewBox="0 -70 512 512" width="512pt" xmlns="http://www.w3.org/2000/svg"><path d="m25.761719 0h460.476562v154.308594h-460.476562zm0 0" fill="#97a1f0"/><path d="m256 0h230.238281v154.308594h-230.238281zm0 0" fill="#6d76e7"/><path d="m58.5 318.15625h30v54.699219h-30zm0 0" fill="#4b5be6"/><path d="m423.5 318.15625h30v54.699219h-30zm0 0" fill="#283ee1"/><path d="m31.011719 244.300781h449.976562v92.898438h-449.976562zm0 0" fill="#ff9a00"/><path d="m93.003906 62.757812h146.496094v106.550782h-146.496094zm0 0" fill="#fff5cb"/><path d="m272.5 62.757812h146.496094v106.550782h-146.496094zm0 0" fill="#ffdba9"/><path d="m256 244.300781h224.988281v92.898438h-224.988281zm0 0" fill="#e67500"/><path d="m512 180.660156v93.640625h-512v-93.640625c0-22.800781 18.550781-41.351562 41.339844-41.351562h429.320312c22.789063 0 41.339844 18.550781 41.339844 41.351562zm0 0" fill="#ffdb2d"/><path d="m512 180.660156v93.640625h-256v-134.992187h214.660156c22.789063 0 41.339844 18.550781 41.339844 41.351562zm0 0" fill="#ffaa20"/></svg>