<svg height="512pt" viewBox="-25 0 512 512.01038" width="512pt" xmlns="http://www.w3.org/2000/svg"><path d="m57.382812 494.871094 52.558594-75.492188 24.617188 17.140625-52.558594 75.492188zm0 0" fill="#4b5be6"/><path d="m328.113281 436.503906 24.617188-17.140625 52.5625 75.492188-24.621094 17.140625zm0 0" fill="#283ee1"/><path d="m364.613281 0c-49.328125 0-91.144531 36.863281-97.277343 85.746094l14.882812 1.863281 115.042969 86.789063 5.898437 13.789062c36.136719-15.457031 59.484375-50.847656 59.484375-90.15625 0-54.054688-43.976562-98.03125-98.03125-98.03125zm0 0" fill="#ffaa20"/><path d="m98.035156 0c-54.054687 0-98.03124975 43.976562-98.03124975 98.03125 0 39.308594 23.35156275 74.699219 59.48437475 90.160156l5.898438-13.789062 115.042969-86.789063 14.878906-1.867187c-6.128906-48.882813-47.945313-85.746094-97.273438-85.746094zm0 0" fill="#ffdb2d"/><path d="m440.246094 274.78125c0 115.15625-93.667969 208.851562-208.8125 208.910156h-.109375c-115.195313 0-208.921875-93.714844-208.921875-208.910156 0-115.203125 93.726562-208.921875 208.921875-208.921875h.109375c115.144531.0625 208.8125 93.757813 208.8125 208.921875zm0 0" fill="#97a1f0"/><path d="m440.246094 274.78125c0 115.15625-93.667969 208.851562-208.8125 208.910156v-417.832031c115.144531.0625 208.8125 93.757813 208.8125 208.921875zm0 0" fill="#6d76e7"/><path d="m377.003906 274.78125c0 80.28125-65.289062 145.609375-145.570312 145.671875h-.109375c-80.328125 0-145.679688-65.351563-145.679688-145.671875 0-80.328125 65.351563-145.679688 145.679688-145.679688h.109375c80.28125.058594 145.570312 65.390626 145.570312 145.679688zm0 0" fill="#4b5be6"/><path d="m377.003906 274.78125c0 80.28125-65.289062 145.609375-145.570312 145.671875v-291.351563c80.28125.058594 145.570312 65.390626 145.570312 145.679688zm0 0" fill="#283ee1"/><path d="m283.527344 306.96875-20.417969 21.976562-31.675781-29.417968-15.105469-14.027344v-87.527344h29.992187v74.449219zm0 0" fill="#ffdb2d"/><path d="m283.527344 306.96875-20.417969 21.976562-31.675781-29.417968v-101.554688h14.886718v74.449219zm0 0" fill="#ffaa20"/></svg>