<svg height="511pt" viewBox="1 0 511.99997 511" width="511pt" xmlns="http://www.w3.org/2000/svg"><path d="m386.929688 318.941406c0 106.679688-86.785157 193.464844-193.464844 193.464844-106.679688 0-193.464844-86.785156-193.464844-193.464844 0-106.679687 86.785156-193.464844 193.464844-193.464844 106.679687 0 193.464844 86.785157 193.464844 193.464844zm0 0" fill="#ffdb2d"/><path d="m386.929688 318.941406c0 106.679688-86.785157 193.464844-193.464844 193.464844v-386.929688c106.679687 0 193.464844 86.785157 193.464844 193.464844zm0 0" fill="#ffaa20"/><path d="m407.574219 151.332031h-84.3125l42.707031-76.3125h-35.378906v-29.992187h86.539062l-42.707031 76.308594h33.152344zm0 0" fill="#4b5be6"/><path d="m503.222656 91.300781h-76.414062l34.03125-60.804687h-22.269532v-29.996094h73.429688l-34.03125 60.804688h25.253906zm0 0" fill="#4b5be6"/><path d="m123.554688 323.152344c-27.921876 0-50.640626-22.71875-50.640626-50.640625h29.996094c0 11.386719 9.261719 20.644531 20.644532 20.644531 11.386718 0 20.644531-9.257812 20.644531-20.644531h29.996093c0 27.921875-22.71875 50.640625-50.640624 50.640625zm0 0" fill="#ff9a00"/><path d="m262.175781 323.152344c-27.921875 0-50.636719-22.71875-50.636719-50.640625h29.992188c0 11.386719 9.261719 20.644531 20.644531 20.644531 11.386719 0 20.648438-9.257812 20.648438-20.644531h29.992187c0 27.921875-22.71875 50.640625-50.640625 50.640625zm0 0" fill="#e67500"/><path d="m162.378906 394.839844h62.171875v29.992187h-62.171875zm0 0" fill="#ff9a00"/><path d="m193.464844 394.839844h31.085937v29.992187h-31.085937zm0 0" fill="#e67500"/></svg>