<svg height="512pt" viewBox="-97 0 512 512" width="512pt" xmlns="http://www.w3.org/2000/svg"><path d="m111.621094 0h93.660156v74.539062h-93.660156zm0 0" fill="#97a1f0"/><path d="m158.558594 0h46.722656v74.539062h-46.722656zm0 0" fill="#6d76e7"/><g fill="#c5c9f7"><path d="m32.34375 418.25h30v38.125h-30zm0 0"/><path d="m32.34375 473.875h30v38.125h-30zm0 0"/><path d="m87.949219 418.25h30v38.125h-30zm0 0"/><path d="m87.949219 473.875h30v38.125h-30zm0 0"/><path d="m143.558594 418.25h30v38.128906h-30zm0 0"/><path d="m143.558594 473.871094h30v38.128906h-30zm0 0"/></g><path d="m199.164062 418.25h30v38.125h-30zm0 0" fill="#a7aff2"/><path d="m199.164062 473.875h30v38.125h-30zm0 0" fill="#a7aff2"/><path d="m254.773438 418.25h30v38.125h-30zm0 0" fill="#a7aff2"/><path d="m254.773438 473.875h30v38.125h-30zm0 0" fill="#a7aff2"/><path d="m32.34375 304.984375h30v38.125h-30zm0 0" fill="#c5c9f7"/><path d="m32.34375 360.605469h30v38.125h-30zm0 0" fill="#c5c9f7"/><path d="m87.949219 304.984375h30v38.125h-30zm0 0" fill="#c5c9f7"/><path d="m87.949219 360.605469h30v38.125h-30zm0 0" fill="#c5c9f7"/><path d="m143.558594 304.980469h30v38.128906h-30zm0 0" fill="#c5c9f7"/><path d="m143.558594 360.609375h30v38.121094h-30zm0 0" fill="#c5c9f7"/><path d="m199.164062 304.984375h30v38.125h-30zm0 0" fill="#a7aff2"/><path d="m199.164062 360.605469h30v38.125h-30zm0 0" fill="#a7aff2"/><path d="m254.773438 304.984375h30v38.125h-30zm0 0" fill="#a7aff2"/><path d="m254.773438 360.605469h30v38.125h-30zm0 0" fill="#a7aff2"/><path d="m95.449219 44.539062h126v81.53125h-126zm0 0" fill="#c5c9f7"/><path d="m158.558594 44.539062h62.890625v81.53125h-62.890625zm0 0" fill="#a7aff2"/><path d="m158.558594 304.980469h15v38.128906h-15zm0 0" fill="#a7aff2"/><path d="m158.558594 360.609375h15v38.121094h-15zm0 0" fill="#a7aff2"/><path d="m158.558594 418.25h15v38.128906h-15zm0 0" fill="#a7aff2"/><path d="m158.558594 473.871094h15v38.128906h-15zm0 0" fill="#a7aff2"/><path d="m294.019531 234.671875v20.488281h-270.929687v-20.488281c0-74.433594 60.558594-135 135-135h.929687c74.441407 0 135 60.566406 135 135zm0 0" fill="#4b5be6"/><path d="m294.019531 234.671875v20.488281h-135.460937v-155.488281h.460937c74.441407 0 135 60.566406 135 135zm0 0" fill="#283ee1"/><path d="m0 225.160156h317.109375v87.21875h-317.109375zm0 0" fill="#97a1f0"/><path d="m158.558594 225.160156h158.550781v87.21875h-158.550781zm0 0" fill="#6d76e7"/></svg>