<svg height="512pt" viewBox="-95 0 512 512" width="512pt" xmlns="http://www.w3.org/2000/svg"><path d="m238.105469 256h30v87.667969h-30zm0 0" fill="#e67500"/><path d="m118.578125 256h85.722656v181.308594h-85.722656zm0 0" fill="#97a1f0"/><path d="m161.441406 256h42.859375v181.308594h-42.859375zm0 0" fill="#6d76e7"/><path d="m322.878906 271h-322.878906l15.261719-61.839844 7.410156-30 44.21875-179.160156h189.097656l44.222657 179.160156 7.410156 30zm0 0" fill="#ffdb2d"/><path d="m322.878906 271h-161.4375v-271h94.546875l44.222657 179.160156 7.410156 30zm0 0" fill="#ffaa20"/><path d="m307.621094 209.160156h-292.359375l7.410156-30h277.539063zm0 0" fill="#ff9a00"/><path d="m74.261719 422.308594h174.359375v89.691406h-174.359375zm0 0" fill="#ff9a00"/><path d="m161.441406 422.308594h87.179688v89.691406h-87.179688zm0 0" fill="#e67500"/><path d="m307.621094 209.160156h-146.179688v-30h138.769532zm0 0" fill="#e67500"/><path d="m49.109375 482h224.660156v30h-224.660156zm0 0" fill="#4b5be6"/><path d="m161.441406 482h112.328125v30h-112.328125zm0 0" fill="#283ee1"/></svg>