<svg height="512pt" viewBox="0 -24 512 512" width="512pt" xmlns="http://www.w3.org/2000/svg"><path d="m490.488281 264.636719 21.511719-1.828125-11.636719 18.179687c-7.378906 11.523438-15.902343 22.042969-25.5 31.484375-10.035156 9.871094-21.253906 18.5625-33.578125 26.007813-41.550781 25.09375-90.390625 32.507812-137.511718 20.871093-47.125-11.636718-86.898438-40.929687-111.996094-82.480468-25.09375-41.550782-32.503906-90.390625-20.871094-137.511719 11.636719-47.125 40.929688-86.898437 82.480469-111.996094 12.324219-7.441406 25.238281-13.324219 38.648437-17.609375 12.820313-4.109375 26.09375-6.753906 39.734375-7.917968l21.507813-1.835938-11.632813 18.1875c-33.195312 51.886719-34.0625 116.84375-2.242187 169.527344 31.816406 52.683594 89.710937 82.152344 151.085937 76.921875zm0 0" fill="#ffdb2d"/><path d="m490.488281 264.636719 21.511719-1.828125-11.636719 18.179687c-7.378906 11.523438-15.902343 22.042969-25.5 31.484375-31.699219 10.167969-65.675781 11.402344-98.804687 3.222656-47.128906-11.632812-86.898438-40.929687-111.992188-82.480468-25.097656-41.550782-32.515625-90.386719-20.871094-137.511719 8.179688-33.128906 25.085938-62.628906 48.839844-85.949219 12.820313-4.109375 26.09375-6.75 39.734375-7.917968l21.507813-1.835938-11.628906 18.1875c-33.199219 51.886719-34.0625 116.84375-2.246094 169.527344s89.710937 82.152344 151.085937 76.921875zm0 0" fill="#ffaa20"/><path d="m348.140625 374.257812c0 49.257813-40.082031 89.328126-89.339844 89.328126h-181.179687c-42.800782 0-77.621094-34.820313-77.621094-77.621094 0-41.867188 33.320312-76.097656 74.828125-77.570313 1.472656-51.558593 43.863281-93.046875 95.773437-93.046875 1.160157 0 2.320313.019532 3.46875.058594 41.71875 1.519531 77.519532 30.160156 88.710938 69.601562 47.417969 2.089844 85.359375 41.316407 85.359375 89.25zm0 0" fill="#97a1f0"/><path d="m348.140625 374.257812c0 49.257813-40.082031 89.328126-89.339844 89.328126h-84.730469v-248.179688c41.71875 1.519531 77.519532 30.160156 88.710938 69.601562 47.417969 2.089844 85.359375 41.316407 85.359375 89.25zm0 0" fill="#6d76e7"/></svg>