<svg height="512pt" viewBox="-43 0 512 512.00004" width="512pt" xmlns="http://www.w3.org/2000/svg"><path d="m332.933594 378.027344v-29.992188c34.730468 0 62.984375-28.257812 62.984375-62.988281v-27.996094h-62.984375v-29.992187h92.980468v57.988281c0 51.269531-41.710937 92.980469-92.980468 92.980469zm0 0" fill="#283ee1"/><path d="m347.929688 200.0625v166.46875c0 79.882812-64.71875 144.929688-144.472657 145.457031-.328125.011719-.667969.011719-1 .011719-80.210937 0-145.46875-65.257812-145.46875-145.46875v-166.46875zm0 0" fill="#97a1f0"/><path d="m0 482.007812h404.917969v29.992188h-404.917969zm0 0" fill="#4b5be6"/><path d="m145.171875 142.527344-20.855469-21.550782-.085937.082032c.089843-.09375 9.339843-9.476563 9.289062-20.644532-.023437-6.292968-3.066406-12.332031-9.292969-18.457031-15.164062-14.917969-18.296874-30.058593-18.253906-40.132812.097656-23.492188 16.472656-40.019531 18.34375-41.824219l20.855469 21.554688.085937-.085938c-.09375.09375-9.339843 9.480469-9.292968 20.644531.027344 6.292969 3.070312 12.332031 9.296875 18.460938 15.160156 14.917969 18.292969 30.054687 18.253906 40.132812-.097656 23.488281-16.476563 40.015625-18.34375 41.820313zm0 0" fill="#c5c9f7"/><path d="m231.234375 100.703125c-.101563 23.496094-16.476563 40.023437-18.347656 41.824219l-9.425781-9.738282-11.429688-11.808593c.960938-1.011719 9.257812-9.988281 9.207031-20.566407-.027343-6.296874-3.066406-12.328124-9.296875-18.457031-15.167968-14.914062-18.296875-30.0625-18.257812-40.128906.101562-23.496094 16.476562-40.023437 18.347656-41.82421875l11.429688 11.80859375 9.425781 9.738281.050781-.039062c-.628906.640625-9.308594 9.785156-9.257812 20.605469.03125 6.289062 3.070312 12.328124 9.296874 18.457031 15.167969 14.914062 18.296876 30.050781 18.257813 40.128906zm0 0" fill="#c5c9f7"/><path d="m280.601562 142.527344-20.855468-21.550782-.085938.082032c.09375-.09375 9.339844-9.476563 9.292969-20.644532-.027344-6.292968-3.070313-12.332031-9.296875-18.457031-15.160156-14.917969-18.292969-30.058593-18.253906-40.132812.097656-23.492188 16.476562-40.019531 18.34375-41.824219l20.855468 21.554688.089844-.085938c-.09375.09375-9.34375 9.480469-9.292968 20.644531.023437 6.292969 3.066406 12.332031 9.292968 18.460938 15.164063 14.917969 18.296875 30.054687 18.253906 40.132812-.097656 23.488281-16.472656 40.015625-18.34375 41.820313zm0 0" fill="#a7aff2"/><path d="m347.929688 200.0625v166.46875c0 79.882812-64.71875 144.929688-144.472657 145.457031v-311.925781zm0 0" fill="#6d76e7"/><path d="m212.886719 142.527344-9.429688-9.738282v-120.976562l9.429688 9.738281.050781-.039062c-.632812.640625-9.308594 9.785156-9.257812 20.605469.027343 6.289062 3.066406 12.328124 9.296874 18.457031 15.167969 14.914062 18.296876 30.050781 18.257813 40.128906-.101563 23.496094-16.476563 40.023437-18.347656 41.824219zm0 0" fill="#a7aff2"/><path d="m203.457031 482.007812h201.460938v29.992188h-201.460938zm0 0" fill="#283ee1"/><path d="m139.660156 200.0625h29.996094v66.988281h-29.996094zm0 0" fill="#ff9a00"/><path d="m154.660156 250.539062-48.804687 29.414063v84.109375h97.601562v-84.109375zm0 0" fill="#ffdb2d"/></svg>