<svg height="511pt" viewBox="1 -13 511.99995 511" width="511pt" xmlns="http://www.w3.org/2000/svg"><path d="m270.980469 122.199219h-270.980469v363.804687h512v-363.804687zm0 0" fill="#f6f6f5"/><path d="m391.492188 122.199219h-135.492188v363.804687h256v-363.804687zm0 0" fill="#c5c9f7"/><path d="m457.257812 216.742188h-124.714843c0-42.269532-34.273438-76.542969-76.542969-76.542969-42.273438 0-76.542969 34.273437-76.542969 76.542969h-124.71875c0-111.152344 90.109375-201.257813 201.261719-201.257813s201.257812 90.105469 201.257812 201.257813zm0 0" fill="#ff73af"/><g fill="#4b5be6"><path d="m54.085938 279.761719h130.847656v29.964843h-130.847656zm0 0"/><path d="m54.085938 341.109375h130.847656v29.96875h-130.847656zm0 0"/><path d="m54.085938 402.460938h130.847656v29.964843h-130.847656zm0 0"/></g><path d="m326.75 279.761719h130.851562v29.964843h-130.851562zm0 0" fill="#283ee1"/><path d="m326.75 341.109375h130.851562v29.96875h-130.851562zm0 0" fill="#283ee1"/><path d="m326.75 402.460938h130.851562v29.964843h-130.851562zm0 0" fill="#283ee1"/><path d="m457.257812 216.742188h-124.714843c0-42.269532-34.273438-76.542969-76.542969-76.542969v-124.714844c111.152344 0 201.257812 90.105469 201.257812 201.257813zm0 0" fill="#ff318e"/><path d="m410.152344 216.742188h-29.964844c0-68.472657-55.707031-124.1875-124.1875-124.1875s-124.1875 55.714843-124.1875 124.1875h-29.96875c0-85.003907 69.152344-154.152344 154.15625-154.152344s154.152344 69.148437 154.152344 154.152344zm0 0" fill="#ffdb2d"/><path d="m410.152344 216.742188h-29.964844c0-68.472657-55.707031-124.1875-124.1875-124.1875v-29.964844c85.003906 0 154.152344 69.148437 154.152344 154.152344zm0 0" fill="#ffaa20"/><path d="m408.90625 63.835938c-40.84375-40.839844-95.144531-63.335938-152.90625-63.335938-57.765625 0-112.0625 22.496094-152.90625 63.335938-40.84375 40.84375-63.335938 95.144531-63.335938 152.90625v14.984374h154.683594v-14.984374c0-33.941407 27.617188-61.558594 61.558594-61.558594s61.558594 27.617187 61.558594 61.558594v14.984374h154.683594v-14.984374c0-57.761719-22.492188-112.0625-63.335938-152.90625zm-62.597656 137.925781c-7.171875-43.371094-44.941406-76.542969-90.308594-76.542969s-83.132812 33.171875-90.304688 76.542969h-95.371093c7.648437-95.742188 87.996093-171.296875 185.675781-171.296875s178.027344 75.554687 185.679688 171.296875zm0 0" fill="#97a1f0"/><path d="m472.242188 216.742188v14.984374h-154.683594v-14.984374c0-33.941407-27.617188-61.558594-61.558594-61.558594v-29.964844c45.367188 0 83.132812 33.171875 90.304688 76.542969h95.371093c-7.648437-95.742188-87.996093-171.296875-185.675781-171.296875v-29.964844c57.761719 0 112.0625 22.496094 152.90625 63.335938 40.84375 40.84375 63.335938 95.144531 63.335938 152.90625zm0 0" fill="#6d76e7"/></svg>