<svg height="512pt" viewBox="0 0 512 512" width="512pt" xmlns="http://www.w3.org/2000/svg"><path d="m512 256c0 68.378906-26.628906 132.671875-74.980469 181.019531-48.347656 48.351563-112.640625 74.980469-181.019531 74.980469s-132.671875-26.628906-181.019531-74.980469c-48.351563-48.347656-74.980469-112.640625-74.980469-181.019531s26.628906-132.671875 74.980469-181.019531c48.347656-48.351563 112.640625-74.980469 181.019531-74.980469s132.671875 26.628906 181.019531 74.980469c48.351563 48.347656 74.980469 112.640625 74.980469 181.019531zm0 0" fill="#4b5be6"/><path d="m512 256c0 68.378906-26.628906 132.671875-74.980469 181.019531-48.347656 48.351563-112.640625 74.980469-181.019531 74.980469v-512c68.378906 0 132.671875 26.628906 181.019531 74.980469 48.351563 48.347656 74.980469 112.640625 74.980469 181.019531zm0 0" fill="#283ee1"/><path d="m448.949219 255.628906c0 106.390625-86.558594 192.949219-192.949219 192.949219s-192.949219-86.558594-192.949219-192.949219c0-70.878906 38.75-135.917968 101.121094-169.730468l12.839844-6.957032 47.597656 82.449219-13.878906 7.238281c-32.558594 16.992188-52.78125 50.320313-52.78125 87 0 54.070313 43.980469 98.0625 98.050781 98.0625s98.050781-43.992187 98.050781-98.0625c0-36.679687-20.222656-70.007812-52.78125-87l-13.878906-7.238281 47.597656-82.449219 12.839844 6.957032c62.371094 33.8125 101.121094 98.851562 101.121094 169.730468zm0 0" fill="#c5c9f7"/><path d="m241 66.328125h30v116.632813h-30zm0 0" fill="#c5c9f7"/><g fill="#a7aff2"><path d="m256 66.328125h15v116.632813h-15zm0 0"/><path d="m448.949219 255.628906c0 106.390625-86.558594 192.949219-192.949219 192.949219v-94.886719c54.070312 0 98.050781-43.992187 98.050781-98.0625 0-36.679687-20.222656-70.007812-52.78125-87l-13.878906-7.238281 47.597656-82.449219 12.839844 6.957032c62.371094 33.8125 101.121094 98.851562 101.121094 169.730468zm0 0"/></g></svg>