<svg height="512pt" viewBox="0 -53 512.00001 512" width="512pt" xmlns="http://www.w3.org/2000/svg"><g fill="#ffdb2d"><path d="m435.75 54.234375h76.25v30.140625h-76.25zm0 0"/><path d="m435.75.00390625h76.25v30.14062475h-76.25zm0 0"/><path d="m435.75 110.042969h76.25v30.140625h-76.25zm0 0"/></g><path d="m435.75 165.847656h76.25v30.140625h-76.25zm0 0" fill="#ffaa20"/><path d="m435.75 221.65625h76.25v30.140625h-76.25zm0 0" fill="#ffaa20"/><path d="m435.75 277.464844h76.25v30.136718h-76.25zm0 0" fill="#ffaa20"/><path d="m377.03125 307.601562v99.046876h-327.511719c-13.679687 0-26.058593-5.539063-35.019531-14.5-8.960938-8.96875-14.5-21.347657-14.5-35.019532 0-27.347656 22.171875-49.527344 49.519531-49.527344zm0 0" fill="#283ee1"/><path d="m291 307.601562h30v99.046876h-30zm0 0" fill="#97a1f0"/><path d="m445 0v307.601562h-392.621094c-28.929687 0-52.378906 23.449219-52.378906 52.378907v-307.601563c0-28.917968 23.449219-52.378906 52.378906-52.378906zm0 0" fill="#97a1f0"/><path d="m445 152.921875v154.679687h-392.621094c-28.929687 0-52.378906 23.449219-52.378906 52.378907v-207.058594zm0 0" fill="#6d76e7"/><path d="m336 0h30v305.828125h-30zm0 0" fill="#c5c9f7"/><path d="m336 152.921875h30v152.90625h-30zm0 0" fill="#a7aff2"/></svg>