<svg height="512pt" viewBox="0 -23 512 512" width="512pt" xmlns="http://www.w3.org/2000/svg"><path d="m317.589844 174.289062v230.101563h-30v-120.332031h-165.261719v120.332031h-30v-230.101563zm0 0" fill="#ff9a00"/><path d="m407.558594 150.859375h-84.332032l42.714844-76.324219h-35.382812v-30h86.550781l-42.714844 76.324219h33.164063zm0 0" fill="#4b5be6"/><path d="m503.222656 90.816406h-76.425781l34.035156-60.816406h-22.273437v-30h73.441406l-34.035156 60.816406h25.257812zm0 0" fill="#4b5be6"/><path d="m61.164062 342.90625c-33.726562 0-61.164062 27.4375-61.164062 61.164062 0 33.726563 27.4375 61.164063 61.164062 61.164063 33.726563 0 61.164063-27.4375 61.164063-61.164063 0-33.726562-27.4375-61.164062-61.164063-61.164062zm0 0" fill="#ffdb2d"/><path d="m317.589844 174.289062v230.101563h-30v-120.332031h-82.628906v-109.769532zm0 0" fill="#e67500"/><path d="m256.425781 342.90625c-33.726562 0-61.164062 27.4375-61.164062 61.164062 0 33.726563 27.4375 61.164063 61.164062 61.164063 33.722657 0 61.164063-27.4375 61.164063-61.164063 0-33.726562-27.441406-61.164062-61.164063-61.164062zm0 0" fill="#ffaa20"/></svg>