<svg height="511pt" viewBox="1 0 511.99994 511" width="511pt" xmlns="http://www.w3.org/2000/svg"><path d="m222.988281 243.046875v152.398437c0 64.542969-46.738281 117.050782-104.1875 117.050782-57.453125 0-104.191406-52.507813-104.191406-117.050782v-152.398437zm0 0" fill="#4b5be6"/><path d="m118.800781 243.046875h104.1875v152.398437c0 64.542969-46.738281 117.050782-104.1875 117.050782zm0 0" fill="#283ee1"/><path d="m240.058594 117.058594v151.871094h-240.058594v-151.871094c0-64.269532 52.289062-116.558594 116.558594-116.558594h6.941406c64.269531 0 116.558594 52.289062 116.558594 116.558594zm0 0" fill="#97a1f0"/><path d="m240.058594 117.058594v151.871094h-121.257813v-268.429688h4.699219c64.269531 0 116.558594 52.289062 116.558594 116.558594zm0 0" fill="#6d76e7"/><path d="m0 174.929688h240.058594v30h-240.058594zm0 0" fill="#ffdb2d"/><path d="m118.800781 174.929688h121.257813v30h-121.257813zm0 0" fill="#ffaa20"/><path d="m494.929688 243.046875v152.398437c0 64.542969-46.738282 117.050782-104.1875 117.050782-57.449219 0-104.191407-52.507813-104.191407-117.050782v-152.398437zm0 0" fill="#4b5be6"/><path d="m390.742188 243.046875h104.1875v152.398437c0 64.542969-46.738282 117.050782-104.1875 117.050782zm0 0" fill="#283ee1"/><path d="m512 117.058594v151.871094h-240.058594v-151.871094c0-64.269532 52.289063-116.558594 116.558594-116.558594h6.941406c64.269532 0 116.558594 52.289062 116.558594 116.558594zm0 0" fill="#97a1f0"/><path d="m512 117.058594v151.871094h-121.257812v-268.429688h4.699218c64.269532 0 116.558594 52.289062 116.558594 116.558594zm0 0" fill="#6d76e7"/><path d="m271.941406 174.929688h240.058594v30h-240.058594zm0 0" fill="#ffdb2d"/><path d="m390.742188 174.929688h121.257812v30h-121.257812zm0 0" fill="#ffaa20"/></svg>