<svg height="512pt" viewBox="-80 0 512 512" width="512pt" xmlns="http://www.w3.org/2000/svg"><path d="m125.898438 0h100.660156v64.671875h-100.660156zm0 0" fill="#ff9a00"/><path d="m176.230469 0h50.328125v64.671875h-50.328125zm0 0" fill="#e67500"/><path d="m352.460938 335.769531c0 97.171875-79.0625 176.230469-176.230469 176.230469-97.171875 0-176.230469-79.058594-176.230469-176.230469 0-31.128906 8.230469-61.730469 23.808594-88.5 13.652344-23.460937 32.632812-43.539062 55.222656-58.507812v-134.089844h194.398438v134.089844c22.589843 14.96875 41.570312 35.046875 55.21875 58.507812 15.582031 26.769531 23.8125 57.371094 23.8125 88.5zm0 0" fill="#ffdb2d"/><path d="m352.460938 335.769531c0 97.171875-79.0625 176.230469-176.230469 176.230469v-457.328125h97.199219v134.089844c22.589843 14.96875 41.570312 35.046875 55.21875 58.507812 15.582031 26.769531 23.8125 57.371094 23.8125 88.5zm0 0" fill="#ffaa20"/><path d="m79.03125 54.671875h194.398438v134.089844h-194.398438zm0 0" fill="#4b5be6"/><path d="m176.230469 54.671875h97.199219v134.089844h-97.199219zm0 0" fill="#283ee1"/><path d="m59.609375 93h233.242187v30h-233.242187zm0 0" fill="#97a1f0"/><path d="m224.695312 319.035156-36.851562-40.945312v-92.089844h30v80.578125l29.148438 32.386719zm0 0" fill="#e67500"/><path d="m127.765625 319.035156-22.296875-20.070312 29.148438-32.386719v-80.578125h30v92.089844zm0 0" fill="#ff9a00"/><path d="m176.230469 93h116.621093v30h-116.621093zm0 0" fill="#6d76e7"/><path d="m79.03125 158.761719h194.398438v30h-194.398438zm0 0" fill="#97a1f0"/><path d="m176.230469 158.761719h97.199219v30h-97.199219zm0 0" fill="#6d76e7"/></svg>