<svg height="512pt" viewBox="-97 0 512 512.00002" width="512pt" xmlns="http://www.w3.org/2000/svg"><path d="m0 0h318v512h-318zm0 0" fill="#e1e4fb"/><path d="m158.988281 0h159.011719v512h-159.011719zm0 0" fill="#c5c9f7"/><path d="m0 416.699219h318v95.300781h-318zm0 0" fill="#ff9a00"/><path d="m158.988281 416.699219h159.011719v95.300781h-159.011719zm0 0" fill="#e67500"/><path d="m0 0h318v79.21875h-318zm0 0" fill="#ff9a00"/><path d="m144.171875 451.328125h29.65625v29.671875h-29.65625zm0 0" fill="#e1e4fb"/><path d="m158.988281 451.328125h14.839844v29.671875h-14.839844zm0 0" fill="#c5c9f7"/><path d="m158.988281 0h159.011719v79.21875h-159.011719zm0 0" fill="#e67500"/><path d="m147.335938 327.269531h-84.332032l42.714844-76.328125h-35.382812v-30h86.550781l-42.714844 76.328125h33.164063zm0 0" fill="#4b5be6"/><path d="m245.332031 267.226562h-76.429687l34.039062-60.820312h-22.273437v-30h73.441406l-34.039063 60.820312h25.261719zm0 0" fill="#283ee1"/></svg>