<svg height="512pt" viewBox="0 -105 512 512" width="512pt" xmlns="http://www.w3.org/2000/svg"><path d="m0 0h512v301h-512zm0 0" fill="#4b5be6"/><path d="m251.03125 0h260.96875v301h-260.96875zm0 0" fill="#283ee1"/><path d="m292.957031 234.5h88.195313v-168h-88.195313zm30-138h28.195313v108h-28.195313zm0 0" fill="#ff318e"/><path d="m396 66.5v168h88.195312v-168zm58.195312 138h-28.195312v-108h28.195312zm0 0" fill="#ff318e"/><path d="m28.570312 234.5h88.195313v-168h-88.195313zm30-138h28.195313v108h-28.195313zm0 0" fill="#ff73af"/><path d="m131.777344 96.5h48.554687v39h-48.554687v30h48.554687v39h-48.554687v30h78.554687v-168h-78.554687zm0 0" fill="#ff73af"/><path d="m236.03125 104.910156h30v30h-30zm0 0" fill="#c5c9f7"/><path d="m236.03125 166.089844h30v30h-30zm0 0" fill="#c5c9f7"/><g fill="#a7aff2"><path d="m251.03125 104.910156h15v30h-15zm0 0"/><path d="m251.03125 166.089844h15v30h-15zm0 0"/></g></svg>