<svg height="512pt" viewBox="-90 0 512 512.00001" width="512pt" xmlns="http://www.w3.org/2000/svg"><path d="m165.691406 321.367188c-73.550781 0-133.386718-59.835938-133.386718-133.382813s59.835937-133.382813 133.386718-133.382813c73.546875 0 133.382813 59.835938 133.382813 133.382813s-59.835938 133.382813-133.382813 133.382813zm0-236.773438c-57.011718 0-103.390625 46.382812-103.390625 103.390625s46.378907 103.390625 103.390625 103.390625c57.007813 0 103.390625-46.382812 103.390625-103.390625s-46.382812-103.390625-103.390625-103.390625zm0 0"/><path d="m32.304688 193.601562h29.996093v138.339844h-29.996093zm0 0" fill="#ff9a00"/><path d="m47.304688 316.945312c-26.085938 0-47.304688 21.222657-47.304688 47.304688 0 21.332031 27.148438 57.867188 35.46875 68.554688l11.835938 15.203124 11.832031-15.203124c8.320312-10.6875 35.46875-47.222657 35.46875-68.554688 0-26.082031-21.21875-47.304688-47.300781-47.304688zm0 0" fill="#ff73af"/><path d="m269.082031 193.601562h29.992188v138.339844h-29.992188zm0 0" fill="#e67500"/><path d="m165.695312 69.59375c-65.386718 0-118.394531 53.007812-118.394531 118.390625 0 65.386719 53.007813 118.382813 118.394531 118.382813 65.375 0 118.382813-52.996094 118.382813-118.382813 0-65.382813-53.007813-118.390625-118.382813-118.390625zm0 156.773438c-21.207031 0-38.382812-17.1875-38.382812-38.382813s17.175781-38.378906 38.382812-38.378906c21.195313 0 38.371094 17.183593 38.371094 38.378906s-17.175781 38.382813-38.371094 38.382813zm0 0" fill="#ffdb2d"/><path d="m298.234375 172.988281c-2.871094-25.5625-12.988281-48.957031-28.265625-68.074219-6.246094-7.835937-13.367188-14.957031-21.203125-21.214843-19.125-15.265625-42.519531-25.394531-68.074219-28.261719v-55.4375h-29.992187v55.4375c-25.554688 2.867188-48.960938 12.996094-68.085938 28.261719-7.835937 6.257812-14.957031 13.378906-21.203125 21.214843-15.277344 19.117188-25.394531 42.511719-28.265625 68.074219-.558593 4.921875-.839843 9.929688-.839843 14.996094 0 5.070313.28125 10.070313.839843 15 2.871094 25.5625 12.996094 48.957031 28.265625 68.082031 6.257813 7.839844 13.375 14.957032 21.214844 21.195313 19.113281 15.277343 42.519531 25.382812 68.074219 28.261719v84.710937h29.992187v-84.710937c25.542969-2.867188 48.9375-12.984376 68.0625-28.261719 7.839844-6.25 14.957032-13.367188 21.214844-21.207031 15.265625-19.125 25.394531-42.519532 28.265625-68.070313.558594-4.929687.839844-9.929687.839844-15 0-5.066406-.28125-10.074219-.839844-14.996094zm-117.542969-87.308593c17.324219 2.519531 33.261719 9.367187 46.699219 19.394531l-36.09375 36.101562c-3.328125-1.839843-6.886719-3.328125-10.605469-4.417969zm-29.992187 0v51.078124c-3.730469 1.089844-7.28125 2.578126-10.617188 4.410157l-36.09375-36.09375c13.4375-10.027344 29.382813-16.875 46.710938-19.394531zm-67.925781 40.601562 36.089843 36.089844c-1.828125 3.339844-3.308593 6.890625-4.398437 10.617187h-51.078125c2.519531-17.324219 9.371093-33.269531 19.386719-46.707031zm-19.386719 76.703125h51.078125c1.089844 3.726563 2.570312 7.277344 4.410156 10.617187l-36.089844 36.089844c-10.027344-13.4375-16.878906-29.382812-19.398437-46.707031zm87.3125 87.296875c-17.328125-2.519531-33.273438-9.367188-46.710938-19.382812l36.09375-36.09375c3.335938 1.828124 6.886719 3.320312 10.617188 4.410156zm17.066406-79.011719c-.683594.070313-1.371094.101563-2.070313.101563-.699218 0-1.402343-.03125-2.082031-.101563-4.886719-.417969-9.355469-2.367187-12.914062-5.359375-1.0625-.886718-2.042969-1.867187-2.929688-2.925781-2.992187-3.5625-4.941406-8.03125-5.359375-12.917969-.070312-.679687-.101562-1.378906-.101562-2.082031 0-.699219.03125-1.386719.101562-2.066406.417969-4.902344 2.367188-9.371094 5.359375-12.929688.886719-1.058593 1.867188-2.039062 2.929688-2.929687 3.558593-2.988282 8.027343-4.9375 12.914062-5.355469.679688-.070313 1.382813-.101563 2.082031-.101563.699219 0 1.378907.03125 2.070313.101563h.007813c4.890624.417969 9.347656 2.367187 12.917968 5.355469 1.058594.890625 2.039063 1.871094 2.929688 2.929687 2.976562 3.558594 4.925781 8.027344 5.359375 12.917969.066406.679688.097656 1.378906.097656 2.078125 0 .703125-.03125 1.402344-.097656 2.082031-.433594 4.886719-2.382813 9.355469-5.359375 12.917969-.890625 1.058594-1.871094 2.039063-2.929688 2.925781-3.570312 2.992188-8.039062 4.941406-12.925781 5.359375zm12.925781 79.011719v-51.066406c3.71875-1.089844 7.277344-2.582032 10.605469-4.410156l36.09375 36.09375c-13.4375 10.015624-29.375 16.863281-46.699219 19.382812zm67.902344-40.601562-36.082031-36.078126c1.832031-3.339843 3.320312-6.890624 4.410156-10.617187h51.066406c-2.515625 17.324219-9.367187 33.261719-19.394531 46.695313zm-31.671875-76.691407c-1.089844-3.726562-2.578125-7.277343-4.410156-10.617187l36.09375-36.089844c5.007812 6.71875 9.226562 14.066406 12.507812 21.894531 3.277344 7.828125 5.617188 16.144531 6.875 24.8125zm0 0" fill="#ff9a00"/><path d="m284.078125 187.984375c0 65.386719-53.007813 118.382813-118.382813 118.382813v-80c21.195313 0 38.371094-17.1875 38.371094-38.382813s-17.175781-38.378906-38.371094-38.378906v-80.011719c65.375 0 118.382813 53.007812 118.382813 118.390625zm0 0" fill="#ffaa20"/><path d="m298.234375 172.988281c-2.871094-25.5625-12.988281-48.957031-28.265625-68.074219-6.246094-7.835937-13.367188-14.957031-21.203125-21.214843-19.125-15.265625-42.519531-25.394531-68.074219-28.261719v-55.4375h-14.996094v164.601562c.699219 0 1.378907.03125 2.070313.101563h.007813c4.890624.417969 9.347656 2.367187 12.917968 5.355469 1.058594.890625 2.039063 1.871094 2.929688 2.929687 2.976562 3.558594 4.925781 8.027344 5.359375 12.917969.066406.679688.097656 1.378906.097656 2.078125 0 .703125-.03125 1.402344-.097656 2.082031-.433594 4.886719-2.382813 9.355469-5.359375 12.917969-.890625 1.058594-1.871094 2.039063-2.929688 2.925781-3.570312 2.992188-8.039062 4.941406-12.925781 5.359375-.683594.070313-1.371094.101563-2.070313.101563v193.863281h14.996094v-84.710937c25.542969-2.867188 48.9375-12.984376 68.0625-28.261719 7.839844-6.25 14.957032-13.367188 21.214844-21.207031 15.265625-19.125 25.394531-42.519532 28.265625-68.070313.558594-4.929687.839844-9.929687.839844-15 0-5.066406-.28125-10.074219-.839844-14.996094zm-117.542969-36.230469v-51.078124c17.324219 2.519531 33.261719 9.367187 46.699219 19.394531l-36.09375 36.101562c-3.328125-1.839843-6.886719-3.328125-10.605469-4.417969zm0 153.523438v-51.066406c3.71875-1.089844 7.277344-2.582032 10.605469-4.410156l36.09375 36.09375c-13.4375 10.015624-29.375 16.863281-46.699219 19.382812zm67.902344-40.601562-36.082031-36.078126c1.832031-3.339843 3.320312-6.890624 4.410156-10.617187h51.066406c-2.515625 17.324219-9.367187 33.261719-19.394531 46.695313zm-31.671875-76.691407c-1.089844-3.726562-2.578125-7.277343-4.410156-10.617187l36.09375-36.089844c5.007812 6.71875 9.226562 14.066406 12.507812 21.894531 3.277344 7.828125 5.617188 16.144531 6.875 24.8125zm0 0" fill="#e67500"/><path d="m212.992188 428.238281c0 21.335938-27.144532 57.867188-35.472657 68.554688l-11.824219 15.207031-11.839843-15.207031c-8.316407-10.6875-35.46875-47.21875-35.46875-68.554688 0-26.082031 21.222656-47.296875 47.308593-47.296875 26.074219 0 47.296876 21.214844 47.296876 47.296875zm0 0" fill="#ff73af"/><g fill="#ff318e"><path d="m284.078125 316.945312c-26.082031 0-47.304687 21.222657-47.304687 47.304688 0 21.332031 27.148437 57.867188 35.472656 68.554688l11.832031 15.203124 11.832031-15.203124c8.320313-10.6875 35.46875-47.222657 35.46875-68.554688 0-26.082031-21.21875-47.304688-47.300781-47.304688zm0 0"/><path d="m212.992188 428.238281c0 21.335938-27.144532 57.867188-35.472657 68.554688l-11.824219 15.207031v-131.058594c26.074219 0 47.296876 21.214844 47.296876 47.296875zm0 0"/></g></svg>