<svg height="511pt" viewBox="1 -30 511.99995 511" width="511pt" xmlns="http://www.w3.org/2000/svg"><path d="m512 208.832031c0 17.230469-1.691406 34.21875-5.03125 50.777344-2.039062 10.171875-4.707031 20.191406-7.988281 30-8.300781 24.910156-20.507813 48.527344-36.398438 70.15625-31.660156 43.097656-75.128906 74.757813-125.707031 91.558594l-2.296875.769531h-157.15625l-2.296875-.769531c-50.570312-16.800781-94.039062-48.460938-125.707031-91.558594-15.890625-21.628906-28.097657-45.246094-36.398438-70.15625-3.28125-9.808594-5.949219-19.828125-7.988281-30-3.339844-16.558594-5.03125-33.546875-5.03125-50.777344 0-.398437.0117188-.800781.0117188-1.199219l.0078124-.570312.1093748-14.890625h511.742188l.117187 15.460937c0 .398438.011719.800782.011719 1.199219zm0 0" fill="#ff9a00"/><path d="m512 208.832031c0 17.230469-1.691406 34.21875-5.03125 50.777344-2.039062 10.171875-4.707031 20.191406-7.988281 30-8.300781 24.910156-20.507813 48.527344-36.398438 70.15625-31.660156 43.097656-75.128906 74.757813-125.707031 91.558594l-2.296875.769531h-78.578125v-259.921875h255.871094l.117187 15.460937c0 .398438.011719.800782.011719 1.199219zm0 0" fill="#e67500"/><path d="m198.714844 143.054688-20.863282-21.558594-.085937.082031c.09375-.09375 9.34375-9.476563 9.296875-20.648437-.027344-6.292969-3.070312-12.332032-9.296875-18.460938-15.167969-14.921875-18.300781-30.0625-18.257813-40.136719.097657-23.496093 16.476563-40.023437 18.34375-41.832031l20.863282 21.558594.085937-.085938c-.09375.09375-9.34375 9.480469-9.296875 20.648438.027344 6.296875 3.070313 12.335937 9.296875 18.464844 15.167969 14.917968 18.300781 30.058593 18.257813 40.136718-.097656 23.496094-16.476563 40.023438-18.34375 41.832032zm0 0" fill="#c5c9f7"/><path d="m284.789062 101.226562c-.101562 23.488282-16.480468 40.019532-18.347656 41.828126l-10.441406-10.789063-10.417969-10.769531c.957031-1.011719 9.257813-9.980469 9.207031-20.558594-.027343-6.300781-3.070312-12.339844-9.296874-18.472656-15.171876-14.917969-18.300782-30.058594-18.261719-40.136719.101562-23.488281 16.480469-40.019531 18.351562-41.828125l10.417969 10.769531 10.441406 10.789063.046875-.039063c-.628906.640625-9.308593 9.777344-9.257812 20.597657.03125 6.300781 3.070312 12.339843 9.300781 18.46875 15.167969 14.921874 18.296875 30.058593 18.257812 40.140624zm0 0" fill="#c5c9f7"/><path d="m334.167969 143.054688-20.863281-21.558594-.085938.082031c.09375-.09375 9.34375-9.476563 9.296875-20.648437-.027344-6.292969-3.066406-12.332032-9.296875-18.460938-15.167969-14.921875-18.300781-30.0625-18.257812-40.136719.097656-23.496093 16.476562-40.023437 18.34375-41.832031l20.863281 21.558594.085937-.085938c-.09375.09375-9.34375 9.480469-9.292968 20.648438.023437 6.296875 3.066406 12.335937 9.296874 18.464844 15.164063 14.917968 18.296876 30.058593 18.253907 40.136718-.09375 23.496094-16.476563 40.023438-18.34375 41.832032zm0 0" fill="#a7aff2"/><path d="m67.417969 422.09375h377.164062v30h-377.164062zm0 0" fill="#ffdba9"/><path d="m506.96875 259.609375c-2.039062 10.171875-4.707031 20.191406-7.988281 30h-485.960938c-3.28125-9.808594-5.949219-19.828125-7.988281-30zm0 0" fill="#ffdb2d"/><path d="m266.441406 143.054688-10.441406-10.789063v-120.996094l10.441406 10.789063.046875-.039063c-.628906.640625-9.308593 9.777344-9.257812 20.597657.03125 6.300781 3.070312 12.339843 9.300781 18.46875 15.167969 14.921874 18.296875 30.058593 18.257812 40.140624-.101562 23.488282-16.480468 40.019532-18.347656 41.828126zm0 0" fill="#a7aff2"/><path d="m256 422.09375h188.582031v30h-188.582031zm0 0" fill="#ffc473"/><path d="m506.96875 259.609375c-2.039062 10.171875-4.707031 20.191406-7.988281 30h-242.980469v-30zm0 0" fill="#ffaa20"/></svg>