<svg height="512pt" viewBox="0 -45 512 512" width="512pt" xmlns="http://www.w3.org/2000/svg"><path d="m512 183c0 49.929688-27.351562 96.488281-77.011719 131.101562-48.007812 33.46875-111.578125 51.898438-178.988281 51.898438-16.351562 0-32.71875-1.109375-48.738281-3.300781l-102.710938 59.300781v-91.25c-65.652343-34.339844-104.550781-89.019531-104.550781-147.75 0-49.921875 27.351562-96.480469 77.011719-131.089844 48.007812-33.46875 111.578125-51.910156 178.988281-51.910156s130.980469 18.441406 178.988281 51.910156c49.660157 34.609375 77.011719 81.167969 77.011719 131.089844zm0 0" fill="#4b5be6"/><path d="m512 183c0 49.929688-27.351562 96.488281-77.011719 131.101562-48.007812 33.46875-111.578125 51.898438-178.988281 51.898438v-366c67.410156 0 130.980469 18.441406 178.988281 51.910156 49.660157 34.609375 77.011719 81.167969 77.011719 131.089844zm0 0" fill="#283ee1"/><path d="m250.082031 282.484375h-110.917969l65.667969-117.335937h-58.082031v-30h109.25l-65.667969 117.335937h59.75zm0 0" fill="#ffdb2d"/><path d="m358.003906 195.601562h-93.578125l52.324219-93.492187h-41.085938v-30h92.253907l-52.324219 93.492187h42.410156zm0 0" fill="#ffaa20"/></svg>