<svg height="512pt" viewBox="0 -18 512 512" width="512pt" xmlns="http://www.w3.org/2000/svg"><path d="m243.351562 180.375h59.75v30h-110.910156l63.808594-114.019531 1.851562-3.308594h-58.082031v-30h109.25l-53.019531 94.730469zm0 0" fill="#4b5be6"/><path d="m397.660156 123.496094h-93.582031l52.328125-93.496094h-41.085938v-30h92.253907l-52.324219 93.496094h42.410156zm0 0" fill="#283ee1"/><path d="m512 357.375c0 65.621094-53.378906 119-119 119h-274c-65.621094 0-119-53.378906-119-119 0-65.617188 53.378906-119 119-119h274c65.621094 0 119 53.382812 119 119zm0 0" fill="#ffdb2d"/><path d="m512 357.375c0 65.621094-53.378906 119-119 119h-137v-238h137c65.621094 0 119 53.382812 119 119zm0 0" fill="#ffaa20"/><g fill="#283ee1"><path d="m256 180.375h47.101562v30h-47.101562zm0 0"/><path d="m309.019531 63.046875-53.019531 94.730469v-61.421875l1.851562-3.308594h-1.851562v-30zm0 0"/></g></svg>