<svg height="512pt" viewBox="0 0 512 512" width="512pt" xmlns="http://www.w3.org/2000/svg"><path d="m512 256c0 68.378906-26.628906 132.671875-74.980469 181.019531-48.347656 48.351563-112.640625 74.980469-181.019531 74.980469-.519531 0-1.03125 0-1.550781-.011719-67.800781-.386719-131.488281-26.988281-179.46875-74.96875-48.351563-48.347656-74.980469-112.640625-74.980469-181.019531s26.628906-132.671875 74.980469-181.019531c47.980469-47.980469 111.667969-74.582031 179.46875-74.9687502.519531-.0117188 1.03125-.0117188 1.550781-.0117188 68.378906 0 132.671875 26.628906 181.019531 74.980469 48.351563 48.347656 74.980469 112.640625 74.980469 181.019531zm0 0" fill="#97a1f0"/><path d="m512 256c0 68.378906-26.628906 132.671875-74.980469 181.019531-48.347656 48.351563-112.640625 74.980469-181.019531 74.980469-.519531 0-1.03125 0-1.550781-.011719v-511.9765622c.519531-.0117188 1.03125-.0117188 1.550781-.0117188 68.378906 0 132.671875 26.628906 181.019531 74.980469 48.351563 48.347656 74.980469 112.640625 74.980469 181.019531zm0 0" fill="#6d76e7"/><path d="m444 256c0 103.660156-84.339844 188-188 188-.519531 0-1.03125 0-1.550781-.011719-102.949219-.828125-186.449219-84.847656-186.449219-187.988281s83.5-187.160156 186.449219-187.988281c.519531-.011719 1.03125-.011719 1.550781-.011719 103.660156 0 188 84.339844 188 188zm0 0" fill="#4b5be6"/><path d="m444 256c0 103.660156-84.339844 188-188 188-.519531 0-1.03125 0-1.550781-.011719v-375.976562c.519531-.011719 1.03125-.011719 1.550781-.011719 103.660156 0 188 84.339844 188 188zm0 0" fill="#283ee1"/><path d="m271 124.328125v146.671875h-102v-30h72v-116.671875zm0 0" fill="#ffdb2d"/><path d="m254.449219 124.328125h16.550781v146.671875h-16.550781zm0 0" fill="#ffaa20"/></svg>