<svg height="512pt" viewBox="0 -59 512 512" width="512pt" xmlns="http://www.w3.org/2000/svg"><path d="m512 .00390625v393.99999975l-74.308594-34.5h-363.382812l-74.308594 34.5v-393.99999975l74.308594 34.49999975h363.382812zm0 0" fill="#c5c9f7"/><path d="m512 .00390625v393.99999975l-74.308594-34.5h-181.691406v-325h181.691406zm0 0" fill="#a7aff2"/><path d="m0 0v394.003906l74.3125-34.5v-325zm0 0" fill="#97a1f0"/><path d="m437.6875 34.503906v325l74.3125 34.5v-394.003906zm0 0" fill="#6d76e7"/><path d="m147 117.003906h30.667969v30.664063h-30.667969zm0 0" fill="#97a1f0"/><path d="m334.332031 117.003906h30.667969v30.664063h-30.667969zm0 0" fill="#6d76e7"/><path d="m147 246.335938h30.667969v30.667968h-30.667969zm0 0" fill="#97a1f0"/><path d="m334.332031 246.335938h30.667969v30.667968h-30.667969zm0 0" fill="#6d76e7"/></svg>