<svg height="512pt" viewBox="-20 0 512 512" width="512pt" xmlns="http://www.w3.org/2000/svg"><path d="m299.007812 401.398438 18.972657 110.601562-99.328125-52.21875-99.328125 52.21875 18.96875-110.601562-80.339844-78.328126 111.035156-16.136718 49.664063-100.613282 49.664062 100.613282 111.050782 16.136718zm0 0" fill="#ffdb2d"/><path d="m299.007812 401.398438 18.972657 110.601562-99.328125-52.21875v-253.460938l49.664062 100.613282 111.050782 16.136718zm0 0" fill="#ffaa20"/><path d="m417.1875 188.109375 13.09375 76.332031-68.550781-36.039062-68.550781 36.039062 13.09375-76.332031-55.445313-54.054687 76.628906-11.136719 34.273438-69.4375 34.277343 69.4375 76.636719 11.136719zm0 0" fill="#ffdb2d"/><path d="m417.1875 188.109375 13.09375 76.332031-68.550781-36.039062v-174.921875l34.277343 69.4375 76.636719 11.136719zm0 0" fill="#ffaa20"/><path d="m155.683594 125.988281 12.253906 71.433594-64.152344-33.726563-64.148437 33.726563 12.25-71.433594-51.886719-50.585937 71.710938-10.421875 32.074218-64.980469 32.074219 64.980469 71.722656 10.421875zm0 0" fill="#ffdb2d"/><path d="m155.683594 125.988281 12.253906 71.433594-64.152344-33.726563v-163.695312l32.074219 64.980469 71.722656 10.421875zm0 0" fill="#ffaa20"/></svg>