<svg height="512pt" viewBox="0 -56 512.00001 512" width="512pt" xmlns="http://www.w3.org/2000/svg"><path d="m0 254.398438h49.585938v30h-49.585938zm0 0" fill="#4b5be6"/><path d="m462.414062 254.398438h49.585938v30h-49.585938zm0 0" fill="#283ee1"/><path d="m340.328125 150.859375h-84.328125l42.714844-76.324219h-35.386719v-30h86.554687l-42.714843 76.324219h33.160156zm0 0" fill="#4b5be6"/><path d="m435.996094 90.816406h-76.429688l34.039063-60.816406h-22.277344v-30h73.445313l-34.039063 60.816406h25.261719zm0 0" fill="#4b5be6"/><path d="m478.910156 292.785156c0 59.171875-48.140625 107.3125-107.308594 107.3125-36.671874 0-70.382812-18.363281-90.230468-49.132812l-25.371094-39.328125-25.371094 39.328125c-19.847656 30.769531-53.558594 49.132812-90.167968 49.132812-59.230469 0-107.371094-48.140625-107.371094-107.3125 0-59.167968 48.140625-107.308594 107.308594-107.308594h231.203124c59.167969 0 107.308594 48.140626 107.308594 107.308594zm0 0" fill="#ff73af"/><path d="m478.910156 292.785156c0 59.171875-48.140625 107.3125-107.308594 107.3125-36.671874 0-70.382812-18.363281-90.230468-49.132812l-25.371094-39.328125v-126.160157h115.601562c59.167969 0 107.308594 48.140626 107.308594 107.308594zm0 0" fill="#ff318e"/></svg>