<svg height="512pt" viewBox="0 -30 512 512" width="512pt" xmlns="http://www.w3.org/2000/svg"><path d="m483.328125 302.984375v45.328125h-328.417969v-104.179688h269.578125c32.453125 0 58.839844 26.402344 58.839844 58.851563zm0 0" fill="#ffdb2d"/><path d="m483.328125 302.984375v45.328125h-227.328125v-104.179688h168.488281c32.453125 0 58.839844 26.402344 58.839844 58.851563zm0 0" fill="#ffaa20"/><path d="m130.746094 231.484375c-28.121094 0-51 22.878906-51 51s22.878906 51 51 51 51-22.878906 51-51-22.878906-51-51-51zm0 0" fill="#ff9a00"/><path d="m340.328125 150.859375h-84.328125l42.714844-76.324219h-35.386719v-30h86.554687l-42.714843 76.324219h33.160156zm0 0" fill="#6d76e7"/><path d="m435.996094 90.816406h-76.429688l34.039063-60.816406h-22.277344v-30h73.441406l-34.035156 60.816406h25.261719zm0 0" fill="#6d76e7"/><path d="m0 117.308594h95v231h-95zm0 0" fill="#97a1f0"/><g fill="#4b5be6"><path d="m0 318.3125h512v94.652344h-512zm0 0"/><path d="m482 397.964844h30v53.347656h-30zm0 0"/><path d="m0 397.964844h30v53.347656h-30zm0 0"/></g><path d="m512 318.3125v133h-30v-38.347656h-226v-94.652344zm0 0" fill="#283ee1"/></svg>