<svg height="512pt" viewBox="0 -27 512 512" width="512pt" xmlns="http://www.w3.org/2000/svg"><path d="m512 184.5c0 8.761719-.609375 17.371094-1.800781 25.800781-1.449219 10.300781-3.75 20.320313-6.828125 30-4.449219 14.027344-10.550782 27.339844-18.0625 39.699219-6.539063 10.769531-14.148438 20.820312-22.6875 30-29.300782 31.519531-69.472656 52.820312-114.480469 57.851562-6.78125.757813-13.660156 1.148438-20.640625 1.148438-63.890625 0-120.300781-32.648438-153.429688-82.140625-14.710937-21.96875-24.832031-47.269531-28.96875-74.5-1.382812-9.089844-2.101562-18.390625-2.101562-27.859375 0-3.039062.070312-6.058594.21875-9.058594.5-10.242187 1.832031-20.261718 3.941406-30 17.96875-83.042968 92.011719-145.441406 180.339844-145.441406 60.769531 0 114.769531 29.53125 148.398438 75 6.929687 9.359375 13 19.398438 18.070312 30 11.5625 24.078125 18.03125 51.050781 18.03125 79.5zm0 0" fill="#ffdb2d"/><path d="m512 184.5c0 8.761719-.609375 17.371094-1.800781 25.800781-1.449219 10.300781-3.75 20.320313-6.828125 30-4.449219 14.027344-10.550782 27.339844-18.0625 39.699219-6.539063 10.769531-14.148438 20.820312-22.6875 30-33.710938 36.269531-81.8125 59-135.121094 59v-369c60.769531 0 114.769531 29.53125 148.398438 75 6.929687 9.359375 13 19.398438 18.070312 30 11.5625 24.078125 18.03125 51.050781 18.03125 79.5zm0 0" fill="#ffaa20"/><path d="m493.96875 105h-155.96875v-30h137.898438c6.929687 9.359375 13 19.398438 18.070312 30zm0 0" fill="#e67500"/><path d="m416.328125 145.441406v30h-273.109375c.5-10.242187 1.832031-20.261718 3.941406-30zm0 0" fill="#ff9a00"/><path d="m510.199219 210.300781c-1.449219 10.300781-3.75 20.320313-6.828125 30h-170.230469v-30zm0 0" fill="#e67500"/><path d="m485.308594 280c-6.539063 10.769531-14.148438 20.820312-22.6875 30h-82.949219v-30zm0 0" fill="#e67500"/><path d="m264.8125 75h37.1875v30h-37.1875zm0 0" fill="#ff9a00"/><path d="m451.476562 145.445312h37.1875v30h-37.1875zm0 0" fill="#e67500"/><path d="m267.667969 210.300781h37.1875v30h-37.1875zm0 0" fill="#ff9a00"/><path d="m348.140625 367.820312c0 49.257813-40.082031 89.328126-89.339844 89.328126h-181.179687c-42.800782 0-77.621094-34.820313-77.621094-77.617188 0-41.871094 33.320312-76.101562 74.828125-77.570312 1.472656-51.5625 43.863281-93.050782 95.773437-93.050782 1.160157 0 2.320313.019532 3.46875.058594 41.71875 1.519531 77.519532 30.160156 88.710938 69.601562 47.417969 2.089844 85.359375 41.320313 85.359375 89.25zm0 0" fill="#97a1f0"/><path d="m348.140625 367.820312c0 49.257813-40.082031 89.328126-89.339844 89.328126h-84.730469v-248.179688c41.71875 1.519531 77.519532 30.160156 88.710938 69.601562 47.417969 2.089844 85.359375 41.320313 85.359375 89.25zm0 0" fill="#6d76e7"/><path d="m327.5 145.441406h88.828125v30h-88.828125zm0 0" fill="#e67500"/></svg>