<svg height="511pt" viewBox="-66 1 511 511.99999" width="511pt" xmlns="http://www.w3.org/2000/svg"><path d="m326.75 141.238281v4.328125c0 25.21875-20.511719 45.734375-45.734375 45.734375h-181.691406c-25.222657 0-45.734375-20.515625-45.734375-45.734375v-4.328125c0-24.671875 19.632812-44.84375 44.09375-45.703125.378906-15.574218 4.828125-37.6875 24.570312-51.421875 13.105469-9.105469 29.878906-11.015625 46.09375-12.863281 8.636719-.980469 15.925782-1.929688 21.820313-3.378906 8.617187-2.109375 14.238281-5.300782 16.617187-11.257813l6.644532-16.613281 15.195312 9.445312c4.519531 2.808594 44.402344 28.511719 52.621094 64.847657 1.609375 7.125 1.867187 14.265625.800781 21.222656 24.738281.546875 44.703125 20.851563 44.703125 45.722656zm0 0" fill="#fff5cb"/><path d="m281.015625 191.300781h-90.847656v-163.429687c8.617187-2.109375 14.238281-5.300782 16.617187-11.257813l6.644532-16.613281 15.195312 9.445312c4.519531 2.808594 44.402344 28.511719 52.621094 64.847657 1.609375 7.125 1.867187 14.265625.800781 21.222656 24.738281.546875 44.703125 20.851563 44.703125 45.722656v4.328125c0 25.21875-20.511719 45.734375-45.734375 45.734375zm0 0" fill="#ffdba9"/><path d="m31.238281 161.128906h317.863281v93.085938h-317.863281zm0 0" fill="#ffdb2d"/><path d="m190.167969 161.128906h158.933593v93.085938h-158.933593zm0 0" fill="#ffaa20"/><path d="m.5 224.226562h379.339844v287.773438h-379.339844zm0 0" fill="#ff73af"/><path d="m190.167969 224.226562h189.671875v287.773438h-189.671875zm0 0" fill="#ff318e"/><path d="m58.808594 309.933594h262.722656v147.945312h-262.722656zm0 0" fill="#ffdba9"/><path d="m190.167969 309.933594h131.363281v147.945312h-131.363281zm0 0" fill="#ffc473"/></svg>