<svg height="512pt" viewBox="-103 0 512 512" width="512pt" xmlns="http://www.w3.org/2000/svg"><path d="m74.890625 146.488281h155.21875v245.0625h-155.21875zm0 0" fill="#4b5be6"/><path d="m152.539062 146.488281h77.570313v245.0625h-77.570313zm0 0" fill="#283ee1"/><path d="m57.5 361.550781h190v90.230469h-190zm0 0" fill="#97a1f0"/><path d="m152.539062 361.550781h94.960938v90.230469h-94.960938zm0 0" fill="#6d76e7"/><path d="m0 421.78125h305v90.21875h-305zm0 0" fill="#ffdb2d"/><path d="m210.171875 88.820312c0 31.789063-25.851563 57.648438-57.632813 57.667969h-.039062c-31.800781 0-57.671875-25.867187-57.671875-57.667969 0-13.339843 7.992187-30.242187 24.441406-51.640624 11.082031-14.429688 22.03125-25.691407 22.492188-26.167969l10.738281-11.011719.039062.0390625 10.699219 10.9726565c.460938.476562 11.410157 11.738281 22.492188 26.167969 16.449219 21.398437 24.441406 38.300781 24.441406 51.640624zm0 0" fill="#ff9a00"/><path d="m152.539062 421.78125h152.460938v90.21875h-152.460938zm0 0" fill="#ffaa20"/><path d="m152.539062 146.488281v-146.4492185l10.699219 10.9726565c.460938.476562 11.410157 11.738281 22.492188 26.167969 16.449219 21.398437 24.441406 38.300781 24.441406 51.640624 0 31.789063-25.851563 57.648438-57.632813 57.667969zm0 0" fill="#e67500"/></svg>