<svg height="512pt" viewBox="0 0 512 512" width="512pt" xmlns="http://www.w3.org/2000/svg"><path d="m0 0h512v512h-512z" fill="#4b5be6"/><path d="m256 0h256v512h-256zm0 0" fill="#283ee1"/><path d="m0 436.78125h512v75.21875h-512zm0 0" fill="#ff9a00"/><path d="m0 0h512v89h-512zm0 0" fill="#ff9a00"/><path d="m129.410156 229c0-35.6875 20.625-66.554688 50.605469-81.34375-12.078125-5.960938-25.671875-9.3125-40.050781-9.3125-50.066406 0-90.65625 40.589844-90.65625 90.65625s40.589844 90.65625 90.65625 90.65625c14.378906 0 27.972656-3.351562 40.050781-9.3125-29.980469-14.789062-50.605469-45.65625-50.605469-81.34375zm0 0" fill="#ffdb2d"/><g fill="#c5c9f7"><path d="m292.824219 164.96875 39-36.003906 20.351562 22.046875-39 36zm0 0"/><path d="m243.996094 299.515625 141.996094-131.082031 20.351562 22.046875-142 131.078125zm0 0"/><path d="m398.546875 157.164062 21.355469-18.804687 19.824218 22.515625-21.355468 18.800781zm0 0"/></g><path d="m256 0h256v89h-256zm0 0" fill="#e67500"/><path d="m256 436.78125h256v75.21875h-256zm0 0" fill="#e67500"/><path d="m0 74h512v30h-512zm0 0" fill="#c5c9f7"/><path d="m0 421.78125h512v30h-512zm0 0" fill="#c5c9f7"/><path d="m241 89h30v423h-30zm0 0" fill="#c5c9f7"/><path d="m271 104v317.78125h241v30h-241v60.21875h-15v-438h256v30zm0 0" fill="#a7aff2"/></svg>