<svg height="512pt" viewBox="-13 0 512 512.00175" width="512pt" xmlns="http://www.w3.org/2000/svg"><path d="m462.492188 424.871094-32.46875 87.128906h-373.652344l-32.46875-87.128906zm0 0" fill="#97a1f0"/><path d="m462.492188 424.871094-32.46875 87.128906h-186.824219v-87.128906zm0 0" fill="#6d76e7"/><path d="m21.152344 15.542969 25.660156-15.542969 80.601562 133.0625-25.660156 15.542969zm0 0" fill="#ff9a00"/><path d="m132.929688 133.070312 80.601562-133.0624995 25.660156 15.5468755-80.601562 133.058593zm0 0" fill="#ff9a00"/><path d="m0 125.28125h486.394531v329.589844h-486.394531zm0 0" fill="#c5c9f7"/><path d="m243.199219 125.28125h243.195312v329.589844h-243.195312zm0 0" fill="#a7aff2"/><path d="m59.152344 173.171875h248.71875v215.796875h-248.71875zm0 0" fill="#4b5be6"/><path d="m386.507812 173.175781c-25.824218 0-46.835937 21.011719-46.835937 46.835938s21.011719 46.835937 46.835937 46.835937c25.828126 0 46.839844-21.011718 46.839844-46.835937s-21.011718-46.835938-46.839844-46.835938zm0 0" fill="#e67500"/><g fill="#283ee1"><path d="m343.960938 304.996094h85.097656v30h-85.097656zm0 0"/><path d="m343.960938 358.964844h85.097656v30.003906h-85.097656zm0 0"/><path d="m243.199219 173.171875h64.671875v215.796875h-64.671875zm0 0"/></g></svg>