<svg height="512pt" viewBox="0 -58 512.00001 512" width="512pt" xmlns="http://www.w3.org/2000/svg"><path d="m398.910156 28.085938-10.640625 3.980468v257.050782l30.898438 82.066406 92.832031-40.792969zm0 0" fill="#283ee1"/><path d="m125.5625 32.628906-12.472656-4.667968-113.089844 302.308593 92.832031 40.789063 32.730469-86.9375zm0 0" fill="#4b5be6"/><path d="m398.910156 28.089844v367.9375h-285.769531v-367.949219l69.355469-28.078125h146.949218zm0 0" fill="#97a1f0"/><path d="m398.910156 28.089844v367.9375h-142.980468v-396.027344h73.515624zm0 0" fill="#6d76e7"/><path d="m240.9375 69.023438h30.007812v327.003906h-30.007812zm0 0" fill="#c5c9f7"/><path d="m255.929688 69.023438h15.015624v327.003906h-15.015624zm0 0" fill="#a7aff2"/><path d="m329.4375 0-73.457031 113.039062-.050781-.078124-73.414063-112.960938zm0 0" fill="#4b5be6"/><path d="m329.4375 0-73.457031 113.039062-.050781-.078124v-112.960938zm0 0" fill="#283ee1"/></svg>