<svg height="512pt" viewBox="0 -43 512 512" width="512pt" xmlns="http://www.w3.org/2000/svg"><path d="m482 0c0 46.910156-38.164062 85.074219-85.074219 85.074219h-51.546875v30h17.984375l81.0625 67.609375 7.859375 12.773437 17.324219-10.652343c26.148437-16.082032 42.390625-45.140626 42.390625-75.835938v-108.96875zm0 0" fill="#e67500"/><path d="m166.625 85.074219h-51.550781c-46.910157 0-85.074219-38.164063-85.074219-85.074219h-30v108.96875c0 30.695312 16.242188 59.757812 42.390625 75.835938l17.324219 10.65625 7.859375-12.777344 81.0625-67.609375h17.984375v-30zm0 0" fill="#ff9a00"/><path d="m464.441406 224.921875c0 110.800781-93.492187 200.941406-208.402344 200.941406h-.039062c-114.890625-.019531-208.359375-90.152343-208.359375-200.941406s93.46875-200.929687 208.359375-200.949219h.039062c114.910157 0 208.402344 90.148438 208.402344 200.949219zm0 0" fill="#ff9a00"/><path d="m464.441406 224.921875c0 110.800781-93.492187 200.941406-208.402344 200.941406h-.039062v-401.890625h.039062c114.910157 0 208.402344 90.148438 208.402344 200.949219zm0 0" fill="#e67500"/><path d="m321.75 209.921875v83.070313l-65.710938 75.878906-.039062-.050782-65.671875-75.828124v-83.070313zm0 0" fill="#fff5cb"/><path d="m321.75 209.921875v83.070313l-65.710938 75.878906-.039062-.050782v-158.898437zm0 0" fill="#ffdba9"/><path d="m443.417969 193.714844c0 51.742187-41.945313 93.6875-93.6875 93.6875-51.742188 0-93.6875-41.945313-93.6875-93.6875 0-51.742188 41.945312-93.6875 93.6875-93.6875 51.742187 0 93.6875 41.945312 93.6875 93.6875zm0 0" fill="#ffdba9"/><path d="m256.042969 193.714844c0 51.742187-41.945313 93.6875-93.6875 93.6875-51.742188 0-93.6875-41.945313-93.6875-93.6875 0-51.742188 41.945312-93.6875 93.6875-93.6875 51.742187 0 93.6875 41.945312 93.6875 93.6875zm0 0" fill="#fff5cb"/><path d="m349.730469 141.683594c-28.691407 0-52.035157 23.339844-52.035157 52.03125 0 4.929687.703126 9.691406 1.988282 14.214844h29.066406v33.386718c6.421875 2.839844 13.515625 4.433594 20.980469 4.433594 28.691406 0 52.03125-23.34375 52.03125-52.035156s-23.339844-52.03125-52.03125-52.03125zm0 0" fill="#e67500"/><path d="m162.355469 141.683594c-28.691407 0-52.035157 23.339844-52.035157 52.03125 0 4.929687.703126 9.691406 1.988282 14.214844h30.886718v34.148437c5.933594 2.359375 12.394532 3.671875 19.160157 3.671875 28.691406 0 52.035156-23.34375 52.035156-52.035156s-23.34375-52.03125-52.035156-52.03125zm0 0" fill="#ff9a00"/><path d="m349.730469 85.03125c-39.859375 0-74.769531 21.570312-93.691407 53.652344-.007812-.023438-.027343-.050782-.039062-.070313-18.921875-32.042969-53.808594-53.582031-93.640625-53.582031-59.9375 0-108.6875 48.75-108.6875 108.679688 0 59.929687 48.75 108.691406 108.6875 108.691406 39.832031 0 74.71875-21.539063 93.640625-53.582032.011719-.019531.03125-.046874.039062-.066406 18.921876 32.078125 53.832032 53.648438 93.691407 53.648438 59.929687 0 108.691406-48.761719 108.691406-108.691406 0-59.929688-48.761719-108.679688-108.691406-108.679688zm-187.371094 187.371094c-43.390625 0-78.6875-35.300782-78.6875-78.691406 0-43.378907 35.296875-78.679688 78.6875-78.679688 43.378906 0 78.679687 35.300781 78.679687 78.679688 0 43.390624-35.300781 78.691406-78.679687 78.691406zm187.371094 0c-43.390625 0-78.691407-35.300782-78.691407-78.691406 0-43.378907 35.300782-78.679688 78.691407-78.679688s78.691406 35.300781 78.691406 78.679688c0 43.390624-35.300781 78.691406-78.691406 78.691406zm0 0" fill="#ffdb2d"/><path d="m349.730469 85.03125c-39.859375 0-74.769531 21.570312-93.691407 53.652344-.007812-.023438-.027343-.050782-.039062-.070313v110.207031c.011719-.019531.03125-.046874.039062-.066406 18.921876 32.078125 53.832032 53.648438 93.691407 53.648438 59.929687 0 108.691406-48.761719 108.691406-108.691406 0-59.929688-48.761719-108.679688-108.691406-108.679688zm0 187.371094c-43.390625 0-78.691407-35.300782-78.691407-78.691406 0-43.378907 35.300782-78.679688 78.691407-78.679688s78.691406 35.300781 78.691406 78.679688c0 43.390624-35.300781 78.691406-78.691406 78.691406zm0 0" fill="#ffaa20"/></svg>