<svg height="512pt" viewBox="0 0 512 512" width="512pt" xmlns="http://www.w3.org/2000/svg"><path d="m383.28125 361.601562c-7.640625 16.820313-14.230469 31.347657-15.058594 39.597657-.273437 2.742187-.5 5.730469-.75 8.902343-2.75 35.609376-7.871094 101.898438-111.710937 101.898438h-.011719c-103.828125 0-108.949219-66.289062-111.699219-101.898438-.25-3.171874-.480469-6.160156-.75-8.902343-.828125-8.25-7.417969-22.777344-15.058593-39.597657-19.53125-43.011718-49.042969-108.023437-35.640626-184.492187 8.429688-48.089844 39.949219-82.238281 91.160157-98.75 34.417969-11.097656 66.480469-10.480469 71.988281-10.28125h.011719c5.488281-.207031 37.570312-.828125 72 10.28125 51.210937 16.511719 82.730469 50.660156 91.160156 98.75 13.398437 76.46875-16.109375 141.480469-35.640625 184.492187zm0 0" fill="#ffdba9"/><path d="m383.28125 361.601562c-7.640625 16.820313-14.230469 31.347657-15.058594 39.597657-.273437 2.742187-.5 5.730469-.75 8.902343-2.75 35.609376-7.871094 101.898438-111.710937 101.898438h-.011719v-443.921875h.011719c5.488281-.207031 37.570312-.828125 72 10.28125 51.210937 16.511719 82.730469 50.660156 91.160156 98.75 13.398437 76.46875-16.109375 141.480469-35.640625 184.492187zm0 0" fill="#ffc473"/><path d="m174.894531 159.90625-25.265625-42.855469 1.652344-1.3125-9.34375-11.734375-9.347656-11.734375-132.589844 105.59375 23.746094 9.660157c1.199218.484374 29.742187 11.953124 63.625 13.300781 2.203125.085937 4.378906.132812 6.527344.132812 44.464843-.003906 77.050781-18.746093 94.480468-54.476562zm0 0" fill="#ff9a00"/><path d="m378.089844 91.71875-18.691406 23.46875 1.652343 1.3125-25.621093 43.460938-13.480469 6.574218c17.585937 36.058594 50.472656 54.976563 95.359375 54.972656 2.164062 0 4.367187-.042968 6.585937-.132812 34.21875-1.363281 63.046875-12.941406 64.257813-13.433594l23.746094-9.660156zm0 0" fill="#e67500"/><path d="m302.261719 392.5c0 20.300781-13.222657 37.558594-31.5 43.640625v20.859375h-30v-21.191406c-17.761719-6.378906-30.5-23.378906-30.5-43.308594h30c0 8.648438 6.898437 15.71875 15.488281 15.988281.171875.011719.339844.011719.511719.011719 8.820312 0 16-7.179688 16-16zm0 0" fill="#ff9a00"/><path d="m212.496094 269.167969c0 10.214843-8.285156 18.5-18.5 18.5-10.21875 0-18.5-8.285157-18.5-18.5 0-10.21875 8.28125-18.5 18.5-18.5 10.214844 0 18.5 8.28125 18.5 18.5zm0 0" fill="#ff9a00"/><path d="m336.027344 269.167969c0 10.214843-8.285156 18.5-18.5 18.5-10.21875 0-18.5-8.285157-18.5-18.5 0-10.21875 8.28125-18.5 18.5-18.5 10.214844 0 18.5 8.28125 18.5 18.5zm0 0" fill="#e67500"/><path d="m272.261719 392.5h30c0 20.300781-13.222657 37.558594-31.5 43.640625v20.859375h-15.011719v-48.511719c.171875.011719.339844.011719.511719.011719 8.820312 0 16-7.179688 16-16zm0 0" fill="#e67500"/><path d="m386.78125 109.378906c0 28.082032-21.070312 51.339844-48.242188 54.78125-6.15625 14.789063-20.71875 25.039063-37.71875 25.039063-.640624 0-1.269531-.019531-1.910156-.050781-9.558594 14.042968-25.628906 22.851562-43.148437 22.851562h-.011719c-17.519531 0-33.578125-8.808594-43.140625-22.851562-.636719.03125-1.269531.050781-1.910156.050781-17 0-31.558594-10.25-37.71875-25.039063-27.167969-3.441406-48.238281-26.699218-48.238281-54.78125 0-27.898437 20.808593-51.039062 47.730468-54.699218 5.707032-15.019532 20.027344-25.820313 36.886719-26.371094 8.78125-16.988282 26.542969-28.308594 46.390625-28.308594h.011719c19.847656 0 37.621093 11.320312 46.398437 28.308594 16.859375.550781 31.179688 11.351562 36.890625 26.371094 26.917969 3.660156 47.730469 26.800781 47.730469 54.699218zm0 0" fill="#fff5cb"/><path d="m386.78125 109.378906c0 28.082032-21.070312 51.339844-48.242188 54.78125-6.15625 14.789063-20.71875 25.039063-37.71875 25.039063-.640624 0-1.269531-.019531-1.910156-.050781-9.558594 14.042968-25.628906 22.851562-43.148437 22.851562h-.011719v-212h.011719c19.847656 0 37.621093 11.320312 46.398437 28.308594 16.859375.550781 31.179688 11.351562 36.890625 26.371094 26.917969 3.660156 47.730469 26.800781 47.730469 54.699218zm0 0" fill="#ffdba9"/></svg>