<svg height="512pt" viewBox="0 0 512.0002 512" width="512pt" xmlns="http://www.w3.org/2000/svg"><path d="m424.515625 267.855469-14.769531 1.769531-72.644532 32.257812-26.972656-75.164062-8.917968-11.914062c40.234374-30.136719 78.832031-40.691407 80.449218-41.125l11.28125-3.027344 5.613282 10.238281c.8125 1.476563 19.980468 36.851563 25.960937 86.964844zm0 0" fill="#ff73af"/><path d="m424.515625 267.855469-14.769531 1.769531-72.644532 32.257812 55.839844-131.230468 5.613282 10.238281c.8125 1.476563 19.980468 36.851563 25.960937 86.964844zm0 0" fill="#ff318e"/><path d="m210.804688 214.785156-8.917969 11.914063-26.972657 75.183593-72.625-32.25-14.769531-1.765624c5.992188-50.125 25.148438-85.5 25.960938-86.976563l5.613281-10.238281 11.28125 3.023437c1.617188.429688 40.203125 10.984375 80.429688 41.109375zm0 0" fill="#ff73af"/><path d="m210.804688 214.785156-8.917969 11.914063-26.972657 75.183593-55.820312-131.230468 11.28125 3.023437c1.617188.429688 40.203125 10.984375 80.429688 41.109375zm0 0" fill="#ff318e"/><path d="m264.042969 493.472656c-.347657 2.28125-.605469 3.609375-.65625 3.839844l-.195313 1.011719-.925781 4.5625-.058594.277343-.773437 3.851563-4.039063.8125-1.25.246094-.148437.03125-4.265625.863281c-.019531 0-.039063.007812-.066407.007812-1.855468.367188-27.816406 5.277344-63.023437.816407-47.464844-6.054688-89.753906-26.449219-122.300781-58.996094-9.046875-9.046875-17.25-18.945313-24.570313-29.597656-3.371093-4.921875-6.554687-10-9.542969-15.21875-12.804687-22.378907-22.011718-47.496094-27.238281-74.585938-.378906-1.914062-.734375-3.847656-1.0625-5.792969-6.339843-37.230468-3.132812-64.933593-2.984375-66.09375l1.398438-11.597656 11.574218-1.390625c1.171876-.148437 28.886719-3.363281 66.105469 2.988281 1.957031.335938 3.890625.683594 5.816407 1.058594 27.078124 5.230469 52.195312 14.445313 74.574218 27.230469 1.488282.855469 2.957032 1.71875 4.414063 2.601563 3.679687 2.222656 7.28125 4.542968 10.792969 6.964843 10.65625 7.300781 20.566406 15.511719 29.609374 24.558594 23.582032 23.578125 40.792969 52.289063 50.769532 84.378906 3.800781 12.191407 6.546875 24.867188 8.207031 37.933594 3.601563 28.277344 1.128906 50.597656-.160156 59.238281zm0 0" fill="#ff73af"/><path d="m205.226562 311.917969c32.539063 32.539062 52.9375 74.835937 58.972657 122.308593 4.550781 35.753907-.589844 61.980469-.808594 63.082032l-.203125 1.015625-.917969 4.566406-.066406.273437-.769531 3.84375-259.09375-259.097656 11.578125-1.394531c1.171875-.148437 28.878906-3.359375 66.105469 2.988281 1.949218.335938 3.886718.6875 5.816406 1.058594 27.074218 5.234375 52.191406 14.441406 74.566406 27.238281 5.226562 2.992188 10.304688 6.179688 15.214844 9.558594 10.65625 7.304687 20.558594 15.511719 29.605468 24.558594zm0 0" fill="#ff318e"/><path d="m445.652344 450.746094c-32.539063 32.539062-74.835938 52.9375-122.308594 58.96875-35.75 4.550781-61.976562-.589844-63.078125-.808594l-1.019531-.203125-4.5625-.917969-.273438-.0625-3.84375-.773437-.816406-4.039063-1.140625-5.660156c-.21875-1.101562-5.359375-27.328125-.824219-63.09375 6.046875-47.460938 26.445313-89.757812 58.984375-122.296875 9.046875-9.046875 18.953125-17.253906 29.609375-24.570313 4.914063-3.375 9.992188-6.558593 15.210938-9.546874 22.382812-12.800782 47.503906-22.011719 74.59375-27.242188 1.914062-.371094 3.84375-.730469 5.785156-1.058594 37.234375-6.339844 64.9375-3.128906 66.105469-2.988281l11.585937 1.402344 1.398438 11.582031c.144531 1.171875 3.359375 28.878906-2.988282 66.101562-.339843 1.953126-.6875 3.886719-1.0625 5.816407-5.230468 27.074219-14.441406 52.195312-27.234374 74.570312-2.996094 5.226563-6.179688 10.304688-9.5625 15.214844-7.300782 10.652344-15.507813 20.554687-24.558594 29.605469zm0 0" fill="#ff73af"/><path d="m508.070312 325.539062c-.335937 1.945313-.695312 3.890626-1.0625 5.816407-5.238281 27.070312-14.441406 52.195312-27.238281 74.566406-2.996093 5.226563-6.179687 10.304687-9.5625 15.214844-7.300781 10.65625-15.503906 20.554687-24.550781 29.609375-32.539062 32.539062-74.835938 52.933594-122.3125 58.964844-34.757812 4.425781-60.519531-.308594-62.929688-.773438-.070312-.011719-.121093-.019531-.148437-.03125l-1.015625-.207031-3.101562-.625-.152344-.019531-1.316406-.269532-.269532-.070312-3.847656-.761719 259.09375-259.09375 1.398438 11.574219c.148437 1.171875 3.363281 28.878906-2.984376 66.105468zm0 0" fill="#ff318e"/><path d="m354.203125 334.171875c0 31.34375-7.191406 61.917969-21.039063 90.179687-6.46875 13.222657-14.414062 25.941407-23.75 38.003907-22.058593 28.496093-44.242187 43.40625-45.171874 44.03125l-.863282.574219-2.96875 1.976562c-.066406-.011719-.117187-.019531-.148437-.03125l-1.011719-.210938-3.105469-.625-.148437.03125-4.265625.863282c-.019531 0-.039063.011718-.066407.011718l-3.910156-2.589843c-.929687-.625-23.113281-15.535157-45.195312-44.035157-29.28125-37.832031-44.765625-82.164062-44.765625-128.183593 0-12.796875 1.199219-25.601563 3.558593-38.308594.964844-5.179687 2.125-10.335937 3.472657-15.464844.167969-.683593.347656-1.371093.535156-2.042969 6.777344-24.878906 18.027344-49.152343 33.480469-72.007812 1.089844-1.617188 2.203125-3.234375 3.34375-4.84375 21.84375-30.808594 43.707031-48.128906 44.628906-48.855469l9.1875-7.199219 9.175781 7.199219c.929688.726563 22.792969 18.046875 44.628907 48.855469 1.140624 1.617188 2.261718 3.234375 3.363281 4.863281 15.445312 22.84375 26.695312 47.117188 33.46875 71.988281 1.578125 5.8125 2.914062 11.65625 3.996093 17.515626 2.371094 12.699218 3.570313 25.507812 3.570313 38.304687zm0 0" fill="#ff73af"/><path d="m354.203125 334.171875c0 31.34375-7.191406 61.917969-21.039063 90.179687-6.46875 13.222657-14.414062 25.941407-23.75 38.003907-22.058593 28.496093-44.242187 43.40625-45.171874 44.03125l-.863282.574219-2.96875 1.976562c-.066406-.011719-.117187-.019531-.148437-.03125l-1.011719-.210938-3.105469-.625-.148437.03125v-362.65625l9.175781 7.203126c.933594.722656 22.796875 18.042968 44.628906 48.855468 1.140625 1.617188 2.261719 3.234375 3.363281 4.859375 15.445313 22.847657 26.695313 47.121094 33.46875 71.988281 1.578126 5.8125 2.917969 11.65625 4 17.519532 2.371094 12.695312 3.570313 25.503906 3.570313 38.300781zm0 0" fill="#ff318e"/><path d="m155.472656 63.65625c-24.828125 0-45.027344 20.199219-45.027344 45.023438 0 24.828124 20.199219 45.027343 45.027344 45.027343s45.027344-20.199219 45.027344-45.027343c0-24.824219-20.199219-45.023438-45.027344-45.023438zm0 0" fill="#ffdb2d"/><path d="m401.546875 108.679688c0 24.832031-20.199219 45.03125-45.019531 45.03125-24.828125 0-45.027344-20.199219-45.027344-45.03125 0-3.089844.308594-6.109376.90625-9.027344 1.023438-4.972656 2.851562-9.640625 5.363281-13.871094 7.847657-13.242188 22.289063-22.128906 38.757813-22.128906 24.820312 0 45.019531 20.199218 45.019531 45.027344zm0 0" fill="#ffaa20"/><path d="m301.027344 45.03125c0 24.828125-20.199219 45.03125-45.03125 45.03125-24.828125 0-45.027344-20.203125-45.027344-45.03125 0-24.832031 20.199219-45.03125 45.027344-45.03125 24.832031 0 45.03125 20.199219 45.03125 45.03125zm0 0" fill="#ffdb2d"/><path d="m301.027344 45.03125c0 24.828125-20.199219 45.03125-45.03125 45.03125v-90.0625c24.832031 0 45.03125 20.199219 45.03125 45.03125zm0 0" fill="#ffaa20"/></svg>