<svg height="512pt" viewBox="-46 0 512 512" width="512pt" xmlns="http://www.w3.org/2000/svg"><path d="m419.511719 209.757812v302.242188l-47.597657-32.414062-32.304687 22.203124-32.144531-22.203124-32.574219 22.140624-32.398437-22.164062-28.761719 19.539062-3.832031 2.605469-32.476563-22.113281-32.15625 22.203125-32.171875-22.210937-32.660156 22.132812-32.425782-22.195312-48.007812 32.253906v-302.019532c0-115.660156 94.097656-209.757812 209.757812-209.757812 1.324219 0 2.652344.0117188 3.972657.0390625 113.835937 2.1249995 205.78125 95.3867185 205.78125 209.7187495zm0 0" fill="#c5c9f7"/><path d="m419.511719 209.757812v302.242188l-47.597657-32.414062-32.304687 22.203124-32.144531-22.203124-32.574219 22.140624-32.398437-22.164062-28.761719 19.539062v-499.0624995c113.835937 2.1249995 205.78125 95.3867185 205.78125 209.7187495zm0 0" fill="#a7aff2"/><path d="m132.167969 152.40625c-30.328125 0-55 24.671875-55 54.996094 0 30.328125 24.671875 55 55 55 30.324219 0 54.996093-24.671875 54.996093-55 0-30.324219-24.671874-54.996094-54.996093-54.996094zm0 0" fill="#4b5be6"/><path d="m287.34375 152.40625c-30.324219 0-54.996094 24.671875-54.996094 54.996094 0 30.328125 24.671875 55 54.996094 55 30.328125 0 55-24.671875 55-55 0-30.324219-24.671875-54.996094-55-54.996094zm0 0" fill="#283ee1"/></svg>