<?xml version="1.0" encoding="UTF-8"?>
<svg width="136px" height="201px" viewBox="0 0 136 201" version="1.1" xmlns="http://www.w3.org/2000/svg" xmlns:xlink="http://www.w3.org/1999/xlink" style="background: #FFFFFF;">
    <!-- Generator: Sketch 52.3 (67297) - http://www.bohemiancoding.com/sketch -->
    <title>Untitled</title>
    <desc>Created with Sketch.</desc>
    <g id="Page-1" stroke="none" stroke-width="1" fill="none" fill-rule="evenodd">
        <g id="5bea563cd9db8" fill="#000000" fill-rule="nonzero">
            <g id="Group" transform="translate(68.000000, 100.500000) scale(-1, 1) rotate(-180.000000) translate(-68.000000, -100.500000) ">
                <path d="M66.0586319,200.807492 C58.0846906,199.716612 43.8045603,192.272959 32.5211726,183.332021 C22.6449511,175.481962 15.5309446,167.332447 8.85993485,156.231138 C5.36807818,150.391721 2.42345277,143.782271 1.1465798,138.905395 C0,134.477706 0,134.734383 0,90.7783335 C0,50.5654996 0.0781758958,46.6297755 0.781758958,42.7582207 C2.84039088,31.7638608 10.5016287,21.0475684 21.9153094,13.1975098 C36.5863192,3.12291157 58.1889251,-1.68979462 78.9055375,0.534745131 C99.8045603,2.75928488 118.983713,13.1975098 128.938111,27.6997978 C132.977199,33.5819943 135.114007,39.763648 135.791531,47.4639779 C135.947883,49.4960094 136.026059,65.1533468 135.947883,92.810365 C135.869707,134.648824 135.869707,135.07662 135.322476,137.30116 C132.013029,150.926466 122.996743,165.193466 109.70684,177.834841 C105.667752,181.685006 103.921824,183.118123 99.3355049,186.390763 C92.6644951,191.16069 87.4006515,194.283601 81.6677524,196.850378 C78.019544,198.497393 72.6775244,200.294136 70.1758958,200.721933 C68.2214984,201.064169 67.9609121,201.064169 66.0586319,200.807492 Z M71.504886,195.673938 C80.7296417,193.085772 91.4397394,186.861339 101.915309,177.98457 C114.058632,167.738853 122.058632,156.958391 127.687296,143.290305 C129.14658,139.739598 129.276873,138.541769 128.390879,137.044482 C128,136.424178 126.85342,135.09801 125.811075,134.092689 C123.986971,132.381505 121.302932,129.536661 112.990228,120.510163 C110.931596,118.285623 108.872964,116.168032 108.456026,115.825795 L107.674267,115.226881 L107.700326,125.451208 C107.752443,136.509737 107.596091,138.627328 106.423453,143.055018 C103.947883,152.231244 98.0065147,159.418219 88.8078176,164.402043 C83.4136808,167.311057 77.6807818,168.979462 70.9055375,169.621156 C68.0130293,169.877833 65.276873,169.792274 61.3159609,169.278919 C52.1433225,168.08109 42.7882736,163.204214 36.9250814,156.530595 C34.8925081,154.220496 32.2084691,149.856976 31.0358306,146.969352 C30.0456026,144.530914 29.029316,140.167394 28.6644951,136.766415 C28.5081433,135.354688 28.3778502,130.285304 28.3778502,125.493987 C28.4039088,117.323082 28.3778502,116.788337 27.9348534,116.916676 C26.3713355,117.365861 20.5081433,119.825689 16.2084691,121.857721 C13.4201954,123.162499 10.3452769,124.488667 9.35504886,124.809514 C6.8534202,125.622326 5.5504886,126.563478 5.34201954,127.739917 C5.15960912,128.659679 5.70684039,132.89486 6.41042345,136.23167 C8.62540717,146.605725 16.0521173,159.439608 26.1628664,170.348409 C33.771987,178.562094 45.9674267,187.695541 55.7394137,192.486858 C59.1530945,194.176652 61.3680782,194.989465 64.6254072,195.780888 C67.5439739,196.486751 68.6644951,196.465361 71.504886,195.673938 Z M74.6579805,164.958178 C86.4625407,163.097265 96.781759,154.584123 100.534202,143.611152 C101.52443,140.744919 101.758958,139.183463 101.732899,135.483026 C101.732899,132.595403 101.602606,131.397574 101.159609,129.664999 C99.5700326,123.611685 96.3648208,118.67064 91.2052117,114.392679 C87.0358306,110.94892 83.2312704,108.959668 78.1498371,107.547941 C71.5309446,105.729807 63.7915309,105.815367 56.8859935,107.804618 C47.4006515,110.521124 39.7394137,117.151963 36.3778502,125.536767 C34.9185668,129.130254 34.6319218,130.627541 34.47557,134.841332 C34.3713355,138.113973 34.4234528,139.076514 34.8925081,141.258274 C35.8306189,145.771523 38.1237785,150.413111 41.1205212,153.899649 C42.7882736,155.824731 46.019544,158.498457 48.495114,160.038523 C55.6351792,164.402043 65.9543974,166.348515 74.6579805,164.958178 Z M130.631922,101.751304 C130.736156,52.4264127 130.710098,50.3729914 130.345277,47.6778759 C129.876221,44.2768969 129.381107,42.0523571 128.416938,38.8438863 C127.713355,36.5551772 127.530945,36.1273811 127.087948,36.1273811 C126.749186,36.1273811 126.462541,36.4054485 126.175896,37.0471427 C124.899023,39.8278174 118.983713,48.3623497 114.47557,53.9664787 C107.517915,62.5651804 96,74.5006917 89.0684039,80.2545493 C87.5570033,81.5165478 86.1758958,82.821326 86.0456026,83.142173 C85.6807818,84.0405449 86.2019544,85.0458657 88,86.8426093 C89.6416938,88.4896243 105.433225,105.302011 113.485342,113.986272 C116.065147,116.745557 119.791531,120.702671 121.798046,122.756092 C123.778502,124.809514 126.410423,127.632968 127.635179,129.023305 C128.833876,130.392253 130.006515,131.525913 130.188925,131.525913 C130.501629,131.525913 130.553746,126.884325 130.631922,101.751304 Z M8.18241042,120.445993 C10.5537459,119.526232 22.0456026,114.371289 28.8990228,111.141428 C54.7752443,98.9920187 74.1889251,87.0565074 87.9218241,74.8857082 C93.1335505,70.2869001 95.6872964,67.7415132 101.34202,61.5812493 C108.612378,53.6456316 113.876221,46.9292327 119.530945,38.2663616 C122.762215,33.3253166 123.309446,32.2772161 123.439739,30.6729807 C123.596091,29.1543046 123.23127,28.4912206 120.364821,25.1758008 C115.387622,19.4219432 107.022801,13.7536448 98.0325733,10.0745983 C89.0944625,6.41694158 80.990228,4.81270618 70.0977199,4.53463871 C56.4429967,4.19240183 44.5081433,6.69500905 32.8338762,12.3846972 C31.1400651,13.1975098 29.4983713,13.8819836 29.2117264,13.8819836 C28.8729642,13.8819836 28.742671,13.9889326 28.8208469,14.1600511 C28.8990228,14.3311695 27.8306189,15.1867617 26.1368078,16.3418112 C22.6188925,18.7160796 18.8925081,21.6678727 16.9381107,23.614345 C11.9609121,28.5981696 8.02605863,35.3787379 6.54071661,41.4748324 C5.39413681,46.351708 5.34201954,46.9506225 5.34201954,58.2658295 C5.34201954,98.7995105 5.49837134,121.258806 5.75895765,121.258806 C5.91530945,121.258806 7.00977199,120.895179 8.18241042,120.445993 Z M101.863192,113.237629 C101.889251,108.681601 101.758958,108.339364 98.9446254,105.49452 C96.5211726,103.034692 88.6514658,94.6284985 85.9413681,91.6125359 C84.6905537,90.2221986 83.0228013,88.5537938 82.2410423,87.9120996 L80.8078176,86.7356603 L79.0358306,88.0190486 C74.2149837,91.5269767 64.8859935,97.4519528 60.0912052,100.040119 C57.3550489,101.537406 54.3583062,103.483878 54.5407166,103.633606 C54.5928339,103.676386 55.2964169,103.526657 56.1042345,103.312759 C65.276873,100.724593 76.7166124,101.537406 86.0716612,105.47313 C92.4820847,108.168245 97.1205212,111.847292 100.742671,117.087794 C101.446254,118.114505 101.472313,118.135894 101.654723,117.622539 C101.758958,117.323082 101.837134,115.35522 101.863192,113.237629 Z M36.7166124,115.590508 C37.5504886,114.777695 39.009772,113.237629 39.9739414,112.210918 L41.7459283,110.328616 L40.6254072,110.713632 C39.0879479,111.205598 36.4820847,112.467596 35.465798,113.17346 C34.3973941,113.922103 34.1368078,114.563797 34.1368078,116.38193 L34.1368078,117.900607 L34.6840391,117.4942 C34.9967427,117.280302 35.9087948,116.42471 36.7166124,115.590508 Z" id="Shape"></path>
            </g>
        </g>
        <g id="noun_sleep-mask_1189074" transform="translate(33.000000, 58.000000)" fill="#000000" fill-rule="nonzero">
            <path d="M61.41,10.8838757 C60.95,15.1868032 56.58,18.8147618 50.945,19.7428442 C46.46,20.5021844 42.09,19.4897308 38.295,17.8866794 C35.995,16.8742258 33.12,16.8742258 30.82,17.8866794 C27.945,19.1522463 24.725,19.9959576 21.275,19.9959576 C13.57,19.9959576 7.36,15.3555455 7.705,9.61830872 C7.935,4.21855645 14.26,0 21.62,0 L47.955,0 C55.775,0 62.1,4.97789662 61.41,10.8838757 Z M0,6.74969033 L0,13.3306384 L5.865,13.3306384 C5.405,12.1494426 5.175,10.8838757 5.175,9.61830872 C5.175,8.60585517 5.52,7.67777275 5.865,6.74969033 L0,6.74969033 Z M63.135,6.74969033 C63.71,8.09962839 63.94,9.61830872 63.71,11.0526179 C63.595,11.8119581 63.365,12.5712982 63.135,13.3306384 L69,13.3306384 L69,6.74969033 L63.135,6.74969033 Z" id="Shape"></path>
        </g>
    </g>
</svg>