<svg height="512pt" viewBox="0 0 512 512" width="512pt" xmlns="http://www.w3.org/2000/svg"><path d="m35.476562 399.894531v112.105469h29.972657v-112.105469c20.53125-6.414062 35.476562-25.640625 35.476562-48.300781 0-11-3.535156-21.183594-9.507812-29.492188l59.675781-56.917968c7.457031 4.363281 16.117188 6.878906 25.359375 6.878906 13.976563 0 26.644531-5.730469 35.792969-14.964844l86.789062 18.785156c-.003906.292969-.019531.582032-.019531.871094 0 27.890625 22.636719 50.578125 50.460937 50.578125 27.824219 0 50.464844-22.6875 50.464844-50.578125 0-8.515625-2.121094-16.539062-5.84375-23.585937l51.511719-62.109375c4.828125 1.542968 9.964844 2.382812 15.292969 2.382812 27.824218 0 50.464844-22.691406 50.464844-50.578125s-22.640626-50.574219-50.464844-50.574219c-10.988282 0-21.160156 3.546876-29.453125 9.546876l-92.671875-46.253907c.121094-1.441406.199218-2.898437.199218-4.375 0-27.886719-22.636718-50.574219-50.460937-50.574219-27.828125 0-50.464844 22.6875-50.464844 50.574219 0 13.78125 5.535157 26.289063 14.484375 35.417969l-60.164062 86.882812c-5.007813-1.675781-10.355469-2.597656-15.917969-2.597656-27.824219 0-50.464844 22.6875-50.464844 50.578125 0 7.710938 1.738281 15.023438 4.832031 21.570313l-63.738281 60.792968c-5.207031-1.828124-10.796875-2.832031-16.621093-2.832031-27.824219 0-50.460938 22.6875-50.460938 50.574219 0 22.660156 14.949219 41.886719 35.476562 48.300781zm377.757813-273.59375c-1.800781 5.195313-2.792969 10.761719-2.792969 16.5625 0 11.625 3.945313 22.339844 10.546875 30.890625l-48.230469 58.152344c-6.972656-3.648438-14.886718-5.726562-23.28125-5.726562-16.828124 0-31.746093 8.308593-40.917968 21.035156l-82.265625-17.804688c.40625-2.582031.621093-5.226562.621093-7.921875 0-11.425781-3.800781-21.972656-10.199218-30.449219l62.421875-90.144531c3.042969.574219 6.171875.890625 9.378906.890625 15.609375 0 29.585937-7.144531 38.851563-18.339844zm0 0"/><path d="m298.875 407.660156-21.1875-21.1875-15.625 15.628906v-36.929687h-29.964844v36.929687l-15.625-15.628906-21.1875 21.1875 15.628906 15.628906h-36.929687v29.960938h36.929687l-15.628906 15.628906 21.1875 21.183594 15.625-15.625v36.929688h29.964844v-36.929688l15.625 15.625 21.1875-21.183594-15.625-15.628906h36.929688v-29.960938h-36.929688zm0 0"/><path d="m399.921875 423.128906h29.96875v29.960938h-29.96875zm0 0"/><path d="m35.46875 128.164062h29.964844v29.960938h-29.964844zm0 0"/><path d="m445.808594 359.015625h29.964844v29.964844h-29.964844zm0 0"/><path d="m122.769531 0h-29.960937v32.105469h-32.105469v29.960937h32.105469v32.109375h29.960937v-32.109375h32.105469v-29.960937h-32.105469zm0 0"/></svg>