<svg height="512pt" viewBox="0 0 512 512" width="512pt" xmlns="http://www.w3.org/2000/svg"><path d="m512 0h-512v512h512zm-273.496094 80v161h-161v-23.492188l19.71875-10.796874 32.96875 19.375 19.878906-32.667969 38.273438.308593.832031-38.25 33.304688-18.832031-18.382813-33.566406 13.5625-23.078125zm-161 37.191406c4.507813 3.574219 10.199219 5.71875 16.386719 5.71875 14.558594 0 26.40625-11.84375 26.40625-26.40625 0-6.242187-2.179687-11.980468-5.8125-16.503906h33.34375c1.601563 5.222656 2.46875 10.765625 2.46875 16.503906 0 31.105469-25.304687 56.40625-56.40625 56.40625-5.699219 0-11.199219-.855468-16.386719-2.433594zm0 293.894532c4.257813 1.394531 8.800782 2.160156 13.519532 2.160156h88.605468c21.027344 0 38.132813-17.109375 38.132813-38.136719 0-18.539063-13.304688-34.035156-30.867188-37.4375-4.550781-12.9375-15.296875-22.980469-28.664062-26.546875-5.664063-16.484375-21.324219-28.367188-39.707031-28.367188h-.535157c-19.324219 0-35.625 13.128907-40.484375 30.929688v-42.6875h161v161h-161zm191-140.085938h161v161h-161zm161-126.621094c-2.855468-1.363281-5.90625-2.386718-9.097656-3.007812-4.550781-12.9375-15.300781-22.980469-28.667969-26.546875-5.660156-16.484375-21.320312-28.367188-39.703125-28.367188h-.539062c-23.140625 0-41.964844 18.824219-41.964844 41.964844v1.632813c-16.628906 6.121093-28.515625 22.125-28.515625 40.851562v2.523438c0 23.996093 19.519531 43.515624 43.515625 43.515624h88.605469c5.855469 0 11.402343-1.328124 16.367187-3.699218v27.753906h-161v-161h161zm0 0"/></svg>