<svg height="512pt" viewBox="0 0 512 512" width="512pt" xmlns="http://www.w3.org/2000/svg"><path d="m0 436.867188c0 41.429687 33.644531 75.132812 75.003906 75.132812h361.992188c41.359375 0 75.003906-33.703125 75.003906-75.132812v-15.023438h-184.402344c24.429688-16.199219 44.394532-38.09375 58.207032-63.808594h31.414062c52.261719 0 94.78125-42.589844 94.78125-94.941406 0-48.539062-36.550781-88.679688-83.527344-94.273438h-374.640625v105.515626c0 61.542968 31.5625 115.835937 79.320313 147.507812h-133.152344zm384.882812-199.425782h31.273438c14.121094 0 25.609375 11.507813 25.609375 25.652344s-11.488281 25.652344-25.609375 25.652344h-31.273438zm0 0"/><path d="m53.832031 102.46875h352.980469v36.300781h-352.980469zm0 0"/><path d="m204.238281 28.113281c5.128907-4.878906 13.710938-13.054687 13.710938-28.113281h-30c0 1.820312-.132813 2.292969-4.378907 6.335938-5.125 4.882812-13.710937 13.054687-13.710937 28.113281 0 15.058593 8.585937 23.234375 13.710937 28.113281 4.246094 4.042969 4.378907 4.515625 4.378907 6.335938h30c0-15.058594-8.582031-23.234376-13.710938-28.117188-4.242187-4.039062-4.378906-4.511719-4.378906-6.332031 0-1.820313.136719-2.292969 4.378906-6.335938zm0 0"/><path d="m268.515625 28.113281c5.128906-4.878906 13.710937-13.054687 13.710937-28.113281h-30c0 1.820312-.132812 2.292969-4.378906 6.335938-5.128906 4.882812-13.710937 13.054687-13.710937 28.113281 0 15.058593 8.582031 23.234375 13.710937 28.117187 4.246094 4.039063 4.378906 4.511719 4.378906 6.332032h30c0-15.058594-8.582031-23.234376-13.710937-28.117188-4.246094-4.039062-4.378906-4.511719-4.378906-6.332031 0-1.820313.132812-2.292969 4.378906-6.335938zm0 0"/></svg>