<svg height="512pt" viewBox="0 0 512 512" width="512pt" xmlns="http://www.w3.org/2000/svg"><path d="m29.96875 372.367188c0 60.894531 49.324219 110.476562 110.117188 110.910156v28.722656h30v-28.714844h171.828124v28.714844h30v-28.726562c60.792969-.429688 110.117188-50.011719 110.117188-110.90625v-61.363282h29.96875v-30h-420v-204.003906c0-25.914062 21.085938-47 47-47 20.988281 0 38.648438 13.492188 44.730469 32.449219-30.378907 7.652343-53.972657 32.503906-59.816407 63.550781h-16.914062v30h195v-30h-18.914062c-6.40625-34.054688-34.179688-60.636719-68.816407-65.261719-3.164062-14.746093-10.585937-28.257812-21.621093-38.976562-14.449219-14.03125-33.503907-21.761719-53.648438-21.761719-42.457031 0-77 34.542969-77 77v204.003906h-62v30h29.96875zm0 0"/><path d="m252.503906 179.285156h30v40.003906h-30zm0 0"/><path d="m191.496094 259.292969v-40.003907h-29v-40.003906h-30v40.003906h29v40.003907zm0 0"/><path d="m251.5 259.292969v-40.003907h-29v-40.003906h-30v40.003906h29v40.003907zm0 0"/></svg>