<svg height="512pt" viewBox="0 -65 512 512" width="512pt" xmlns="http://www.w3.org/2000/svg"><path d="m301.4375 83.21875h102.734375v49.296875h-102.734375zm0 0"/><path d="m107.828125 83.21875h102.734375v49.296875h-102.734375zm0 0"/><path d="m77.828125 133.984375v-80.765625h162.734375v79.296875h30.875v-79.296875h162.734375v80.765625c18.933594 3.164063 36.191406 11.34375 50.355469 23.125v-157.109375h-457.054688v157.109375c14.164063-11.78125 31.421875-19.960937 50.355469-23.125zm0 0"/><path d="m493.367188 229.242188c-4.796876-38.128907-37.398438-67.726563-76.808594-67.726563h-321.117188c-39.410156 0-72.011718 29.597656-76.808594 67.726563zm0 0"/><path d="m0 259.242188v122.597656h30v-37.195313h452v37.195313h30v-122.597656zm0 0"/></svg>