<svg height="512pt" viewBox="-105 0 512 512" width="512pt" xmlns="http://www.w3.org/2000/svg"><path d="m179.808594 139.253906 8.03125 8.003906-8.03125 8 70.144531 69.894532c16.972656-21.457032 27.113281-48.519532 27.113281-77.898438 0-29.375-10.140625-56.4375-27.113281-77.894531zm0 0"/><path d="m142.53125 118.117188 8.03125-8.003907 8.035156 8.003907 70.140625-69.894532c-17.824219-14-39.511719-23.328125-63.175781-26.125v-22.097656h-30v22.097656c-23.664062 2.796875-45.347656 12.125-63.175781 26.125zm24.167969-31.621094c-8.410157 0-14.636719-6.847656-15-14.945313-.363281-8.074219 7.152343-14.949219 15-14.949219 8.410156 0 14.636719 6.847657 15 14.949219.363281 8.070313-7.152344 14.945313-15 14.945313zm0 0"/><path d="m121.316406 155.261719-8.03125-8.003907 8.03125-8.003906-70.144531-69.894531c-16.972656 21.457031-27.113281 48.519531-27.113281 77.898437 0 29.375 10.140625 56.4375 27.113281 77.894532zm-30.222656 4.769531c.363281 8.070312-7.152344 14.945312-15 14.945312-8.40625 0-14.632812-6.847656-15-14.945312-.363281-8.074219 7.15625-14.945312 15-14.945312 8.410156 0 14.636719 6.847656 15 14.945312zm0 0"/><path d="m289.222656 510.414062 6.777344-21.703124c.570312-1.832032 13.851562-45.363282.617188-91.21875-7.019532-24.324219-15.550782-44.484376-24.667969-58.300782-8.546875-12.953125-16.820313-19.035156-24.074219-21.386718l-28.585938-64.773438c3.257813-2.109375 6.410157-4.355469 9.449219-6.742188l-70.144531-69.894531-8.03125 8.003907-8.03125-8-70.144531 69.890624c3.363281 2.640626 6.867187 5.113282 10.492187 7.410157l-28.28125 64.082031c-10.105468 3.300781-18.328125 12.691406-24.082031 21.410156-9.117187 13.816406-17.648437 33.976563-24.667969 58.300782-13.230468 45.855468.046875 89.386718.621094 91.21875l6.777344 21.703124 17.3125-14.800781c1.457031-1.25 35.914062-31.105469 49.148437-76.960937 7.019531-24.324219 10.539063-45.921875 10.175781-62.453125-.289062-13.335938-3.121093-22.253907-7.023437-28.199219l27.082031-61.359375c8.199219 2.773437 16.773438 4.726563 25.621094 5.773437v21.050782c-21.148438 11.609375-33.746094 48.890625-33.746094 103.007812 0 55.453125 35.617188 99.515625 37.132813 101.367188l11.613281 14.160156 11.617188-14.160156c1.515624-1.851563 37.132812-45.914063 37.132812-101.367188 0-54.121094-12.597656-91.398437-33.75-103.007812v-21.050782c9.269531-1.097656 18.234375-3.195312 26.78125-6.183593l27.253906 61.753906c-5.21875 8.015625-6.8125 18.867187-7.015625 28.210937-.359375 16.535157 3.160157 38.132813 10.179688 62.457032 13.230469 45.855468 47.6875 75.710937 49.148437 76.957031zm0 0"/></svg>