<svg height="511pt" viewBox="1 -1 511.999 511" width="511pt" xmlns="http://www.w3.org/2000/svg"><path d="m99.039062 508.5h267.320313c45.65625 0 82.800781-37.144531 82.800781-82.800781 0-20.808594-7.78125-40.710938-21.917968-56.050781-14.054688-15.25-33.089844-24.640626-53.597657-26.433594l-10.679687-.929688-2.582032-10.40625c-8.929687-36.011718-38.292968-63.414062-74.804687-69.804687l-9.621094-1.683594-2.355469-9.480469c-10.484374-42.152344-48.144531-71.589844-91.585937-71.589844h-1.621094c-52.03125 0-94.359375 42.328126-94.359375 94.359376v29.28125l-11.320312 2.871093c-43.992188 11.152344-74.714844 50.636719-74.714844 96.019531v7.605469c0 54.613281 44.429688 99.042969 99.039062 99.042969zm0 0"/><path d="m182.015625 149.300781c27.894531 0 55.300781 9.550781 77.164063 26.890625 18.992187 15.0625 33.273437 35.515625 40.886718 58.316406 40.507813 10.355469 73.121094 40.605469 86.535156 80.195313 8.328126 1.515625 16.40625 3.980469 24.117188 7.285156 14.933594-6.792969 28.894531-15.800781 41.367188-26.847656 29.722656-26.332031 49.078124-62.394531 54.492187-101.546875l5.421875-39.175781-30.046875 25.714843c-19.183594 16.421876-43.667969 25.464844-68.949219 25.464844-58.503906 0-106.101562-47.597656-106.101562-106.101562 0-25.28125 9.042968-49.769532 25.460937-68.949219l25.71875-30.046875-39.175781 5.417969c-39.414062 5.453125-75.644531 24.996093-102.019531 55.03125-21.917969 24.957031-35.71875 55.757812-39.921875 88.402343 1.136718-.03125 2.28125-.050781 3.425781-.050781zm0 0"/></svg>