<svg height="512pt" viewBox="-61 0 512 512" width="512pt" xmlns="http://www.w3.org/2000/svg"><path d="m338.859375 311.390625c3.78125-11.59375 5.835937-23.96875 5.835937-36.816406h-299.230468c0 12.847656 2.054687 25.222656 5.835937 36.816406h-51.300781v35.320313c0 44.585937 27.214844 82.875 65.761719 98.871093-12.574219 13.457031-20.296875 31.523438-20.296875 51.375v15.042969h299.230468v-15.042969c0-19.851562-7.722656-37.917969-20.296874-51.375 38.550781-15.996093 65.761718-54.285156 65.761718-98.871093v-35.320313zm-185.601563 110.351563-48.652343 1.707031c-41.257813-.71875-74.605469-34.855469-74.605469-76.742188v-5.230469h36.097656c19.492188 28.5625 51.089844 48.1875 87.320313 51.386719-1.613281 4.597657-2.503907 9.53125-2.503907 14.675781 0 4.96875.832032 9.742188 2.34375 14.203126zm206.902344-75.03125c0 41.882812-33.347656 76.019531-74.605468 76.742187l-48.652344-1.710937c1.507812-4.460938 2.339844-9.234376 2.339844-14.203126 0-5.140624-.886719-10.078124-2.5-14.671874 36.230468-3.203126 67.828124-22.828126 87.320312-51.390626h36.097656zm0 0"/><path d="m249.421875 123.660156h-23.535156c12.316406-9.367187 20.292969-24.191406 20.292969-40.855468 0-15.546876-11.914063-33.945313-20.875-46.433594-9.390626-13.082032-18.675782-23.476563-19.066407-23.914063l-11.160156-12.457031-11.15625 12.457031c-.390625.4375-9.675781 10.832031-19.066406 23.914063-8.960938 12.488281-20.875 30.886718-20.875 46.433594 0 16.664062 7.972656 31.488281 20.292969 40.855468h-23.535157v120.832032h108.683594zm-54.34375 2.367188c-11.914063 0-21.605469-9.71875-21.605469-21.667969 0-6.253906 3.515625-13.347656 10.449219-21.089844l11.15625-12.457031 11.160156 12.457031c6.933594 7.742188 10.449219 14.835938 10.449219 21.089844 0 11.949219-9.691406 21.667969-21.609375 21.667969zm0 0"/></svg>