<svg height="512pt" viewBox="0 -47 512.001 512" width="512pt" xmlns="http://www.w3.org/2000/svg"><path d="m512 34.855469c0-9.3125-3.613281-18.0625-10.175781-24.648438-6.5625-6.582031-15.289063-10.207031-24.570313-10.207031s-18.007812 3.625-24.570312 10.207031l-8.699219 8.730469c-98.414063-17.539062-198.066406-17.546875-296.480469-.03125l-8.671875-8.699219c-13.546875-13.585937-35.59375-13.585937-49.140625 0-13.546875 13.589844-13.546875 35.703125 0 49.292969l4.871094 4.886719c-1.226562 6.996093-2.300781 13.894531-3.253906 20.738281 41.320312-5.945312 83.207031-8.964844 124.816406-8.964844 46.203125 0 92.753906 3.710938 138.488281 11.035156 11.78125-10.898437 26.988281-16.867187 43.109375-16.867187 17.003906 0 32.988282 6.640625 45.011719 18.703125 22.875 22.945312 24.660156 59.207031 5.335937 84.230469 6.992188 46.222656 8.378907 90.300781 4.203126 135.664062l.410156.414063c6.5625 6.582031 15.289062 10.207031 24.570312 10.207031s18.007813-3.625 24.570313-10.207031c6.5625-6.585938 10.175781-15.335938 10.175781-24.648438 0-9.308594-3.613281-18.0625-10.175781-24.644531l-5.253907-5.269531c11.4375-64.710938 11.503907-125.578125.210938-190.21875l5.042969-5.058594c6.5625-6.582031 10.175781-15.335938 10.175781-24.644531zm0 0"/><path d="m417.035156 354.105469c11.4375-64.710938 11.503906-125.578125.210938-190.21875l5.042968-5.058594c6.5625-6.582031 10.179688-15.335937 10.179688-24.644531 0-9.3125-3.617188-18.0625-10.179688-24.648438-6.5625-6.582031-15.285156-10.207031-24.566406-10.207031s-18.007812 3.625-24.570312 10.207031l-8.703125 8.730469c-98.410157-17.539063-198.0625-17.550781-296.476563-.03125l-8.671875-8.699219c-6.5625-6.582031-15.289062-10.207031-24.570312-10.207031s-18.007813 3.625-24.570313 10.207031c-13.546875 13.589844-13.546875 35.703125 0 49.292969l4.875 4.886719c-11.332031 64.761718-11.265625 125.734375.210938 190.5625l-5.085938 5.097656c-13.546875 13.589844-13.546875 35.703125 0 49.292969 6.5625 6.582031 15.289063 10.207031 24.570313 10.207031s18.007812-3.625 24.570312-10.207031l9.875-9.90625c97.613281 17.226562 196.464844 17.214843 294.070313-.03125l9.90625 9.9375c6.5625 6.582031 15.285156 10.207031 24.570312 10.207031 9.28125 0 18.003906-3.625 24.566406-10.207031s10.179688-15.335938 10.179688-24.644531c0-9.3125-3.617188-18.0625-10.179688-24.644532zm0 0"/></svg>