<svg height="512pt" viewBox="0 -27 512 512" width="512pt" xmlns="http://www.w3.org/2000/svg"><path d="m164.054688 241.367188c0 1.832031-.070313 3.660156-.171876 5.480468h287.882813c-10.523437-17.804687-30.992187-33.558594-59.90625-45.683594-37.753906-15.828124-87.179687-24.546874-139.175781-24.546874-39.335938 0-74.175782 4.105468-104.136719 12.226562 9.804687 15.132812 15.507813 33.171875 15.507813 52.523438zm0 0"/><path d="m263.390625 0v30h42.914063l-52.511719 59.621094h108.695312v-30h-42.347656l52.511719-59.621094zm0 0"/><path d="m402.738281 65.851562v30h42.914063l-52.511719 59.625h108.695313v-30h-42.347657l52.511719-59.625zm0 0"/><path d="m0 458.414062h29.929688v-37.195312h450.953124v37.195312h29.933594v-114.761718h-480.886718v-30h462.925781v-36.804688h-462.925781v-30h103.96875c.148437-1.816406.226562-3.644531.226562-5.480468 0-36.789063-29.859375-66.71875-66.5625-66.71875-13.644531 0-26.714844 4.230468-37.632812 11.742187v-84.8125h-29.929688zm0 0"/></svg>