<svg height="512pt" viewBox="-14 0 512 512.00053" width="512pt" xmlns="http://www.w3.org/2000/svg"><path d="m52.234375 474.390625c1.445313 8.773437 3.203125 17.507813 5.3125 26.179687l2.78125 11.429688h86.554687l-6.34375-19.550781c-2.660156-8.207031-4.386718-13.523438-5.515624-18.058594zm0 0"/><path d="m350.5625 474.390625c-1.121094 4.542969-2.832031 9.867187-5.480469 18.089844l-6.285156 19.519531h86.109375l2.765625-11.453125c2.089844-8.667969 3.832031-17.390625 5.265625-26.15625zm0 0"/><path d="m163.640625 189.179688c-7.429687.21875-15.824219 1.734374-21.984375 6.207031-13.144531 9.550781-17.589844 19.222656-18.332031 23.085937 3.921875.480469 14.511719-.777344 27.660156-10.332031 6.15625-4.472656 10.167969-11.972656 12.65625-18.960937zm0 0"/><path d="m290.238281 201.28125c-11.269531-24.25-29.378906-40.320312-49.355469-40.320312-33.226562 0-61.292968 44.441406-61.292968 97.042968 0 32.734375 15.871094 57.902344 25.332031 69.992188 7.222656 9.230468 14.597656 15.945312 20.949219 20.375v-15.902344l-22.332032-22.261719h74.664063l-22.332031 22.261719v17.074219c6.972656-4.359375 14.871094-11.386719 22.410156-21.351563 8.921875-11.796875 23.894531-36.605468 23.894531-70.1875 0-18.277344-3.390625-35.570312-9.207031-50.351562-1.027344-2.148438-1.933594-4.285156-2.730469-6.371094zm0 0"/><path d="m330.453125 208.140625c13.144531 9.554687 23.742187 10.8125 27.660156 10.332031-.742187-3.863281-5.1875-13.53125-18.335937-23.085937-6.160156-4.476563-14.574219-5.984375-21.980469-6.210938 1.023437 2.222657 1.980469 4.496094 2.898437 6.800781 2.398438 4.707032 5.582032 9.132813 9.757813 12.164063zm0 0"/><path d="m475.175781 335.820312c13.429688-32.882812 11.28125-69.296874-4.992187-96.003906 15.945312-26.902344 17.648437-63.335937 3.816406-96.058594-7.671875-18.148437-19.511719-33.683593-33.726562-45.1875 4.1875-3.519531 7.847656-7.398437 10.945312-11.632812 21.363281-29.214844 12.046875-70.410156 11.636719-72.148438l-2.9375-12.558593-12.894531 1.054687c-1.785157.144532-43.980469 3.910156-65.347657 33.128906-.570312.78125-1.101562 1.59375-1.636719 2.402344-11.398437-12.671875-26.152343-23.15625-43.121093-30.042968-32.992188-13.386719-69.523438-11.242188-96.320313 4.980468-26.988281-15.898437-63.546875-17.597656-96.371094-3.808594-32.828124 13.789063-57.140624 41.050782-64.574218 71.40625-30.363282 7.78125-57.417969 32.347657-70.847656 65.230469-13.433594 32.886719-11.28125 69.300781 4.992187 96.003907-15.945313 26.902343-17.652344 63.339843-3.820313 96.0625 8.550782 20.222656 22.273438 37.199218 38.695313 48.972656-1.539063 19.019531-1.554687 38.011718-.074219 56.867187h56.152344c10.367188 11.269531 23.417969 20.746094 38.316406 27.421875 1.320313.59375 2.648438 1.171875 3.996094 1.71875 14.519531 5.890625 29.71875 8.773438 44.480469 8.773438 18.773437 0 36.835937-4.667969 51.835937-13.753906 26.992188 15.898437 63.550782 17.597656 96.375 3.808593.730469-.308593 1.453125-.628906 2.175782-.949219 14.824218-6.574218 27.828124-15.910156 38.222656-27.019531h56.398437c1.515625-19.453125 1.449219-39.050781-.222656-58.671875 16.613281-11.988281 30.417969-29.351562 38.847656-49.996094zm-143-77.816406c0 31.34375-10.632812 62.667969-29.941406 88.191406-18.355469 24.265626-41.292969 38.75-61.351563 38.75-18.160156 0-41.003906-14.773437-59.617187-38.554687-11.828125-15.117187-31.675781-46.707031-31.675781-88.386719 0-5.113281.238281-10.175781.660156-15.179687-8.742188 3.722656-17.324219 5.617187-25.089844 5.617187-11.246094 0-20.78125-3.941406-26.636718-11.949218-12.734376-17.410157-1.785157-45.46875 25.460937-65.269532 20.96875-15.230468 48.207031-12.320312 58.019531-10.613281 16.332032-19.144531 36.882813-29.546875 58.878906-29.546875 21.976563 0 42.511719 10.386719 58.835938 29.496094 10.054688-1.714844 36.972656-4.414063 57.734375 10.664062 27.246094 19.800782 38.195313 47.859375 25.464844 65.269532-5.855469 8.007812-15.398438 11.953124-26.640625 11.953124-7.667969 0-16.125-1.847656-24.75-5.472656.414062 4.957032.648437 9.96875.648437 15.03125zm0 0"/></svg>