<svg height="512pt" viewBox="0 -17 512 512" width="512pt" xmlns="http://www.w3.org/2000/svg"><path d="m396.050781 226.847656c7.703125 0 15.332031-.863281 22.746094-2.539062-.101563-.601563-.203125-1.195313-.300781-1.765625l5.089844-5.089844c6.582031-6.582031 10.207031-15.335937 10.207031-24.644531 0-9.3125-3.625-18.066406-10.207031-24.648438-6.582032-6.582031-15.335938-10.207031-24.644532-10.207031s-18.0625 3.625-24.644531 10.207031l-8.757813 8.757813c-16.304687-2.78125-39.566406-6.117188-62.757812-9.105469 16.585938 34.871094 52.15625 59.035156 93.269531 59.035156zm0 0"/><path d="m309.597656 437.980469c-125.65625 0-227.882812-102.234375-227.882812-227.894531 0-12.113282.960937-24.132813 2.847656-35.953126-5.472656.859376-10.933594 1.765626-16.367188 2.730469l-8.699218-8.699219c-6.582032-6.582031-15.335938-10.210937-24.644532-10.210937-9.308593 0-18.0625 3.628906-24.644531 10.210937-6.582031 6.582032-10.207031 15.335938-10.207031 24.644532s3.625 18.0625 10.207031 24.644531l4.886719 4.890625c-11.363281 64.757812-11.296875 125.730469.214844 190.558594l-5.101563 5.101562c-6.582031 6.582032-10.207031 15.335938-10.207031 24.644532 0 9.308593 3.625 18.0625 10.207031 24.644531s15.335938 10.210937 24.644531 10.210937c9.308594 0 18.0625-3.628906 24.644532-10.210937l9.90625-9.90625c97.90625 17.230469 197.058594 17.21875 294.957031-.027344l9.9375 9.933594c6.582031 6.585937 15.335937 10.210937 24.644531 10.210937s18.0625-3.625 24.644532-10.210937c6.582031-6.582031 10.207031-15.332031 10.207031-24.644531 0-9.308594-3.625-18.0625-10.207031-24.644532l-5.269532-5.269531c.152344-.871094.289063-1.730469.441406-2.597656-33.238281 18.144531-70.71875 27.84375-109.160156 27.84375zm0 0"/><path d="m396.050781 255.851562c-72.902343 0-132.214843-59.316406-132.214843-132.226562 0-31.503906 11.269531-62.019531 31.730468-85.925781l25.703125-30.027344-39.152343 5.417969c-47.136719 6.519531-90.46875 29.898437-122.015626 65.824218-31.847656 36.269532-49.390624 82.851563-49.390624 131.171876 0 109.671874 89.21875 198.894531 198.886718 198.894531 48.316406 0 94.898438-17.539063 131.167969-49.390625 35.921875-31.546875 59.296875-74.882813 65.820313-122.019532l5.414062-39.15625-30.027344 25.703126c-23.90625 20.464843-54.417968 31.734374-85.921875 31.734374zm0 0"/><path d="m413.359375 0h-30v32.144531h-32.148437v30h32.148437v32.144531h30v-32.144531h32.144531v-30h-32.144531zm0 0"/><path d="m463.179688 91.804688h30v30h-30zm0 0"/></svg>