<svg height="512pt" viewBox="0 -24 512 512" width="512pt" xmlns="http://www.w3.org/2000/svg"><path d="m122.910156 427.789062h118.128906v36.695313h-118.128906zm0 0"/><path d="m271.0625 427.789062h118.027344v36.695313h-118.027344zm0 0"/><path d="m512 93.953125-28.847656-25.3125v173.375l28.847656 23.117187zm0 0"/><path d="m215.238281 50.5625c0 22.492188 18.308594 40.789062 40.8125 40.789062 22.503907 0 40.8125-18.296874 40.8125-40.789062v-50.5625h-81.625zm0 0"/><path d="m92.890625 124.4375h30.019531v273.351562h118.128906v-278.054687c-31.867187-6.898437-55.820312-35.285156-55.820312-69.171875v-50.5625h-78.148438l-47.691406 41.847656v175.695313l33.511719-26.859375zm0 0"/><path d="m29.359375 68.191406-29.359375 25.761719v171.179687l29.359375-23.53125zm0 0"/><path d="m453.132812 42.296875-48.199218-42.296875h-78.046875v50.5625c0 33.882812-23.953125 62.273438-55.824219 69.171875v278.054687h118.027344v-273.351562h30.019531v66.25l34.023437 27.265625zm-155.183593 309.296875c-8.414063 0-14.644531-6.871094-15.011719-15-.363281-8.101562 7.160156-15 15.011719-15 8.414062 0 14.644531 6.875 15.011719 15 .359374 8.101562-7.160157 15-15.011719 15zm0-77.636719c-8.414063 0-14.644531-6.871093-15.011719-15-.363281-8.101562 7.160156-15 15.011719-15 8.414062 0 14.644531 6.875 15.011719 15 .359374 8.101563-7.160157 15-15.011719 15zm0-77.632812c-8.414063 0-14.644531-6.875-15.011719-15-.363281-8.101563 7.160156-15 15.011719-15 8.414062 0 14.644531 6.871093 15.011719 15 .359374 8.101562-7.160157 15-15.011719 15zm0 0"/></svg>