<svg height="511.999pt" viewBox="1 1 511.999 511.999" width="511.999pt" xmlns="http://www.w3.org/2000/svg"><path d="m147.632812 93.859375c1.597657-.53125 6.085938-2.957031 8.78125-4.410156 11.746094-6.347657 27.816407-15.023438 48.75-15.023438 17.773438 0 32.5 6.484375 43.34375 12.136719l35.679688 18.59375-15.503906 37.019531c-3.84375 9.1875-5.796875 18.949219-5.796875 29.015625 0 41.609375 33.984375 75.460938 75.753906 75.460938 10.417969 0 20.5-2.0625 29.96875-6.128906l36.886719-15.851563 19.132812 35.1875c5.835938 10.730469 14.652344 26.945313 14.652344 47.769531 0 20.855469-8.714844 36.863282-15.074219 48.550782-1.472656 2.703124-3.90625 7.175781-4.4375 8.761718-.351562 1.492188-.523437 5.6875-.628906 8.949219 6.015625-5.964844 10.40625-13.070313 14.425781-19.585937 3.320313-5.382813 6.460938-10.464844 9.871094-13.863282 3.410156-3.398437 8.515625-6.523437 13.917969-9.832031 9.613281-5.886719 20.511719-12.554687 27.175781-24.027344 6.574219-11.320312 6.953125-23.984375 7.289062-35.15625.191407-6.402343.375-12.445312 1.660157-17.242187 1.195312-4.449219 3.988281-9.578125 6.945312-15.011719 5.425781-9.964844 11.574219-21.261719 11.574219-34.804687 0-13.539063-6.152344-24.835938-11.574219-34.804688-2.957031-5.429688-5.75-10.558594-6.945312-15.003906-1.285157-4.800782-1.46875-10.84375-1.660157-17.246094-.335937-11.171875-.714843-23.835938-7.289062-35.15625-6.664062-11.46875-17.558594-18.140625-27.175781-24.027344-5.402344-3.308594-10.507813-6.433594-13.917969-9.832031-3.414062-3.398437-6.550781-8.484375-9.871094-13.867187-5.910156-9.574219-12.605468-20.433594-24.121094-27.066407-11.363281-6.550781-24.078124-6.929687-35.296874-7.261719-6.421876-.191406-12.492188-.375-17.308594-1.65625-4.464844-1.1875-9.613282-3.96875-15.066406-6.914062-10.003907-5.40625-21.347657-11.53125-34.9375-11.53125-13.59375 0-24.9375 6.125-34.941407 11.527344-5.453125 2.945312-10.605469 5.730468-15.070312 6.917968-4.816407 1.28125-10.882813 1.460938-17.308594 1.65625-11.214844.332032-23.929687.710938-35.292969 7.261719-11.515625 6.632813-18.214844 17.492188-24.125 27.070313-3.320312 5.382812-6.457031 10.464844-9.867187 13.863281-3.410157 3.394531-8.515625 6.519531-13.917969 9.828125-7.285156 4.460938-15.304688 9.375-21.660156 16.480469.789062-.023438 1.566406-.046875 2.324218-.070313 3.335938-.097656 8.871094-.261718 10.65625-.675781zm185.363282 89.117187c-8.394532 0-14.613282-6.832031-14.976563-14.914062-.359375-8.054688 7.144531-14.917969 14.976563-14.917969 8.394531 0 14.609375 6.835938 14.972656 14.917969.363281 8.054688-7.140625 14.914062-14.972656 14.914062zm14.902344-69.84375-.003907.003907c-4.109375 4.089843-9.503906 6.132812-14.898437 6.132812-5.398438 0-10.792969-2.042969-14.902344-6.136719-3.980469-3.964843-6.171875-9.238281-6.171875-14.84375 0-5.609374 2.191406-10.878906 6.175781-14.84375 3.976563-3.964843 9.265625-6.148437 14.898438-6.148437 5.628906 0 10.921875 2.183594 14.902344 6.148437 8.214843 8.183594 8.214843 21.5 0 29.6875zm74.214843 77.90625c-.359375-8.054687 7.144531-14.914062 14.976563-14.914062 8.394531 0 14.609375 6.832031 14.972656 14.914062.363281 8.054688-7.140625 14.917969-14.972656 14.917969-8.394532 0-14.613282-6.835937-14.976563-14.917969zm0 0"/><path d="m18.519531 357.445312c1.285157 4.796876 1.464844 10.839844 1.660157 17.242188.332031 11.171875.714843 23.835938 7.289062 35.15625 6.660156 11.46875 17.558594 18.140625 27.171875 24.027344 5.40625 3.308594 10.507813 6.433594 13.921875 9.832031 3.410156 3.398437 6.546875 8.484375 9.871094 13.867187 5.910156 9.578126 12.605468 20.433594 24.121094 27.066407 11.363281 6.550781 24.078124 6.929687 35.292968 7.261719 6.425782.191406 12.496094.375 17.308594 1.65625 4.464844 1.1875 9.617188 3.96875 15.070312 6.914062 10.003907 5.40625 21.347657 11.53125 34.9375 11.53125 13.59375 0 24.9375-6.125 34.941407-11.53125 5.453125-2.945312 10.605469-5.726562 15.070312-6.914062 4.816407-1.28125 10.882813-1.460938 17.308594-1.65625 11.214844-.332032 23.929687-.710938 35.292969-7.261719 11.515625-6.636719 18.210937-17.488281 24.121094-27.066407 3.324218-5.382812 6.460937-10.46875 9.871093-13.867187 3.414063-3.398437 8.515625-6.523437 13.921875-9.832031 9.613282-5.886719 20.511719-12.558594 27.171875-24.027344 6.574219-11.320312 6.957031-23.984375 7.289063-35.15625.195312-6.402344.375-12.445312 1.664062-17.242188 1.191406-4.449218 3.984375-9.578124 6.941406-15.007812 5.425782-9.96875 11.574219-21.265625 11.574219-34.804688 0-13.523437-6.1875-24.898437-11.15625-34.039062l-6.523437-11.996094-12.578125 5.40625c-13.105469 5.632813-27.046875 8.488282-41.433594 8.488282-57.734375 0-104.703125-46.789063-104.703125-104.300782 0-13.894531 2.699219-27.394531 8.027344-40.117187l5.285156-12.621094-12.164062-6.335937c-8.824219-4.597657-18.554688-8.855469-29.921876-8.855469-13.59375 0-24.933593 6.125-34.9375 11.527343-5.453124 2.945313-10.605468 5.730469-15.070312 6.917969-4.816406 1.28125-10.882812 1.464844-17.308594 1.65625-11.214844.332031-23.929687.710938-35.292968 7.261719-11.515626 6.636719-18.214844 17.488281-24.125 27.066406-3.320313 5.382813-6.457032 10.46875-9.871094 13.867188-3.410156 3.398437-8.515625 6.523437-13.917969 9.832031-9.613281 5.886719-20.511719 12.554687-27.171875 24.023437-6.578125 11.320313-6.957031 23.988282-7.292969 35.160157-.191406 6.402343-.371093 12.445312-1.660156 17.242187-1.191406 4.449219-3.984375 9.578125-6.941406 15.007813-5.425781 9.96875-11.574219 21.265625-11.574219 34.808593 0 13.539063 6.148438 24.835938 11.574219 34.804688 2.957031 5.429688 5.75 10.5625 6.945312 15.007812zm59.367188-28.289062c-.363281-8.054688 7.140625-14.914062 14.972656-14.914062 8.394531 0 14.609375 6.832031 14.972656 14.914062.363281 8.054688-7.140625 14.917969-14.972656 14.917969-8.394531 0-14.609375-6.835938-14.972656-14.917969zm119.4375 31.21875c.363281 8.054688-7.140625 14.914062-14.972657 14.914062-8.394531 0-14.609374-6.835937-14.972656-14.914062-.363281-8.054688 7.140625-14.917969 14.972656-14.917969 8.394532 0 14.609376 6.835938 14.972657 14.917969zm-21.554688-104.0625c8.21875 8.183594 8.21875 21.5 0 29.6875-3.980469 3.964844-9.273437 6.148438-14.902343 6.148438-5.628907 0-10.921876-2.183594-14.902344-6.152344-8.214844-8.179688-8.214844-21.5.003906-29.683594 3.976562-3.964844 9.269531-6.152344 14.898438-6.152344 5.628906 0 10.921874 2.1875 14.902343 6.152344zm-49.691406-10.113281c-8.394531 0-14.613281-6.832031-14.976563-14.914063-.359374-8.054687 7.144532-14.917968 14.976563-14.917968 8.394531 0 14.609375 6.835937 14.972656 14.917968.363281 8.054688-7.140625 14.914063-14.972656 14.914063zm111.886719 143.894531c3.980468-3.964844 9.273437-6.152344 14.902344-6.152344 5.628906 0 10.921874 2.1875 14.902343 6.152344 3.976563 3.960938 6.171875 9.234375 6.171875 14.839844 0 5.609375-2.195312 10.878906-6.175781 14.84375-4.105469 4.09375-9.503906 6.140625-14.898437 6.140625-5.398438 0-10.792969-2.046875-14.902344-6.136719-8.21875-8.1875-8.21875-21.507812 0-29.6875zm72.011718-47.5625c.363282 8.054688-7.140624 14.914062-14.972656 14.914062-8.398437 0-14.613281-6.832031-14.976562-14.914062-.363282-8.054688 7.144531-14.917969 14.976562-14.917969 8.390625 0 14.609375 6.835938 14.972656 14.917969zm0 0"/></svg>