<svg height="512pt" viewBox="-9 0 512 512.00008" width="512pt" xmlns="http://www.w3.org/2000/svg"><path d="m364.699219 288.976562v-29.863281h26.597656c-2.988281-28.523437-14.375-54.578125-31.632813-75.652343l-18.371093 18.285156-21.070313-21.164063 18.230469-18.144531c-21.050781-16.941406-46.964844-28.078125-75.292969-30.925781v25.222656h-29.863281v-25.117187c-28.191406 3.027343-53.957031 14.257812-74.863281 31.25l18.304687 18.21875-21.070312 21.167968-18.34375-18.261718c-17.015625 20.980468-28.242188 46.835937-31.203125 75.121093h25.972656v29.863281h-26c2.902344 28.179688 14.007812 53.957032 30.871094 74.914063l18.324218-18.238281 21.066407 21.167968-18.367188 18.285157c20.984375 17.191406 46.921875 28.558593 75.308594 31.605469v-26.363282h29.863281v26.46875c28.75-2.890625 55.019532-14.3125 76.234375-31.683594l-19.832031-19.746093 21.066406-21.164063 19.792969 19.703125c16.878906-20.964843 27.996094-46.757812 30.902344-74.949219zm-131.050781.085938-.351563-89.859375 29.863281-.113281.238282 59.933594 71.765624-.414063.171876 29.863281zm0 0"/><path d="m26.332031 191.714844c-9.636719 26.039062-14.683593 53.855468-14.683593 82.449218 0 63.058594 24.460937 122.351563 68.882812 167.0625l-53.945312 70.773438h91.226562l29.191406-23.566406c31.375 14.917968 65.933594 22.789062 101.703125 22.789062 36.066407 0 70.898438-8.007812 102.476563-23.167968l29.660156 23.945312h91.226562l-54.492187-71.484375c43.980469-44.628906 68.191406-103.625 68.191406-166.351563 0-29.007812-5.191406-57.210937-15.101562-83.570312l-175.109375-148.886719c-15.261719-3.042969-30.933594-4.601562-46.847656-4.601562-15.511719 0-30.792969 1.488281-45.6875 4.378906zm222.378907 255.691406c-95.527344 0-173.242188-77.71875-173.242188-173.242188 0-95.527343 77.714844-173.242187 173.242188-173.242187 95.523437 0 173.238281 77.714844 173.238281 173.242187 0 95.527344-77.714844 173.242188-173.238281 173.242188zm0 0"/><path d="m173.859375 27.082031c-16.847656-14.929687-37.972656-23.984375-60.8125-25.832031-21.261719-1.722656-42.066406 2.960938-60.195313 13.324219l-10.570312-13.644531-23.609375 18.289062 10.605469 13.6875c-33.464844 34.644531-38.734375 87.941406-13.261719 128.378906zm-124.351563 7.558594"/><path d="m477.761719 160.828125c25.335937-40.21875 20.339843-93.128906-12.492188-127.886719l10.707031-13.820312-11.835937-9.171875-11.835937-9.167969-10.46875 13.507812c-18.414063-10.796874-39.652344-15.695312-61.375-13.941406-22.902344 1.855469-44.085938 10.933594-60.980469 25.90625zm0 0"/></svg>