<svg height="512pt" viewBox="0 -2 512 512" width="512pt" xmlns="http://www.w3.org/2000/svg"><path d="m314.492188 414.519531h-30v32.140625h-32.144532v30h32.144532v32.148438h30v-32.148438h32.144531v-30h-32.144531zm0 0"/><path d="m378.890625 409.8125h30.003906v30h-30.003906zm0 0"/><path d="m190.84375 382.691406-21.210938-21.214844-15.648437 15.644532v-36.972656h-30v36.972656l-15.644531-15.644532-21.210938 21.214844 15.644532 15.644532h-36.976563v30h36.976563l-15.644532 15.644531 21.210938 21.214843 15.644531-15.644531v36.972657h30v-36.972657l15.648437 15.644531 21.210938-21.214843-15.644531-15.644531h36.976562v-30h-36.976562zm0 0"/><path d="m431.710938 153.027344h-1.21875c-6.1875-40.828125-39.738282-72.792969-81.300782-76.554688-7.019531-43.304687-44.675781-76.472656-89.929687-76.472656h-1.519531c-.546876 0-1.089844.015625-1.628907.0351562h-.226562c-.539063-.0195312-1.082031-.0351562-1.628907-.0351562h-1.519531c-45.253906 0-82.910156 33.167969-89.929687 76.472656-41.5625 3.761719-75.113282 35.726563-81.300782 76.554688h-1.21875c-44.269531 0-80.289062 36.015625-80.289062 80.289062 0 44.269532 36.019531 80.289063 80.289062 80.289063h351.421876c44.269531 0 80.289062-36.019531 80.289062-80.289063 0-44.273437-36.019531-80.289062-80.289062-80.289062zm-190.066407 59.726562v30h-103.714843l45.519531-51.566406h-37.707031v-30h104.207031l-45.519531 51.566406zm124.613281 0v30h-103.71875l45.523438-51.566406h-37.707031v-30h104.207031l-45.523438 51.566406zm0 0"/></svg>