<svg height="512pt" viewBox="0 0 512 512" width="512pt" xmlns="http://www.w3.org/2000/svg"><path d="m426.097656 64.691406c-46.910156-41.816406-106.742187-64.691406-170.097656-64.691406-68.378906 0-132.667969 26.628906-181.019531 74.980469-48.351563 48.351562-74.980469 112.640625-74.980469 181.019531 0 63.355469 22.875 123.1875 64.691406 170.097656zm-196.859375 133.191406v30h-108.945312l52.632812-59.625h-43.015625v-30h109.515625l-52.632812 59.625zm0 0"/><path d="m85.902344 447.308594c46.910156 41.816406 106.742187 64.691406 170.097656 64.691406 68.378906 0 132.667969-26.628906 181.019531-74.980469 48.351563-48.351562 74.980469-112.640625 74.980469-181.019531 0-63.355469-22.875-123.1875-64.691406-170.097656zm203.683594-140.019532v-30h109.515624l-52.636718 59.625h42.445312v30h-108.945312l52.632812-59.625zm0 0"/></svg>