<svg height="512pt" viewBox="0 -108 512 512" width="512pt" xmlns="http://www.w3.org/2000/svg"><path d="m108.0625 211.566406c5.398438 0 9.390625-4.929687 9.390625-20.769531 0-15.84375-3.988281-20.773437-9.390625-20.773437-5.398438 0-9.386719 4.929687-9.386719 20.773437 0 15.839844 3.988281 20.769531 9.386719 20.769531zm0 0"/><path d="m398.0625 211.566406c5.398438 0 9.390625-4.929687 9.390625-20.769531 0-15.84375-3.988281-20.773437-9.390625-20.773437-5.398438 0-9.386719 4.929687-9.386719 20.773437 0 15.839844 3.988281 20.769531 9.386719 20.769531zm0 0"/><path d="m195.496094 214.617188c4.933594 0 8.449218-3.167969 8.449218-8.332032 0-5.164062-3.519531-8.449218-8.449218-8.449218-4.925782 0-8.445313 3.285156-8.445313 8.449218 0 5.164063 3.519531 8.332032 8.445313 8.332032zm0 0"/><path d="m0 102.527344v193.507812h512v-193.507812zm398.0625 45.316406c21.710938 0 37.203125 15.726562 37.203125 42.953125 0 27.222656-15.492187 42.949219-37.203125 42.949219s-37.199219-15.726563-37.199219-42.949219c0-27.226563 15.492188-42.953125 37.199219-42.953125zm-86.84375 52.105469h-10.914062v-17.015625l12.085937-12.324219h-29.339844v-20.886719h61.261719v17.015625l-15.257812 15.488281c12.910156 3.171876 19.714843 11.972657 19.714843 23.355469 0 14.082031-11.265625 28.164063-37.550781 28.164063-11.269531 0-23.589844-2.464844-32.394531-7.394532l9.390625-20.417968c7.042968 4.105468 15.140625 5.984375 22.0625 5.984375 6.222656 0 10.679687-2.113281 10.679687-6.335938 0-3.519531-2.699219-5.632812-9.738281-5.632812zm-55.394531-33.445313c8.800781 0 15.488281 5.984375 15.488281 15.019532 0 8.917968-6.6875 15.257812-15.488281 15.257812-8.804688 0-15.492188-6.339844-15.492188-15.257812 0-9.035157 6.6875-15.019532 15.492188-15.019532zm0 36.261719c8.800781 0 15.488281 5.984375 15.488281 15.019531 0 8.917969-6.6875 15.257813-15.488281 15.257813-8.804688 0-15.492188-6.339844-15.492188-15.257813 0-9.035156 6.6875-15.019531 15.492188-15.019531zm-52.34375-54.921875c9.738281 0 19.246093 2.347656 25.464843 6.453125l-9.976562 19.363281c-4.8125-3.402344-9.738281-4.34375-14.902344-4.34375-9.386718 0-15.960937 4.8125-17.839844 13.96875 4.109376-2.933594 9.390626-4.578125 16.3125-4.578125 15.023438 0 28.167969 10.210938 28.167969 26.289063 0 17.601562-14.789062 28.75-33.328125 28.75-23.472656 0-39.433594-13.496094-39.433594-40.367188 0-28.753906 18.421876-45.535156 45.535157-45.535156zm-95.417969 0c21.710938 0 37.203125 15.726562 37.203125 42.953125 0 27.222656-15.492187 42.949219-37.203125 42.949219s-37.199219-15.726563-37.199219-42.949219c0-27.226563 15.492188-42.953125 37.199219-42.953125zm0 0"/><path d="m512 72.527344v-47.527344h-327.992188v-25h-30v25h-30.003906v-25h-30v25h-30.003906v-25h-30v25h-34v47.527344zm0 0"/></svg>