<svg height="512pt" viewBox="0 0 512 512" width="512pt" xmlns="http://www.w3.org/2000/svg"><path d="m97.769531 511.539062 158.195313-58.617187 158.191406 58.617187-6.859375-168.566406 104.628906-132.339844-162.4375-45.558593-93.523437-140.410157-93.527344 140.40625-162.4375 45.5625 104.632812 132.339844zm209.539063-243.585937c5.546875 0 10.230468-4.683594 10.230468-10.230469v-11.125h30.027344v11.125c0 22.199219-18.058594 40.257813-40.257812 40.257813-22.203125 0-40.261719-18.058594-40.261719-40.257813v-11.125h30.027344v11.125c0 5.546875 4.6875 10.230469 10.234375 10.230469zm-33.320313 62.507813c.292969 2.386718.355469 4.910156.355469 6.609374 0 1.695313-.0625 4.21875-.355469 6.609376-1.808593 14.742187-14.09375 15.167968-15.492187 15.167968-1.394532 0-13.675782-.425781-15.488282-15.164062-.292968-2.390625-.355468-4.914063-.355468-6.613282 0-1.695312.0625-4.222656.355468-6.609374 1.808594-14.742188 14.09375-15.167969 15.488282-15.167969 1.398437 0 13.683594.425781 15.492187 15.167969zm-69.367187-62.507813c5.546875 0 10.230468-4.683594 10.230468-10.230469v-11.125h30.027344v11.125c0 22.199219-18.058594 40.257813-40.257812 40.257813-22.199219 0-40.261719-18.058594-40.261719-40.257813v-11.125h30.027344v11.125c0 5.546875 4.6875 10.230469 10.234375 10.230469zm0 0"/><path d="m406.15625 70.148438v-30.027344h-24.410156l32.210937-40.121094h-87.371093v30.027344h24.757812l-32.210938 40.121094zm0 0"/><path d="m504.199219 144.605469v-30.027344h-24.410157l32.210938-40.121094h-87.371094v30.027344h24.757813l-32.210938 40.121094zm0 0"/></svg>