<svg height="511pt" viewBox="0 0 511 511.998" width="511pt" xmlns="http://www.w3.org/2000/svg"><path d="m423.789062 311.253906 18.777344-23.425781-43.464844-34.835937-15.769531-12.640626v-102.695312h-83.417969v35.835938l-44.464843-35.640626-144.109375 115.503907-43.011719 34.472656 18.777344 23.425781 24.234375-19.421875v190.144531h-33.625v30.019532h355.464844v-30.019532h-34.078126v-190.507812zm-98.875 170.722656h-30.023437v-135.253906h-78.886719v135.253906h-30.019531v-165.277343h138.929687zm0 0"/><path d="m181.980469 108.9375 5.421875-39.183594-30.050782 25.722656c-8.308593 7.109376-18.917968 11.027344-29.867187 11.027344-25.34375 0-45.964844-20.621094-45.964844-45.964844 0-10.949218 3.917969-21.558593 11.027344-29.867187l25.726563-30.050781-39.1875 5.421875c-44.800782 6.195312-78.585938 45.019531-78.585938 90.304687 0 50.273438 40.898438 91.175782 91.175781 91.175782 45.285157 0 84.109375-33.785157 90.304688-78.585938zm0 0"/><path d="m510.855469 32.121094h-32.121094v-32.121094h-29.976563v32.121094h-32.121093v29.976562h32.121093v32.121094h29.976563v-32.121094h32.121094zm0 0"/><path d="m315.214844 46.933594h29.980468v29.976562h-29.980468zm0 0"/><path d="m254.054688.289062h29.976562v29.980469h-29.976562zm0 0"/></svg>