<svg height="512pt" viewBox="0 0 512 512.00001" width="512pt" xmlns="http://www.w3.org/2000/svg"><path d="m401.144531 486.988281h-175.863281v25.011719h175.183594c6.886718-.011719 12.488281-5.617188 12.488281-12.503906v-.699219c0-6.511719-5.296875-11.808594-11.808594-11.808594zm0 0"/><path d="m87.984375 445.183594v-335.234375h-87.984375v30h29.910156v32.011719h-29.910156v30h29.910156v32.007812h-29.910156v30h29.910156v32.007812h-29.910156v30h29.910156v32.007813h-29.910156v30h29.910156v32.007813h-29.910156v30h29.910156v32.007812h-29.910156v30h142.113281v-25.011719h-12.320312c-23.054688 0-41.808594-18.753906-41.808594-41.804687zm0 0"/><path d="m289.769531 402.75v-402.75h-137.84375c-18.746093 0-33.941406 15.195312-33.941406 33.9375v371.152344c3.691406-1.09375 7.589844-1.699219 11.621094-1.714844zm0 0"/><path d="m382.9375 402.386719 129.0625-.5v-29.839844h-30.320312v-32.007813h30.320312v-30h-30.320312v-32.007812h30.320312v-30h-30.320312v-32.007812h30.320312v-30h-30.320312v-32.007813h30.320312v-30h-30.320312v-32.007813h30.320312v-30h-30.320312v-32.007812h30.320312v-30h-129.0625zm0 0"/><path d="m172.113281 486.988281h23.167969v25.011719h-23.167969zm0 0"/><path d="m319.769531 0v402.632812l33.167969-.128906v-402.503906zm0 0"/><path d="m117.984375 445.183594c0 6.507812 5.296875 11.804687 11.808594 11.804687h271.351562c19.808594 0 36.429688 13.855469 40.71875 32.375l.410157-57.28125-312.542969 1.292969c-6.472657.027344-11.746094 5.324219-11.746094 11.808594zm0 0"/></svg>