<svg height="512pt" viewBox="0 -89 512 512" width="512pt" xmlns="http://www.w3.org/2000/svg"><path d="m212.941406 0h-127.964844v265.535156h117.785157c14.1875 0 27.378906 4.351563 38.3125 11.785156v-249.191406c-.003907-15.535156-12.597657-28.128906-28.132813-28.128906zm-2.074218 206.8125h-97.191407v-30h97.191407zm0-60.003906h-97.191407v-30h97.191407zm0-60.003906h-97.191407v-30h97.191407zm0 0"/><path d="m427.167969 265.535156v-265.535156h-127.964844c-15.539063 0-28.132813 12.59375-28.132813 28.128906v249.191406c10.9375-7.433593 24.125-11.785156 38.316407-11.785156zm-127.382813-208.730468h97.191406v30h-97.191406zm0 60.003906h97.191406v30h-97.191406zm0 60.003906h97.191406v30h-97.191406zm0 0"/><path d="m512 21.535156h-54.832031v274h-147.78125c-21.070313 0-38.222657 17.097656-38.308594 38.148438h240.921875zm0 0"/><path d="m202.761719 295.535156h-147.785157v-274h-54.976562v312.148438h241.066406c-.085937-21.050782-17.234375-38.148438-38.304687-38.148438zm0 0"/></svg>