<svg height="512pt" viewBox="0 0 512 512" width="512pt" xmlns="http://www.w3.org/2000/svg"><path d="m198.464844 512c48.214844 0 94.699218-17.597656 130.886718-49.546875 35.847657-31.652344 59.175782-75.125 65.683594-122.410156l5.402344-39.28125-29.960938 25.785156c-23.855468 20.527344-54.304687 31.832031-85.738281 31.832031-72.75 0-131.9375-59.503906-131.9375-132.644531 0-31.601563 11.246094-62.214844 31.664063-86.195313l25.648437-30.125-39.070312 5.433594c-47.035157 6.542969-90.277344 29.992188-121.757813 66.03125-31.78125 36.386719-49.285156 83.117188-49.285156 131.59375 0 110.019532 89.03125 199.527344 198.464844 199.527344zm0 0"/><path d="m362.464844 89.90625v-30.09375h-42.351563l52.519531-59.8125h-109.277343v30.09375h42.917969l-52.519532 59.8125zm0 0"/><path d="m501.835938 155.972656v-30.097656h-42.355469l52.519531-59.8125h-109.277344v30.09375h42.921875l-52.519531 59.816406zm0 0"/><path d="m452.03125 350.53125h30v30h-30zm0 0"/><path d="m416.640625 408.214844h30.003906v30h-30.003906zm0 0"/><path d="m369.164062 172.414062h-30v32.144532h-32.144531v30h32.144531v32.144531h30v-32.144531h32.144532v-30h-32.144532zm0 0"/></svg>