<svg height="512pt" viewBox="0 -64 512 512" width="512pt" xmlns="http://www.w3.org/2000/svg"><path d="m157.488281 314.980469h113.429688c13.226562 40.722656 51.472656 69.144531 95.246093 69.144531 14.945313 0 29.34375-3.230469 42.796876-9.59375l28.652343-13.558594-28.652343-13.558594c-14.929688-7.066406-26.773438-19.148437-33.628907-33.796874 34.308594-4.507813 66.011719-20.117188 90.8125-45.042969 29.570313-29.710938 45.855469-69.164063 45.855469-111.085938 0-86.839843-70.648438-157.488281-157.488281-157.488281h-197.023438c-86.839843 0-157.488281 70.648438-157.488281 157.492188 0 86.839843 70.648438 157.488281 157.488281 157.488281zm-77.148437-170.140625v-30h104.207031l-45.519531 51.5625h37.214844v30h-103.714844l45.519531-51.5625zm124.609375 0v-30h104.207031l-45.519531 51.5625h37.214843v30h-103.714843l45.519531-51.5625zm124.609375 0v-30h104.207031l-45.519531 51.5625h37.214844v30h-103.714844l45.519531-51.5625zm0 0"/></svg>